<svg width="127" height="29" viewBox="0 0 127 29" fill="none" xmlns="http://www.w3.org/2000/svg">
<path d="M74 0L73.43 0.315L62.93 5.46L62 5.915V7C62 12.81 64.01 17.92 66.41 21.665C67.61 23.52 68.9 25.06 70.16 26.145C71.42 27.23 72.65 28 74 28C75.38 28 76.58 27.23 77.84 26.145C79.1 25.06 80.39 23.52 81.59 21.665C83.99 17.92 86 12.81 86 7V5.915L85.07 5.46L74.57 0.315L74 0ZM74 3.815V24.5C73.88 24.5 73.01 24.255 72.02 23.415C71.03 22.575 69.89 21.21 68.84 19.6C66.92 16.625 65.42 12.495 65.18 8.12L74 3.85V3.815Z" fill="white"/>
<path d="M11.42 18.64C11.5933 19.0267 11.6 19.4067 11.44 19.78C11.28 20.14 11.0267 20.4733 10.68 20.78C10.3333 21.0867 9.93333 21.3533 9.48 21.58C9.04 21.8067 8.62 21.9667 8.22 22.06C7.78 22.1533 7.31333 22.1933 6.82 22.18C6.34 22.18 5.85333 22.12 5.36 22C4.88 21.8933 4.40667 21.7333 3.94 21.52C3.48667 21.2933 3.06667 21.02 2.68 20.7C2.21333 20.3133 1.84667 19.8533 1.58 19.32C1.32667 18.7733 1.14 18.1933 1.02 17.58C0.9 16.9667 0.833333 16.3533 0.82 15.74C0.82 15.1133 0.84 14.5267 0.88 13.98C0.92 13.4867 1.02 12.9733 1.18 12.44C1.34 11.9067 1.56 11.3867 1.84 10.88C2.13333 10.36 2.48 9.88 2.88 9.44C3.29333 9 3.77333 8.62667 4.32 8.32C4.73333 8.08 5.19333 7.92 5.7 7.84C6.22 7.74667 6.74 7.72667 7.26 7.78C7.79333 7.82 8.29333 7.93333 8.76 8.12C9.24 8.29333 9.64667 8.53333 9.98 8.84C10.1933 9.02667 10.4133 9.28667 10.64 9.62C10.88 9.95333 11.0533 10.2933 11.16 10.64C11.2667 10.9867 11.2667 11.3133 11.16 11.62C11.0667 11.9133 10.8 12.1133 10.36 12.22C10.1733 12.2733 10.0067 12.2867 9.86 12.26C9.71333 12.22 9.58 12.16 9.46 12.08C9.34 11.9867 9.22667 11.88 9.12 11.76C9.01333 11.64 8.91333 11.52 8.82 11.4C8.5 11.0133 8.12667 10.7533 7.7 10.62C7.27333 10.4733 6.84667 10.44 6.42 10.52C6.00667 10.5867 5.61333 10.76 5.24 11.04C4.88 11.3067 4.6 11.6533 4.4 12.08C4.18667 12.5333 4.01333 13.0333 3.88 13.58C3.76 14.1133 3.69333 14.66 3.68 15.22C3.66667 15.7667 3.71333 16.3 3.82 16.82C3.94 17.34 4.14 17.8 4.42 18.2C4.63333 18.52 4.89333 18.78 5.2 18.98C5.52 19.18 5.86 19.32 6.22 19.4C6.58 19.48 6.94 19.4933 7.3 19.44C7.67333 19.3867 8.03333 19.2667 8.38 19.08C8.48667 19.0267 8.6 18.9533 8.72 18.86C8.85333 18.7533 8.98667 18.6467 9.12 18.54C9.25333 18.4333 9.38667 18.3333 9.52 18.24C9.66667 18.1467 9.82 18.08 9.98 18.04C10.22 17.96 10.48 17.9667 10.76 18.06C11.0533 18.1533 11.2733 18.3467 11.42 18.64ZM13.1833 14.92C13.1833 14.76 13.1833 14.58 13.1833 14.38C13.1833 14.1667 13.1899 13.9533 13.2033 13.74C13.2166 13.5133 13.2366 13.3 13.2633 13.1C13.3033 12.8867 13.3566 12.7 13.4233 12.54C13.5299 12.3 13.6966 12.14 13.9233 12.06C14.1499 11.9667 14.3966 11.9267 14.6633 11.94C14.9433 11.94 15.1633 11.9867 15.3233 12.08C15.4833 12.1733 15.6033 12.3 15.6833 12.46C15.7633 12.6067 15.8099 12.78 15.8233 12.98C15.8499 13.1667 15.8633 13.3667 15.8633 13.58C15.9833 13.3667 16.1433 13.1933 16.3433 13.06C16.5566 12.9267 16.7699 12.82 16.9833 12.74C17.1966 12.66 17.3899 12.6067 17.5633 12.58C17.7366 12.54 17.8366 12.52 17.8633 12.52C18.1966 12.4933 18.4966 12.4867 18.7633 12.5C19.0433 12.5133 19.3499 12.5733 19.6833 12.68C19.8966 12.76 20.1166 12.8733 20.3433 13.02C20.5699 13.1533 20.7699 13.3133 20.9433 13.5C21.1166 13.6867 21.2299 13.8933 21.2833 14.12C21.3499 14.3333 21.3233 14.56 21.2033 14.8C21.0166 15.1333 20.8099 15.3 20.5833 15.3C20.3566 15.2867 20.1099 15.2467 19.8433 15.18C19.6966 15.1533 19.5233 15.0933 19.3233 15C19.1233 14.9067 18.9499 14.8467 18.8033 14.82C18.3499 14.7533 17.9499 14.7867 17.6033 14.92C17.2566 15.0533 16.9566 15.2133 16.7033 15.4C16.4099 15.6267 16.1566 15.8867 15.9433 16.18V19.06C15.9433 19.42 15.9366 19.7933 15.9233 20.18C15.9233 20.5667 15.8699 20.92 15.7633 21.24C15.6699 21.5467 15.5033 21.8 15.2633 22C15.0366 22.1867 14.7033 22.2667 14.2633 22.24C14.0233 22.2267 13.8099 22.1133 13.6233 21.9C13.4366 21.6733 13.3233 21.4533 13.2833 21.24C13.2566 21.04 13.2366 20.8 13.2233 20.52C13.2099 20.24 13.1966 19.9467 13.1833 19.64C13.1833 19.3333 13.1833 19.0267 13.1833 18.72C13.1833 18.4 13.1833 18.1067 13.1833 17.84V14.92ZM31.2495 13.08C31.3695 13.2667 31.4229 13.4667 31.4095 13.68C31.4095 13.9867 31.3562 14.2533 31.2495 14.48C31.2229 14.5467 31.1829 14.6333 31.1295 14.74C31.0895 14.8467 31.0429 14.96 30.9895 15.08C30.9495 15.2 30.9029 15.3133 30.8495 15.42C30.7962 15.5267 30.7562 15.6067 30.7295 15.66L30.6895 15.76C30.5029 16.1733 30.3229 16.5733 30.1495 16.96C29.9762 17.3467 29.7829 17.76 29.5695 18.2C29.3562 18.6267 29.1495 19.0467 28.9495 19.46C28.7629 19.86 28.5762 20.2533 28.3895 20.64C28.3362 20.7467 28.2895 20.8533 28.2495 20.96C28.2095 21.0533 28.1562 21.1533 28.0895 21.26L27.1295 23.32C26.9562 23.6667 26.7895 24.0067 26.6295 24.34C26.4829 24.6733 26.3162 25.0067 26.1295 25.34C26.0895 25.4067 26.0495 25.4667 26.0095 25.52C25.9829 25.5867 25.9562 25.6533 25.9295 25.72C25.8362 25.88 25.6962 26.0333 25.5095 26.18C25.3362 26.34 25.1495 26.4267 24.9495 26.44C24.5895 26.4667 24.2762 26.36 24.0095 26.12C23.8495 26.0267 23.7229 25.8933 23.6295 25.72C23.5762 25.6 23.5495 25.4467 23.5495 25.26C23.5629 25.18 23.5695 25.1 23.5695 25.02C23.5829 24.9533 23.5962 24.8867 23.6095 24.82C23.6362 24.7533 23.6562 24.6867 23.6695 24.62C23.6829 24.5533 23.7029 24.5 23.7295 24.46C23.7695 24.3533 23.8029 24.3 23.8295 24.3L25.2895 21.14C25.2229 20.9933 25.1562 20.8467 25.0895 20.7C25.0229 20.54 24.9629 20.4 24.9095 20.28C24.7362 19.8667 24.5495 19.4333 24.3495 18.98C24.1629 18.5133 23.9695 18.0533 23.7695 17.6C23.5695 17.1333 23.3629 16.68 23.1495 16.24C22.9362 15.8 22.7229 15.38 22.5095 14.98C22.4295 14.8467 22.3562 14.7067 22.2895 14.56C22.2229 14.4 22.1695 14.2467 22.1295 14.1C22.0895 13.94 22.0762 13.78 22.0895 13.62C22.1029 13.46 22.1629 13.3 22.2695 13.14C22.3762 12.94 22.5162 12.8 22.6895 12.72C22.8629 12.6267 23.0429 12.5867 23.2295 12.6C23.4295 12.6 23.6162 12.64 23.7895 12.72C23.9629 12.8 24.1029 12.9067 24.2095 13.04C24.4362 13.28 24.6162 13.5467 24.7495 13.84C24.8829 14.1333 25.0095 14.4333 25.1295 14.74C25.3829 15.2733 25.6429 15.8333 25.9095 16.42C26.1762 17.0067 26.4429 17.58 26.7095 18.14L27.7495 15.94C27.8562 15.7267 27.9495 15.52 28.0295 15.32C28.1229 15.12 28.2162 14.9267 28.3095 14.74C28.4162 14.5133 28.5162 14.28 28.6095 14.04C28.7162 13.8 28.8362 13.58 28.9695 13.38C28.9962 13.3267 29.0229 13.28 29.0495 13.24C29.0762 13.2 29.1029 13.1533 29.1295 13.1C29.2495 12.94 29.3562 12.8133 29.4495 12.72C29.5162 12.6667 29.5695 12.6267 29.6095 12.6C29.6629 12.56 29.7229 12.5333 29.7895 12.52C29.8829 12.4933 29.9695 12.48 30.0495 12.48C30.1429 12.4667 30.2295 12.4667 30.3095 12.48C30.4429 12.52 30.6029 12.58 30.7895 12.66C30.9895 12.74 31.1429 12.88 31.2495 13.08ZM38.6266 13C39.0132 13.16 39.3666 13.3933 39.6866 13.7C40.0066 13.9933 40.2799 14.3333 40.5066 14.72C40.7466 15.1067 40.9266 15.5267 41.0466 15.98C41.1799 16.42 41.2466 16.8667 41.2466 17.32C41.2599 18 41.0999 18.64 40.7666 19.24C40.4466 19.84 39.9199 20.3 39.1866 20.62C38.6266 20.8467 38.0466 21.02 37.4466 21.14C36.8599 21.2467 36.2466 21.32 35.6066 21.36V25.02C35.6066 25.1 35.5932 25.1733 35.5666 25.24C35.5532 25.3067 35.5466 25.3733 35.5466 25.44C35.5199 25.5733 35.4866 25.6933 35.4466 25.8C35.4199 25.9067 35.3799 26.02 35.3266 26.14C35.2732 26.22 35.2199 26.2933 35.1666 26.36C35.1132 26.4267 35.0532 26.4933 34.9866 26.56C34.6666 26.72 34.3332 26.7533 33.9866 26.66C33.7732 26.6467 33.5999 26.58 33.4666 26.46C33.3466 26.34 33.2599 26.2133 33.2066 26.08C33.1532 25.9467 33.1066 25.7933 33.0666 25.62C33.0532 25.5533 33.0399 25.4867 33.0266 25.42C33.0266 25.3667 33.0266 25.3067 33.0266 25.24V14.1C33.0266 14.02 33.0266 13.94 33.0266 13.86C33.0399 13.7667 33.0532 13.6733 33.0666 13.58C33.0799 13.42 33.1199 13.26 33.1866 13.1C33.3066 12.7667 33.5532 12.54 33.9266 12.42C34.2999 12.3 34.7199 12.2467 35.1866 12.26C35.5066 12.2733 35.8332 12.3067 36.1666 12.36C36.5132 12.4133 36.8399 12.48 37.1466 12.56C37.4666 12.6267 37.7532 12.7 38.0066 12.78C38.2599 12.86 38.4666 12.9333 38.6266 13ZM38.6666 17.32C38.7199 16.9467 38.6732 16.6333 38.5266 16.38C38.3932 16.1133 38.1999 15.9 37.9466 15.74C37.6932 15.5667 37.3999 15.4333 37.0666 15.34C36.7466 15.2467 36.4266 15.18 36.1066 15.14C36.0666 15.1267 35.9999 15.12 35.9066 15.12C35.8266 15.12 35.7332 15.12 35.6266 15.12C35.6266 15.5467 35.6266 15.96 35.6266 16.36C35.6399 16.7467 35.6399 17.1667 35.6266 17.62V18.96C35.9332 18.9467 36.2532 18.9133 36.5866 18.86C36.9332 18.8067 37.2532 18.72 37.5466 18.6C37.8399 18.48 38.0866 18.32 38.2866 18.12C38.4999 17.92 38.6266 17.6533 38.6666 17.32ZM50.5509 13.18C50.6576 13.4333 50.6643 13.7133 50.5709 14.02C50.4909 14.3267 50.3376 14.5267 50.1109 14.62C49.9909 14.6733 49.8309 14.72 49.6309 14.76C49.4309 14.7867 49.2109 14.8133 48.9709 14.84C48.7443 14.8667 48.5176 14.8867 48.2909 14.9C48.0643 14.9133 47.8709 14.92 47.7109 14.92C47.7243 15.32 47.7376 15.7333 47.7509 16.16C47.7643 16.5733 47.7776 16.98 47.7909 17.38C47.8043 17.78 47.8109 18.1667 47.8109 18.54C47.8109 18.9 47.8043 19.2267 47.7909 19.52C47.7909 19.72 47.7909 19.9533 47.7909 20.22C47.7909 20.4733 47.7709 20.72 47.7309 20.96C47.7043 21.2 47.6576 21.4133 47.5909 21.6C47.5243 21.7733 47.4243 21.8867 47.2909 21.94C46.8776 22.1133 46.4976 22.16 46.1509 22.08C45.8176 22.0133 45.5776 21.8733 45.4309 21.66C45.3243 21.4867 45.2443 21.2867 45.1909 21.06C45.1376 20.82 45.0976 20.58 45.0709 20.34C45.0576 20.0867 45.0509 19.8467 45.0509 19.62C45.0643 19.38 45.0709 19.1733 45.0709 19C45.0843 18.44 45.0909 17.8067 45.0909 17.1C45.1043 16.38 45.1109 15.66 45.1109 14.94H44.8109C44.6509 14.94 44.4443 14.94 44.1909 14.94C43.9509 14.9267 43.7043 14.9067 43.4509 14.88C43.2109 14.84 42.9843 14.7933 42.7709 14.74C42.5576 14.6733 42.4043 14.58 42.3109 14.46C42.1643 14.2867 42.0709 14.1 42.0309 13.9C42.0043 13.7 42.0176 13.5133 42.0709 13.34C42.1376 13.1533 42.2376 12.9933 42.3709 12.86C42.5043 12.7133 42.6576 12.62 42.8309 12.58C43.0709 12.5133 43.4109 12.48 43.8509 12.48C44.2909 12.4667 44.7043 12.4667 45.0909 12.48C45.0776 12.3467 45.0709 12.22 45.0709 12.1C45.0709 11.9667 45.0643 11.84 45.0509 11.72C45.0376 11.56 45.0309 11.36 45.0309 11.12C45.0309 10.8667 45.0443 10.62 45.0709 10.38C45.1109 10.1267 45.1709 9.89333 45.2509 9.68C45.3309 9.45333 45.4443 9.28 45.5909 9.16C45.7909 9 45.9909 8.91333 46.1909 8.9C46.4043 8.87333 46.5976 8.9 46.7709 8.98C46.9576 9.06 47.1109 9.18 47.2309 9.34C47.3643 9.48667 47.4576 9.65333 47.5109 9.84C47.5509 10 47.5843 10.1933 47.6109 10.42C47.6376 10.6333 47.6509 10.86 47.6509 11.1C47.6643 11.34 47.6709 11.58 47.6709 11.82C47.6709 12.06 47.6709 12.28 47.6709 12.48H47.8709C48.0709 12.48 48.3043 12.4733 48.5709 12.46C48.8376 12.4467 49.0976 12.4533 49.3509 12.48C49.6176 12.5067 49.8576 12.5733 50.0709 12.68C50.2843 12.7733 50.4443 12.94 50.5509 13.18ZM53.7511 12.96C54.1911 12.7467 54.6511 12.5933 55.1311 12.5C55.6111 12.4067 56.0844 12.3867 56.5511 12.44C57.0311 12.4933 57.4911 12.62 57.9311 12.82C58.3844 13.02 58.7978 13.3 59.1711 13.66C59.4778 13.9667 59.7444 14.34 59.9711 14.78C60.1978 15.2067 60.3644 15.6267 60.4711 16.04C60.6978 16.7733 60.7311 17.5133 60.5711 18.26C60.4111 19.0067 60.1378 19.7 59.7511 20.34C59.5644 20.6333 59.3311 20.9 59.0511 21.14C58.7844 21.3667 58.4978 21.5533 58.1911 21.7C57.7911 21.8867 57.3578 22.0133 56.8911 22.08C56.4244 22.16 55.9711 22.18 55.5311 22.14C54.7311 22.1 54.0244 21.9 53.4111 21.54C52.8111 21.18 52.3244 20.72 51.9511 20.16C51.5911 19.6 51.3511 18.9667 51.2311 18.26C51.1244 17.54 51.1711 16.8067 51.3711 16.06C51.5844 15.26 51.8911 14.6133 52.2911 14.12C52.7044 13.6133 53.1911 13.2267 53.7511 12.96ZM54.3511 15.64C54.1511 15.8267 53.9978 16.06 53.8911 16.34C53.7844 16.62 53.7178 16.9133 53.6911 17.22C53.6644 17.5133 53.6844 17.8133 53.7511 18.12C53.8311 18.4133 53.9511 18.68 54.1111 18.92C54.2444 19.12 54.4844 19.2867 54.8311 19.42C55.1778 19.5533 55.5378 19.6333 55.9111 19.66C56.3378 19.6867 56.7111 19.5733 57.0311 19.32C57.3511 19.0533 57.5911 18.7267 57.7511 18.34C57.9244 17.9533 58.0044 17.5333 57.9911 17.08C57.9778 16.6267 57.8578 16.2133 57.6311 15.84C57.4711 15.5733 57.2444 15.38 56.9511 15.26C56.6711 15.1267 56.3711 15.06 56.0511 15.06C55.7444 15.0467 55.4378 15.0933 55.1311 15.2C54.8244 15.2933 54.5644 15.44 54.3511 15.64Z" fill="white"/>
<path d="M98.84 9.46C98.9867 9.63333 99.06 9.81333 99.06 10C99.06 10.08 99.0533 10.1667 99.04 10.26C99.04 10.34 99.0333 10.4133 99.02 10.48C98.98 10.6267 98.8933 10.7667 98.76 10.9C98.6533 10.98 98.5067 11.04 98.32 11.08C98.2267 11.1067 98.1333 11.1267 98.04 11.14C97.9467 11.1533 97.8467 11.1733 97.74 11.2C97.6467 11.2133 97.5533 11.22 97.46 11.22C97.3667 11.22 97.2667 11.22 97.16 11.22H96.14C95.9 11.2333 95.66 11.24 95.42 11.24C95.1933 11.24 94.9667 11.24 94.74 11.24C94.7533 11.6533 94.76 12.1 94.76 12.58C94.76 13.0467 94.7533 13.5933 94.74 14.22C94.74 14.8467 94.7333 15.5733 94.72 16.4C94.72 17.2267 94.72 18.1867 94.72 19.28V20.8C94.72 20.9333 94.7267 21.0333 94.74 21.1C94.74 21.1533 94.74 21.2067 94.74 21.26C94.74 21.3 94.7333 21.3533 94.72 21.42C94.6933 21.54 94.6733 21.68 94.66 21.84C94.66 21.9067 94.6533 21.9733 94.64 22.04C94.6267 22.0933 94.6067 22.1533 94.58 22.22C94.5267 22.2733 94.5 22.3133 94.5 22.34L94.44 22.46C94.3733 22.5933 94.2467 22.72 94.06 22.84C93.7667 22.9867 93.44 23.02 93.08 22.94C92.8533 22.9133 92.68 22.8533 92.56 22.76C92.44 22.64 92.3533 22.52 92.3 22.4C92.22 22.2533 92.1733 22.1133 92.16 21.98C92.12 21.86 92.1 21.7333 92.1 21.6V11.32C92.02 11.32 91.8533 11.32 91.6 11.32C91.3467 11.32 91.0733 11.32 90.78 11.32C90.5 11.3067 90.2333 11.2933 89.98 11.28C89.7267 11.2667 89.5533 11.2533 89.46 11.24C89.38 11.2267 89.2533 11.2067 89.08 11.18C88.92 11.1533 88.7867 11.1267 88.68 11.1C88.4 11.02 88.18 10.8933 88.02 10.72C87.8733 10.5467 87.8 10.3533 87.8 10.14C87.8 10.06 87.8 9.98 87.8 9.9C87.8 9.82 87.8133 9.74667 87.84 9.68C87.88 9.52 87.9867 9.38667 88.16 9.28C88.2133 9.24 88.2933 9.19333 88.4 9.14C88.52 9.07333 88.6333 9.02667 88.74 9C88.9 8.94667 89.1 8.90667 89.34 8.88C89.4467 8.86667 89.5533 8.86 89.66 8.86C89.7667 8.86 89.88 8.86 90 8.86C90.4667 8.86 90.9067 8.86 91.32 8.86C91.7467 8.86 92.1933 8.85333 92.66 8.84C93.4333 8.82667 94.2 8.82667 94.96 8.84C95.7333 8.84 96.5 8.85333 97.26 8.88C97.4333 8.89333 97.6 8.91333 97.76 8.94C97.92 8.96667 98.08 9.01333 98.24 9.08C98.36 9.12 98.4733 9.17333 98.58 9.24C98.6867 9.29333 98.7733 9.36667 98.84 9.46ZM105.658 20.26C105.818 20.22 105.978 20.1933 106.138 20.18C106.311 20.1667 106.464 20.1867 106.598 20.24C106.744 20.2933 106.864 20.3867 106.958 20.52C107.051 20.64 107.098 20.8133 107.098 21.04C107.098 21.2 107.058 21.3533 106.978 21.5C106.898 21.6467 106.798 21.78 106.678 21.9C106.558 22.02 106.424 22.1267 106.278 22.22C106.131 22.3 105.991 22.3667 105.858 22.42C105.471 22.5933 105.024 22.7267 104.518 22.82C104.024 22.9133 103.511 22.9467 102.978 22.92C102.258 22.8933 101.564 22.7533 100.898 22.5C100.244 22.2333 99.7308 21.8 99.3575 21.2C99.0108 20.6133 98.8042 19.96 98.7375 19.24C98.6708 18.52 98.7042 17.84 98.8375 17.2C98.9842 16.4267 99.2308 15.8 99.5775 15.32C99.9375 14.8267 100.364 14.4333 100.858 14.14C101.458 13.7933 102.131 13.6133 102.878 13.6C103.624 13.5867 104.338 13.7333 105.018 14.04C105.471 14.24 105.878 14.5133 106.238 14.86C106.598 15.1933 106.871 15.6 107.058 16.08C107.111 16.2 107.151 16.3467 107.178 16.52C107.218 16.6933 107.244 16.88 107.258 17.08C107.271 17.2667 107.271 17.4533 107.258 17.64C107.244 17.8267 107.211 17.9933 107.158 18.14C107.078 18.38 106.978 18.5667 106.858 18.7C106.738 18.8333 106.584 18.9333 106.398 19C106.211 19.0667 105.984 19.1133 105.718 19.14C105.464 19.1533 105.158 19.1667 104.798 19.18C104.478 19.1933 104.178 19.2 103.898 19.2C103.618 19.2 103.331 19.2 103.038 19.2C102.744 19.1867 102.438 19.18 102.118 19.18C101.811 19.1667 101.464 19.1533 101.078 19.14C101.038 19.4067 101.071 19.64 101.178 19.84C101.298 20.0267 101.458 20.1867 101.658 20.32C101.858 20.44 102.084 20.5333 102.338 20.6C102.591 20.6667 102.838 20.7067 103.077 20.72C103.531 20.7467 103.964 20.7133 104.378 20.62C104.791 20.5133 105.218 20.3933 105.658 20.26ZM104.798 16.38C104.544 16.0867 104.278 15.8733 103.998 15.74C103.784 15.6467 103.558 15.6067 103.318 15.62C103.091 15.62 102.871 15.6533 102.658 15.72C102.271 15.8133 101.944 16.0133 101.678 16.32C101.651 16.3467 101.604 16.4133 101.538 16.52C101.471 16.6133 101.404 16.7133 101.338 16.82C101.284 16.9267 101.244 17.0267 101.218 17.12C101.191 17.2133 101.204 17.26 101.258 17.26H105.178C105.164 17.0733 105.131 16.92 105.078 16.8C105.024 16.6667 104.931 16.5267 104.798 16.38ZM116.314 15.3C116.421 15.4867 116.474 15.6867 116.474 15.9C116.488 16.1133 116.441 16.3133 116.334 16.5C116.214 16.74 116.041 16.9067 115.814 17C115.601 17.08 115.361 17.0867 115.094 17.02C114.974 16.9933 114.868 16.9467 114.774 16.88C114.681 16.8133 114.581 16.7467 114.474 16.68C114.381 16.6 114.268 16.5267 114.134 16.46C114.014 16.3933 113.854 16.3467 113.654 16.32C113.454 16.2933 113.234 16.2933 112.994 16.32C112.768 16.3467 112.561 16.4 112.374 16.48C112.081 16.6267 111.848 16.8533 111.674 17.16C111.501 17.4533 111.388 17.7733 111.334 18.12C111.281 18.4533 111.288 18.7933 111.354 19.14C111.434 19.4867 111.581 19.78 111.794 20.02C111.954 20.2067 112.161 20.36 112.414 20.48C112.681 20.6 112.934 20.6733 113.174 20.7C113.401 20.7267 113.628 20.7267 113.854 20.7C114.081 20.66 114.301 20.6067 114.514 20.54C114.674 20.4733 114.854 20.3867 115.054 20.28C115.254 20.16 115.448 20.0867 115.634 20.06C115.874 20.06 116.061 20.1267 116.194 20.26C116.328 20.38 116.421 20.5333 116.474 20.72C116.528 20.8933 116.534 21.08 116.494 21.28C116.468 21.48 116.394 21.6533 116.274 21.8C116.114 22 115.888 22.1933 115.594 22.38C115.301 22.5533 115.021 22.68 114.754 22.76C114.434 22.8667 114.074 22.9267 113.674 22.94C113.288 22.9533 112.921 22.94 112.574 22.9C112.414 22.8733 112.248 22.84 112.074 22.8C111.901 22.76 111.734 22.7133 111.574 22.66C110.988 22.4467 110.494 22.1467 110.094 21.76C109.708 21.36 109.408 20.9133 109.194 20.42C108.994 19.9267 108.881 19.4 108.854 18.84C108.828 18.28 108.894 17.7267 109.054 17.18C109.201 16.66 109.381 16.22 109.594 15.86C109.821 15.5 110.081 15.2067 110.374 14.98C110.681 14.74 111.021 14.5533 111.394 14.42C111.768 14.2733 112.181 14.1467 112.634 14.04C113.101 13.9467 113.594 13.9467 114.114 14.04C114.634 14.1333 115.101 14.3067 115.514 14.56C115.834 14.7333 116.101 14.98 116.314 15.3ZM125.913 19.06C125.926 19.3267 125.933 19.6067 125.933 19.9C125.933 20.18 125.926 20.44 125.913 20.68C125.899 21.04 125.879 21.3733 125.853 21.68C125.826 21.9733 125.773 22.2267 125.693 22.44C125.613 22.64 125.486 22.7933 125.313 22.9C125.153 22.9933 124.926 23.02 124.633 22.98C124.326 22.94 124.106 22.7933 123.973 22.54C123.839 22.2867 123.746 22 123.693 21.68C123.653 21.3467 123.639 21.0133 123.653 20.68C123.666 20.3467 123.666 20.0867 123.653 19.9C123.639 19.6067 123.626 19.2733 123.613 18.9C123.613 18.5133 123.573 18.1533 123.493 17.82C123.426 17.4733 123.306 17.18 123.133 16.94C122.959 16.7 122.699 16.5733 122.353 16.56C121.913 16.5333 121.573 16.5667 121.333 16.66C121.106 16.7533 120.939 16.8933 120.833 17.08C120.726 17.2533 120.659 17.4667 120.633 17.72C120.619 17.9733 120.593 18.2467 120.553 18.54L120.533 19.32V20.78C120.533 21.02 120.526 21.2733 120.513 21.54C120.513 21.7933 120.473 22.0267 120.393 22.24C120.313 22.4533 120.186 22.6333 120.013 22.78C119.853 22.9267 119.613 23 119.293 23C118.893 23 118.593 22.8733 118.393 22.62C118.206 22.3533 118.113 22.0267 118.113 21.64V10.14C118.113 10.06 118.113 9.98667 118.113 9.92C118.126 9.84 118.139 9.76 118.153 9.68C118.179 9.6 118.199 9.52667 118.213 9.46C118.226 9.38 118.246 9.30667 118.273 9.24C118.313 9.10667 118.379 9.00667 118.473 8.94C118.539 8.87333 118.606 8.82 118.673 8.78C118.739 8.74 118.813 8.71333 118.893 8.7C118.959 8.68667 119.033 8.68 119.113 8.68C119.193 8.66667 119.273 8.66 119.353 8.66C119.553 8.66 119.746 8.72 119.933 8.84C120.013 8.89333 120.086 8.95333 120.153 9.02C120.219 9.07333 120.273 9.15333 120.313 9.26C120.419 9.51333 120.473 9.75333 120.473 9.98C120.486 10.0467 120.493 10.1467 120.493 10.28C120.506 10.4 120.513 10.5267 120.513 10.66C120.513 10.7933 120.513 10.9267 120.513 11.06C120.526 11.18 120.533 11.2733 120.533 11.34V11.44C120.546 11.8667 120.553 12.3 120.553 12.74C120.553 13.18 120.553 13.6267 120.553 14.08V14.42C121.113 14.2333 121.699 14.1467 122.312 14.16C122.926 14.16 123.473 14.28 123.953 14.52C124.446 14.7733 124.819 15.06 125.073 15.38C125.339 15.7 125.533 16.0533 125.653 16.44C125.773 16.8267 125.839 17.24 125.853 17.68C125.879 18.12 125.899 18.58 125.913 19.06Z" fill="white"/>
</svg>
