<svg width="218" height="49" viewBox="0 0 218 49" fill="none" xmlns="http://www.w3.org/2000/svg">
<path d="M122.5 0L121.526 0.55125L103.589 9.555L102 10.3513V12.25C102 22.4175 105.434 31.36 109.534 37.9138C111.584 41.16 113.788 43.855 115.94 45.7537C118.093 47.6525 120.194 49 122.5 49C124.858 49 126.908 47.6525 129.06 45.7537C131.213 43.855 133.416 41.16 135.466 37.9138C139.566 31.36 143 22.4175 143 12.25V10.3513L141.411 9.555L123.474 0.55125L122.5 0ZM122.5 6.67625V42.875C122.295 42.875 120.809 42.4463 119.117 40.9763C117.426 39.5063 115.479 37.1175 113.685 34.3C110.405 29.0937 107.842 21.8662 107.432 14.21L122.5 6.7375V6.67625Z" fill="#07A658"/>
<path d="M18.272 28.624C18.5493 29.2427 18.56 29.8507 18.304 30.448C18.048 31.024 17.6427 31.5573 17.088 32.048C16.5333 32.5387 15.8933 32.9653 15.168 33.328C14.464 33.6907 13.792 33.9467 13.152 34.096C12.448 34.2453 11.7013 34.3093 10.912 34.288C10.144 34.288 9.36533 34.192 8.576 34C7.808 33.8293 7.05067 33.5733 6.304 33.232C5.57867 32.8693 4.90667 32.432 4.288 31.92C3.54133 31.3013 2.95467 30.5653 2.528 29.712C2.12267 28.8373 1.824 27.9093 1.632 26.928C1.44 25.9467 1.33333 24.9653 1.312 23.984C1.312 22.9813 1.344 22.0427 1.408 21.168C1.472 20.3787 1.632 19.5573 1.888 18.704C2.144 17.8507 2.496 17.0187 2.944 16.208C3.41333 15.376 3.968 14.608 4.608 13.904C5.26933 13.2 6.03733 12.6027 6.912 12.112C7.57333 11.728 8.30933 11.472 9.12 11.344C9.952 11.1947 10.784 11.1627 11.616 11.248C12.4693 11.312 13.2693 11.4933 14.016 11.792C14.784 12.0693 15.4347 12.4533 15.968 12.944C16.3093 13.2427 16.6613 13.6587 17.024 14.192C17.408 14.7253 17.6853 15.2693 17.856 15.824C18.0267 16.3787 18.0267 16.9013 17.856 17.392C17.7067 17.8613 17.28 18.1813 16.576 18.352C16.2773 18.4373 16.0107 18.4587 15.776 18.416C15.5413 18.352 15.328 18.256 15.136 18.128C14.944 17.9787 14.7627 17.808 14.592 17.616C14.4213 17.424 14.2613 17.232 14.112 17.04C13.6 16.4213 13.0027 16.0053 12.32 15.792C11.6373 15.5573 10.9547 15.504 10.272 15.632C9.61067 15.7387 8.98133 16.016 8.384 16.464C7.808 16.8907 7.36 17.4453 7.04 18.128C6.69867 18.8533 6.42133 19.6533 6.208 20.528C6.016 21.3813 5.90933 22.256 5.888 23.152C5.86667 24.0267 5.94133 24.88 6.112 25.712C6.304 26.544 6.624 27.28 7.072 27.92C7.41333 28.432 7.82933 28.848 8.32 29.168C8.832 29.488 9.376 29.712 9.952 29.84C10.528 29.968 11.104 29.9893 11.68 29.904C12.2773 29.8187 12.8533 29.6267 13.408 29.328C13.5787 29.2427 13.76 29.1253 13.952 28.976C14.1653 28.8053 14.3787 28.6347 14.592 28.464C14.8053 28.2933 15.0187 28.1333 15.232 27.984C15.4667 27.8347 15.712 27.728 15.968 27.664C16.352 27.536 16.768 27.5467 17.216 27.696C17.6853 27.8453 18.0373 28.1547 18.272 28.624ZM21.0933 22.672C21.0933 22.416 21.0933 22.128 21.0933 21.808C21.0933 21.4667 21.1039 21.1253 21.1253 20.784C21.1466 20.4213 21.1786 20.08 21.2213 19.76C21.2853 19.4187 21.3706 19.12 21.4773 18.864C21.6479 18.48 21.9146 18.224 22.2773 18.096C22.6399 17.9467 23.0346 17.8827 23.4613 17.904C23.9093 17.904 24.2613 17.9787 24.5173 18.128C24.7733 18.2773 24.9653 18.48 25.0933 18.736C25.2213 18.9707 25.2959 19.248 25.3173 19.568C25.3599 19.8667 25.3813 20.1867 25.3813 20.528C25.5733 20.1867 25.8293 19.9093 26.1493 19.696C26.4906 19.4827 26.8319 19.312 27.1733 19.184C27.5146 19.056 27.8239 18.9707 28.1013 18.928C28.3786 18.864 28.5386 18.832 28.5813 18.832C29.1146 18.7893 29.5946 18.7787 30.0213 18.8C30.4693 18.8213 30.9599 18.9173 31.4933 19.088C31.8346 19.216 32.1866 19.3973 32.5493 19.632C32.9119 19.8453 33.2319 20.1013 33.5093 20.4C33.7866 20.6987 33.9679 21.0293 34.0533 21.392C34.1599 21.7333 34.1173 22.096 33.9253 22.48C33.6266 23.0133 33.2959 23.28 32.9333 23.28C32.5706 23.2587 32.1759 23.1947 31.7493 23.088C31.5146 23.0453 31.2373 22.9493 30.9173 22.8C30.5973 22.6507 30.3199 22.5547 30.0853 22.512C29.3599 22.4053 28.7199 22.4587 28.1653 22.672C27.6106 22.8853 27.1306 23.1413 26.7253 23.44C26.2559 23.8027 25.8506 24.2187 25.5093 24.688V29.296C25.5093 29.872 25.4986 30.4693 25.4773 31.088C25.4773 31.7067 25.3919 32.272 25.2213 32.784C25.0719 33.2747 24.8053 33.68 24.4213 34C24.0586 34.2987 23.5253 34.4267 22.8213 34.384C22.4373 34.3627 22.0959 34.1813 21.7973 33.84C21.4986 33.4773 21.3173 33.1253 21.2533 32.784C21.2106 32.464 21.1786 32.08 21.1573 31.632C21.1359 31.184 21.1146 30.7147 21.0933 30.224C21.0933 29.7333 21.0933 29.2427 21.0933 28.752C21.0933 28.24 21.0933 27.7707 21.0933 27.344V22.672ZM49.9993 19.728C50.1913 20.0267 50.2766 20.3467 50.2553 20.688C50.2553 21.1787 50.1699 21.6053 49.9993 21.968C49.9566 22.0747 49.8926 22.2133 49.8073 22.384C49.7433 22.5547 49.6686 22.736 49.5833 22.928C49.5193 23.12 49.4446 23.3013 49.3593 23.472C49.2739 23.6427 49.2099 23.7707 49.1673 23.856L49.1033 24.016C48.8046 24.6773 48.5166 25.3173 48.2393 25.936C47.9619 26.5547 47.6526 27.216 47.3113 27.92C46.9699 28.6027 46.6393 29.2747 46.3193 29.936C46.0206 30.576 45.7219 31.2053 45.4233 31.824C45.3379 31.9947 45.2633 32.1653 45.1993 32.336C45.1353 32.4853 45.0499 32.6453 44.9433 32.816L43.4073 36.112C43.1299 36.6667 42.8633 37.2107 42.6073 37.744C42.3726 38.2773 42.1059 38.8107 41.8073 39.344C41.7433 39.4507 41.6793 39.5467 41.6153 39.632C41.5726 39.7387 41.5299 39.8453 41.4873 39.952C41.3379 40.208 41.1139 40.4533 40.8153 40.688C40.5379 40.944 40.2393 41.0827 39.9193 41.104C39.3433 41.1467 38.8419 40.976 38.4153 40.592C38.1593 40.4427 37.9566 40.2293 37.8073 39.952C37.7219 39.76 37.6793 39.5147 37.6793 39.216C37.7006 39.088 37.7113 38.96 37.7113 38.832C37.7326 38.7253 37.7539 38.6187 37.7753 38.512C37.8179 38.4053 37.8499 38.2987 37.8713 38.192C37.8926 38.0853 37.9246 38 37.9673 37.936C38.0313 37.7653 38.0846 37.68 38.1273 37.68L40.4633 32.624C40.3566 32.3893 40.2499 32.1547 40.1433 31.92C40.0366 31.664 39.9406 31.44 39.8553 31.248C39.5779 30.5867 39.2793 29.8933 38.9593 29.168C38.6606 28.4213 38.3513 27.6853 38.0312 26.96C37.7113 26.2133 37.3806 25.488 37.0393 24.784C36.6979 24.08 36.3566 23.408 36.0153 22.768C35.8873 22.5547 35.7699 22.3307 35.6633 22.096C35.5566 21.84 35.4713 21.5947 35.4073 21.36C35.3433 21.104 35.3219 20.848 35.3433 20.592C35.3646 20.336 35.4606 20.08 35.6313 19.824C35.8019 19.504 36.0259 19.28 36.3033 19.152C36.5806 19.0027 36.8686 18.9387 37.1673 18.96C37.4873 18.96 37.7859 19.024 38.0633 19.152C38.3406 19.28 38.5646 19.4507 38.7352 19.664C39.0979 20.048 39.3859 20.4747 39.5993 20.944C39.8126 21.4133 40.0153 21.8933 40.2073 22.384C40.6126 23.2373 41.0286 24.1333 41.4553 25.072C41.8819 26.0107 42.3086 26.928 42.7353 27.824L44.3993 24.304C44.5699 23.9627 44.7193 23.632 44.8473 23.312C44.9966 22.992 45.1459 22.6827 45.2953 22.384C45.4659 22.0213 45.6259 21.648 45.7753 21.264C45.9459 20.88 46.1379 20.528 46.3513 20.208C46.3939 20.1227 46.4366 20.048 46.4793 19.984C46.5219 19.92 46.5646 19.8453 46.6073 19.76C46.7993 19.504 46.9699 19.3013 47.1193 19.152C47.2259 19.0667 47.3113 19.0027 47.3753 18.96C47.4606 18.896 47.5566 18.8533 47.6633 18.832C47.8126 18.7893 47.9513 18.768 48.0793 18.768C48.2286 18.7467 48.3673 18.7467 48.4953 18.768C48.7086 18.832 48.9646 18.928 49.2633 19.056C49.5833 19.184 49.8286 19.408 49.9993 19.728ZM61.8025 19.6C62.4212 19.856 62.9865 20.2293 63.4985 20.72C64.0105 21.1893 64.4478 21.7333 64.8105 22.352C65.1945 22.9707 65.4825 23.6427 65.6745 24.368C65.8878 25.072 65.9945 25.7867 65.9945 26.512C66.0158 27.6 65.7598 28.624 65.2265 29.584C64.7145 30.544 63.8718 31.28 62.6985 31.792C61.8025 32.1547 60.8745 32.432 59.9145 32.624C58.9758 32.7947 57.9945 32.912 56.9705 32.976V38.832C56.9705 38.96 56.9492 39.0773 56.9065 39.184C56.8852 39.2907 56.8745 39.3973 56.8745 39.504C56.8318 39.7173 56.7785 39.9093 56.7145 40.08C56.6718 40.2507 56.6078 40.432 56.5225 40.624C56.4372 40.752 56.3518 40.8693 56.2665 40.976C56.1812 41.0827 56.0852 41.1893 55.9785 41.296C55.4665 41.552 54.9332 41.6053 54.3785 41.456C54.0372 41.4347 53.7598 41.328 53.5465 41.136C53.3545 40.944 53.2158 40.7413 53.1305 40.528C53.0452 40.3147 52.9705 40.0693 52.9065 39.792C52.8852 39.6853 52.8638 39.5787 52.8425 39.472C52.8425 39.3867 52.8425 39.2907 52.8425 39.184V21.36C52.8425 21.232 52.8425 21.104 52.8425 20.976C52.8638 20.8267 52.8852 20.6773 52.9065 20.528C52.9278 20.272 52.9918 20.016 53.0985 19.76C53.2905 19.2267 53.6852 18.864 54.2825 18.672C54.8798 18.48 55.5518 18.3947 56.2985 18.416C56.8105 18.4373 57.3332 18.4907 57.8665 18.576C58.4212 18.6613 58.9438 18.768 59.4345 18.896C59.9465 19.0027 60.4052 19.12 60.8105 19.248C61.2158 19.376 61.5465 19.4933 61.8025 19.6ZM61.8665 26.512C61.9518 25.9147 61.8772 25.4133 61.6425 25.008C61.4292 24.5813 61.1198 24.24 60.7145 23.984C60.3092 23.7067 59.8398 23.4933 59.3065 23.344C58.7945 23.1947 58.2825 23.088 57.7705 23.024C57.7065 23.0027 57.5998 22.992 57.4505 22.992C57.3225 22.992 57.1732 22.992 57.0025 22.992C57.0025 23.6747 57.0025 24.336 57.0025 24.976C57.0238 25.5947 57.0238 26.2667 57.0025 26.992V29.136C57.4932 29.1147 58.0052 29.0613 58.5385 28.976C59.0932 28.8907 59.6052 28.752 60.0745 28.56C60.5438 28.368 60.9385 28.112 61.2585 27.792C61.5998 27.472 61.8025 27.0453 61.8665 26.512ZM80.8815 19.888C81.0522 20.2933 81.0628 20.7413 80.9135 21.232C80.7855 21.7227 80.5402 22.0427 80.1775 22.192C79.9855 22.2773 79.7295 22.352 79.4095 22.416C79.0895 22.4587 78.7375 22.5013 78.3535 22.544C77.9908 22.5867 77.6282 22.6187 77.2655 22.64C76.9028 22.6613 76.5935 22.672 76.3375 22.672C76.3588 23.312 76.3802 23.9733 76.4015 24.656C76.4228 25.3173 76.4442 25.968 76.4655 26.608C76.4868 27.248 76.4975 27.8667 76.4975 28.464C76.4975 29.04 76.4868 29.5627 76.4655 30.032C76.4655 30.352 76.4655 30.7253 76.4655 31.152C76.4655 31.5573 76.4335 31.952 76.3695 32.336C76.3268 32.72 76.2522 33.0613 76.1455 33.36C76.0388 33.6373 75.8788 33.8187 75.6655 33.904C75.0042 34.1813 74.3962 34.256 73.8415 34.128C73.3082 34.0213 72.9242 33.7973 72.6895 33.456C72.5188 33.1787 72.3908 32.8587 72.3055 32.496C72.2202 32.112 72.1562 31.728 72.1135 31.344C72.0922 30.9387 72.0815 30.5547 72.0815 30.192C72.1028 29.808 72.1135 29.4773 72.1135 29.2C72.1348 28.304 72.1455 27.2907 72.1455 26.16C72.1668 25.008 72.1775 23.856 72.1775 22.704H71.6975C71.4415 22.704 71.1108 22.704 70.7055 22.704C70.3215 22.6827 69.9268 22.6507 69.5215 22.608C69.1375 22.544 68.7748 22.4693 68.4335 22.384C68.0922 22.2773 67.8468 22.128 67.6975 21.936C67.4628 21.6587 67.3135 21.36 67.2495 21.04C67.2068 20.72 67.2282 20.4213 67.3135 20.144C67.4202 19.8453 67.5802 19.5893 67.7935 19.376C68.0068 19.1413 68.2522 18.992 68.5295 18.928C68.9135 18.8213 69.4575 18.768 70.1615 18.768C70.8655 18.7467 71.5268 18.7467 72.1455 18.768C72.1242 18.5547 72.1135 18.352 72.1135 18.16C72.1135 17.9467 72.1028 17.744 72.0815 17.552C72.0602 17.296 72.0495 16.976 72.0495 16.592C72.0495 16.1867 72.0708 15.792 72.1135 15.408C72.1775 15.0027 72.2735 14.6293 72.4015 14.288C72.5295 13.9253 72.7108 13.648 72.9455 13.456C73.2655 13.2 73.5855 13.0613 73.9055 13.04C74.2468 12.9973 74.5562 13.04 74.8335 13.168C75.1322 13.296 75.3775 13.488 75.5695 13.744C75.7828 13.9787 75.9322 14.2453 76.0175 14.544C76.0815 14.8 76.1348 15.1093 76.1775 15.472C76.2202 15.8133 76.2415 16.176 76.2415 16.56C76.2628 16.944 76.2735 17.328 76.2735 17.712C76.2735 18.096 76.2735 18.448 76.2735 18.768H76.5935C76.9135 18.768 77.2868 18.7573 77.7135 18.736C78.1402 18.7147 78.5562 18.7253 78.9615 18.768C79.3882 18.8107 79.7722 18.9173 80.1135 19.088C80.4548 19.2373 80.7108 19.504 80.8815 19.888ZM86.0018 19.536C86.7058 19.1947 87.4418 18.9493 88.2098 18.8C88.9778 18.6507 89.7351 18.6187 90.4818 18.704C91.2498 18.7893 91.9858 18.992 92.6898 19.312C93.4151 19.632 94.0764 20.08 94.6738 20.656C95.1644 21.1467 95.5911 21.744 95.9538 22.448C96.3164 23.1307 96.5831 23.8027 96.7537 24.464C97.1164 25.6373 97.1698 26.8213 96.9138 28.016C96.6578 29.2107 96.2204 30.32 95.6018 31.344C95.3031 31.8133 94.9298 32.24 94.4818 32.624C94.0551 32.9867 93.5964 33.2853 93.1058 33.52C92.4658 33.8187 91.7724 34.0213 91.0258 34.128C90.2791 34.256 89.5538 34.288 88.8498 34.224C87.5698 34.16 86.4391 33.84 85.4578 33.264C84.4978 32.688 83.7191 31.952 83.1218 31.056C82.5458 30.16 82.1618 29.1467 81.9698 28.016C81.7991 26.864 81.8738 25.6907 82.1938 24.496C82.5351 23.216 83.0258 22.1813 83.6658 21.392C84.3271 20.5813 85.1058 19.9627 86.0018 19.536ZM86.9618 23.824C86.6418 24.1227 86.3964 24.496 86.2258 24.944C86.0551 25.392 85.9484 25.8613 85.9058 26.352C85.8631 26.8213 85.8951 27.3013 86.0018 27.792C86.1298 28.2613 86.3218 28.688 86.5778 29.072C86.7911 29.392 87.1751 29.6587 87.7298 29.872C88.2844 30.0853 88.8604 30.2133 89.4578 30.256C90.1404 30.2987 90.7378 30.1173 91.2498 29.712C91.7618 29.2853 92.1458 28.7627 92.4018 28.144C92.6791 27.5253 92.8071 26.8533 92.7858 26.128C92.7644 25.4027 92.5724 24.7413 92.2098 24.144C91.9538 23.7173 91.5911 23.408 91.1218 23.216C90.6738 23.0027 90.1938 22.896 89.6818 22.896C89.1911 22.8747 88.7004 22.9493 88.2098 23.12C87.7191 23.2693 87.3031 23.504 86.9618 23.824Z" fill="black"/>
<path d="M167.312 12.628C167.576 12.94 167.708 13.264 167.708 13.6C167.708 13.744 167.696 13.9 167.672 14.068C167.672 14.212 167.66 14.344 167.636 14.464C167.564 14.728 167.408 14.98 167.168 15.22C166.976 15.364 166.712 15.472 166.376 15.544C166.208 15.592 166.04 15.628 165.872 15.652C165.704 15.676 165.524 15.712 165.332 15.76C165.164 15.784 164.996 15.796 164.828 15.796C164.66 15.796 164.48 15.796 164.288 15.796H162.452C162.02 15.82 161.588 15.832 161.156 15.832C160.748 15.832 160.34 15.832 159.932 15.832C159.956 16.576 159.968 17.38 159.968 18.244C159.968 19.084 159.956 20.068 159.932 21.196C159.932 22.324 159.92 23.632 159.896 25.12C159.896 26.608 159.896 28.336 159.896 30.304V33.04C159.896 33.28 159.908 33.46 159.932 33.58C159.932 33.676 159.932 33.772 159.932 33.868C159.932 33.94 159.92 34.036 159.896 34.156C159.848 34.372 159.812 34.624 159.788 34.912C159.788 35.032 159.776 35.152 159.752 35.272C159.728 35.368 159.692 35.476 159.644 35.596C159.548 35.692 159.5 35.764 159.5 35.812L159.392 36.028C159.272 36.268 159.044 36.496 158.708 36.712C158.18 36.976 157.592 37.036 156.944 36.892C156.536 36.844 156.224 36.736 156.008 36.568C155.792 36.352 155.636 36.136 155.54 35.92C155.396 35.656 155.312 35.404 155.288 35.164C155.216 34.948 155.18 34.72 155.18 34.48V15.976C155.036 15.976 154.736 15.976 154.28 15.976C153.824 15.976 153.332 15.976 152.804 15.976C152.3 15.952 151.82 15.928 151.364 15.904C150.908 15.88 150.596 15.856 150.428 15.832C150.284 15.808 150.056 15.772 149.744 15.724C149.456 15.676 149.216 15.628 149.024 15.58C148.52 15.436 148.124 15.208 147.836 14.896C147.572 14.584 147.44 14.236 147.44 13.852C147.44 13.708 147.44 13.564 147.44 13.42C147.44 13.276 147.464 13.144 147.512 13.024C147.584 12.736 147.776 12.496 148.088 12.304C148.184 12.232 148.328 12.148 148.52 12.052C148.736 11.932 148.94 11.848 149.132 11.8C149.42 11.704 149.78 11.632 150.212 11.584C150.404 11.56 150.596 11.548 150.788 11.548C150.98 11.548 151.184 11.548 151.4 11.548C152.24 11.548 153.032 11.548 153.776 11.548C154.544 11.548 155.348 11.536 156.188 11.512C157.58 11.488 158.96 11.488 160.328 11.512C161.72 11.512 163.1 11.536 164.468 11.584C164.78 11.608 165.08 11.644 165.368 11.692C165.656 11.74 165.944 11.824 166.232 11.944C166.448 12.016 166.652 12.112 166.844 12.232C167.036 12.328 167.192 12.46 167.312 12.628ZM179.584 32.068C179.872 31.996 180.16 31.948 180.448 31.924C180.76 31.9 181.036 31.936 181.276 32.032C181.54 32.128 181.756 32.296 181.924 32.536C182.092 32.752 182.176 33.064 182.176 33.472C182.176 33.76 182.104 34.036 181.96 34.3C181.816 34.564 181.636 34.804 181.42 35.02C181.204 35.236 180.964 35.428 180.7 35.596C180.436 35.74 180.184 35.86 179.944 35.956C179.248 36.268 178.444 36.508 177.532 36.676C176.644 36.844 175.72 36.904 174.76 36.856C173.464 36.808 172.216 36.556 171.016 36.1C169.84 35.62 168.916 34.84 168.244 33.76C167.62 32.704 167.248 31.528 167.128 30.232C167.008 28.936 167.068 27.712 167.308 26.56C167.572 25.168 168.016 24.04 168.64 23.176C169.288 22.288 170.056 21.58 170.944 21.052C172.024 20.428 173.236 20.104 174.58 20.08C175.924 20.056 177.208 20.32 178.432 20.872C179.248 21.232 179.98 21.724 180.628 22.348C181.276 22.948 181.768 23.68 182.104 24.544C182.2 24.76 182.272 25.024 182.32 25.336C182.392 25.648 182.44 25.984 182.464 26.344C182.488 26.68 182.488 27.016 182.464 27.352C182.44 27.688 182.38 27.988 182.284 28.252C182.14 28.684 181.96 29.02 181.744 29.26C181.528 29.5 181.252 29.68 180.916 29.8C180.58 29.92 180.172 30.004 179.692 30.052C179.236 30.076 178.684 30.1 178.036 30.124C177.46 30.148 176.92 30.16 176.416 30.16C175.912 30.16 175.396 30.16 174.868 30.16C174.34 30.136 173.788 30.124 173.212 30.124C172.66 30.1 172.036 30.076 171.34 30.052C171.268 30.532 171.328 30.952 171.52 31.312C171.736 31.648 172.024 31.936 172.384 32.176C172.744 32.392 173.152 32.56 173.608 32.68C174.064 32.8 174.508 32.872 174.939 32.896C175.756 32.944 176.536 32.884 177.28 32.716C178.024 32.524 178.792 32.308 179.584 32.068ZM178.036 25.084C177.58 24.556 177.1 24.172 176.596 23.932C176.212 23.764 175.804 23.692 175.372 23.716C174.964 23.716 174.568 23.776 174.184 23.896C173.488 24.064 172.9 24.424 172.42 24.976C172.372 25.024 172.288 25.144 172.168 25.336C172.048 25.504 171.928 25.684 171.808 25.876C171.712 26.068 171.64 26.248 171.592 26.416C171.544 26.584 171.568 26.668 171.664 26.668H178.72C178.696 26.332 178.636 26.056 178.54 25.84C178.444 25.6 178.276 25.348 178.036 25.084ZM198.766 23.14C198.958 23.476 199.054 23.836 199.054 24.22C199.078 24.604 198.994 24.964 198.802 25.3C198.586 25.732 198.274 26.032 197.866 26.2C197.482 26.344 197.05 26.356 196.57 26.236C196.354 26.188 196.162 26.104 195.994 25.984C195.826 25.864 195.646 25.744 195.454 25.624C195.286 25.48 195.082 25.348 194.842 25.228C194.626 25.108 194.338 25.024 193.978 24.976C193.618 24.928 193.222 24.928 192.79 24.976C192.382 25.024 192.01 25.12 191.674 25.264C191.146 25.528 190.726 25.936 190.414 26.488C190.102 27.016 189.898 27.592 189.802 28.216C189.706 28.816 189.718 29.428 189.838 30.052C189.982 30.676 190.246 31.204 190.63 31.636C190.918 31.972 191.29 32.248 191.746 32.464C192.226 32.68 192.682 32.812 193.114 32.86C193.522 32.908 193.93 32.908 194.338 32.86C194.746 32.788 195.142 32.692 195.526 32.572C195.814 32.452 196.138 32.296 196.498 32.104C196.858 31.888 197.206 31.756 197.542 31.708C197.974 31.708 198.31 31.828 198.55 32.068C198.79 32.284 198.958 32.56 199.054 32.896C199.15 33.208 199.162 33.544 199.09 33.904C199.042 34.264 198.91 34.576 198.694 34.84C198.406 35.2 197.998 35.548 197.47 35.884C196.942 36.196 196.438 36.424 195.958 36.568C195.382 36.76 194.734 36.868 194.014 36.892C193.318 36.916 192.658 36.892 192.034 36.82C191.746 36.772 191.446 36.712 191.134 36.64C190.822 36.568 190.522 36.484 190.234 36.388C189.178 36.004 188.29 35.464 187.57 34.768C186.874 34.048 186.334 33.244 185.95 32.356C185.59 31.468 185.386 30.52 185.338 29.512C185.29 28.504 185.41 27.508 185.698 26.524C185.962 25.588 186.286 24.796 186.67 24.148C187.078 23.5 187.546 22.972 188.074 22.564C188.626 22.132 189.238 21.796 189.91 21.556C190.582 21.292 191.326 21.064 192.142 20.872C192.982 20.704 193.87 20.704 194.806 20.872C195.742 21.04 196.582 21.352 197.326 21.808C197.902 22.12 198.382 22.564 198.766 23.14ZM216.043 29.908C216.067 30.388 216.079 30.892 216.079 31.42C216.079 31.924 216.067 32.392 216.043 32.824C216.019 33.472 215.983 34.072 215.935 34.624C215.887 35.152 215.791 35.608 215.647 35.992C215.503 36.352 215.275 36.628 214.963 36.82C214.675 36.988 214.267 37.036 213.739 36.964C213.187 36.892 212.791 36.628 212.551 36.172C212.311 35.716 212.143 35.2 212.047 34.624C211.975 34.024 211.951 33.424 211.975 32.824C211.999 32.224 211.999 31.756 211.975 31.42C211.951 30.892 211.927 30.292 211.903 29.62C211.903 28.924 211.831 28.276 211.687 27.676C211.567 27.052 211.351 26.524 211.039 26.092C210.727 25.66 210.259 25.432 209.635 25.408C208.843 25.36 208.231 25.42 207.799 25.588C207.391 25.756 207.091 26.008 206.899 26.344C206.707 26.656 206.587 27.04 206.539 27.496C206.515 27.952 206.467 28.444 206.395 28.972L206.359 30.376V33.004C206.359 33.436 206.347 33.892 206.323 34.372C206.323 34.828 206.251 35.248 206.107 35.632C205.963 36.016 205.735 36.34 205.423 36.604C205.135 36.868 204.703 37 204.127 37C203.407 37 202.867 36.772 202.507 36.316C202.171 35.836 202.003 35.248 202.003 34.552V13.852C202.003 13.708 202.003 13.576 202.003 13.456C202.027 13.312 202.051 13.168 202.075 13.024C202.123 12.88 202.159 12.748 202.183 12.628C202.207 12.484 202.243 12.352 202.291 12.232C202.363 11.992 202.483 11.812 202.651 11.692C202.771 11.572 202.891 11.476 203.011 11.404C203.131 11.332 203.263 11.284 203.407 11.26C203.527 11.236 203.659 11.224 203.803 11.224C203.947 11.2 204.091 11.188 204.235 11.188C204.595 11.188 204.943 11.296 205.279 11.512C205.423 11.608 205.555 11.716 205.675 11.836C205.795 11.932 205.891 12.076 205.963 12.268C206.155 12.724 206.251 13.156 206.251 13.564C206.275 13.684 206.287 13.864 206.287 14.104C206.311 14.32 206.323 14.548 206.323 14.788C206.323 15.028 206.323 15.268 206.323 15.508C206.347 15.724 206.359 15.892 206.359 16.012V16.192C206.383 16.96 206.395 17.74 206.395 18.532C206.395 19.324 206.395 20.128 206.395 20.944V21.556C207.403 21.22 208.459 21.064 209.562 21.088C210.667 21.088 211.651 21.304 212.515 21.736C213.403 22.192 214.075 22.708 214.531 23.284C215.011 23.86 215.359 24.496 215.575 25.192C215.791 25.888 215.911 26.632 215.935 27.424C215.983 28.216 216.019 29.044 216.043 29.908Z" fill="black"/>
</svg>
