<svg width="138" height="38" viewBox="0 0 138 38" fill="none" xmlns="http://www.w3.org/2000/svg">
<path d="M12.562 27.304C12.7527 27.7293 12.76 28.1473 12.584 28.558C12.408 28.954 12.1293 29.3207 11.748 29.658C11.3667 29.9953 10.9267 30.2887 10.428 30.538C9.944 30.7873 9.482 30.9633 9.042 31.066C8.558 31.1687 8.04467 31.2127 7.502 31.198C6.974 31.198 6.43867 31.132 5.896 31C5.368 30.8827 4.84733 30.7067 4.334 30.472C3.83533 30.2227 3.37333 29.922 2.948 29.57C2.43467 29.1447 2.03133 28.6387 1.738 28.052C1.45933 27.4507 1.254 26.8127 1.122 26.138C0.99 25.4633 0.916667 24.7887 0.902 24.114C0.902 23.4247 0.924 22.7793 0.968 22.178C1.012 21.6353 1.122 21.0707 1.298 20.484C1.474 19.8973 1.716 19.3253 2.024 18.768C2.34667 18.196 2.728 17.668 3.168 17.184C3.62267 16.7 4.15067 16.2893 4.752 15.952C5.20667 15.688 5.71267 15.512 6.27 15.424C6.842 15.3213 7.414 15.2993 7.986 15.358C8.57267 15.402 9.12267 15.5267 9.636 15.732C10.164 15.9227 10.6113 16.1867 10.978 16.524C11.2127 16.7293 11.4547 17.0153 11.704 17.382C11.968 17.7487 12.1587 18.1227 12.276 18.504C12.3933 18.8853 12.3933 19.2447 12.276 19.582C12.1733 19.9047 11.88 20.1247 11.396 20.242C11.1907 20.3007 11.0073 20.3153 10.846 20.286C10.6847 20.242 10.538 20.176 10.406 20.088C10.274 19.9853 10.1493 19.868 10.032 19.736C9.91467 19.604 9.80467 19.472 9.702 19.34C9.35 18.9147 8.93933 18.6287 8.47 18.482C8.00067 18.3207 7.53133 18.284 7.062 18.372C6.60733 18.4453 6.17467 18.636 5.764 18.944C5.368 19.2373 5.06 19.6187 4.84 20.088C4.60533 20.5867 4.41467 21.1367 4.268 21.738C4.136 22.3247 4.06267 22.926 4.048 23.542C4.03333 24.1433 4.08467 24.73 4.202 25.302C4.334 25.874 4.554 26.38 4.862 26.82C5.09667 27.172 5.38267 27.458 5.72 27.678C6.072 27.898 6.446 28.052 6.842 28.14C7.238 28.228 7.634 28.2427 8.03 28.184C8.44067 28.1253 8.83667 27.9933 9.218 27.788C9.33533 27.7293 9.46 27.6487 9.592 27.546C9.73867 27.4287 9.88533 27.3113 10.032 27.194C10.1787 27.0767 10.3253 26.9667 10.472 26.864C10.6333 26.7613 10.802 26.688 10.978 26.644C11.242 26.556 11.528 26.5633 11.836 26.666C12.1587 26.7687 12.4007 26.9813 12.562 27.304ZM14.5016 23.212C14.5016 23.036 14.5016 22.838 14.5016 22.618C14.5016 22.3833 14.5089 22.1487 14.5236 21.914C14.5383 21.6647 14.5603 21.43 14.5896 21.21C14.6336 20.9753 14.6923 20.77 14.7656 20.594C14.8829 20.33 15.0663 20.154 15.3156 20.066C15.5649 19.9633 15.8363 19.9193 16.1296 19.934C16.4376 19.934 16.6796 19.9853 16.8556 20.088C17.0316 20.1907 17.1636 20.33 17.2516 20.506C17.3396 20.6673 17.3909 20.858 17.4056 21.078C17.4349 21.2833 17.4496 21.5033 17.4496 21.738C17.5816 21.5033 17.7576 21.3127 17.9776 21.166C18.2123 21.0193 18.4469 20.902 18.6816 20.814C18.9163 20.726 19.1289 20.6673 19.3196 20.638C19.5103 20.594 19.6203 20.572 19.6496 20.572C20.0163 20.5427 20.3463 20.5353 20.6396 20.55C20.9476 20.5647 21.2849 20.6307 21.6516 20.748C21.8863 20.836 22.1283 20.9607 22.3776 21.122C22.6269 21.2687 22.8469 21.4447 23.0376 21.65C23.2283 21.8553 23.3529 22.0827 23.4116 22.332C23.4849 22.5667 23.4556 22.816 23.3236 23.08C23.1183 23.4467 22.8909 23.63 22.6416 23.63C22.3923 23.6153 22.1209 23.5713 21.8276 23.498C21.6663 23.4687 21.4756 23.4027 21.2556 23.3C21.0356 23.1973 20.8449 23.1313 20.6836 23.102C20.1849 23.0287 19.7449 23.0653 19.3636 23.212C18.9823 23.3587 18.6523 23.5347 18.3736 23.74C18.0509 23.9893 17.7723 24.2753 17.5376 24.598V27.766C17.5376 28.162 17.5303 28.5727 17.5156 28.998C17.5156 29.4233 17.4569 29.812 17.3396 30.164C17.2369 30.5013 17.0536 30.78 16.7896 31C16.5403 31.2053 16.1736 31.2933 15.6896 31.264C15.4256 31.2493 15.1909 31.1247 14.9856 30.89C14.7803 30.6407 14.6556 30.3987 14.6116 30.164C14.5823 29.944 14.5603 29.68 14.5456 29.372C14.5309 29.064 14.5163 28.7413 14.5016 28.404C14.5016 28.0667 14.5016 27.7293 14.5016 27.392C14.5016 27.04 14.5016 26.7173 14.5016 26.424V23.212ZM34.3745 21.188C34.5065 21.3933 34.5652 21.6133 34.5505 21.848C34.5505 22.1853 34.4918 22.4787 34.3745 22.728C34.3452 22.8013 34.3012 22.8967 34.2425 23.014C34.1985 23.1313 34.1472 23.256 34.0885 23.388C34.0445 23.52 33.9932 23.6447 33.9345 23.762C33.8758 23.8793 33.8318 23.9673 33.8025 24.026L33.7585 24.136C33.5532 24.5907 33.3552 25.0307 33.1645 25.456C32.9738 25.8813 32.7612 26.336 32.5265 26.82C32.2918 27.2893 32.0645 27.7513 31.8445 28.206C31.6392 28.646 31.4338 29.0787 31.2285 29.504C31.1698 29.6213 31.1185 29.7387 31.0745 29.856C31.0305 29.9587 30.9718 30.0687 30.8985 30.186L29.8425 32.452C29.6518 32.8333 29.4685 33.2073 29.2925 33.574C29.1312 33.9407 28.9478 34.3073 28.7425 34.674C28.6985 34.7473 28.6545 34.8133 28.6105 34.872C28.5812 34.9453 28.5518 35.0187 28.5225 35.092C28.4198 35.268 28.2658 35.4367 28.0605 35.598C27.8698 35.774 27.6645 35.8693 27.4445 35.884C27.0485 35.9133 26.7038 35.796 26.4105 35.532C26.2345 35.4293 26.0952 35.2827 25.9925 35.092C25.9338 34.96 25.9045 34.7913 25.9045 34.586C25.9192 34.498 25.9265 34.41 25.9265 34.322C25.9412 34.2487 25.9558 34.1753 25.9705 34.102C25.9998 34.0287 26.0218 33.9553 26.0365 33.882C26.0512 33.8087 26.0732 33.75 26.1025 33.706C26.1465 33.5887 26.1832 33.53 26.2125 33.53L27.8185 30.054C27.7452 29.8927 27.6718 29.7313 27.5985 29.57C27.5252 29.394 27.4592 29.24 27.4005 29.108C27.2098 28.6533 27.0045 28.1767 26.7845 27.678C26.5792 27.1647 26.3665 26.6587 26.1465 26.16C25.9265 25.6467 25.6992 25.148 25.4645 24.664C25.2298 24.18 24.9952 23.718 24.7605 23.278C24.6725 23.1313 24.5918 22.9773 24.5185 22.816C24.4452 22.64 24.3865 22.4713 24.3425 22.31C24.2985 22.134 24.2838 21.958 24.2985 21.782C24.3132 21.606 24.3792 21.43 24.4965 21.254C24.6138 21.034 24.7678 20.88 24.9585 20.792C25.1492 20.6893 25.3472 20.6453 25.5525 20.66C25.7725 20.66 25.9778 20.704 26.1685 20.792C26.3592 20.88 26.5132 20.9973 26.6305 21.144C26.8798 21.408 27.0778 21.7013 27.2245 22.024C27.3712 22.3467 27.5105 22.6767 27.6425 23.014C27.9212 23.6007 28.2072 24.2167 28.5005 24.862C28.7938 25.5073 29.0872 26.138 29.3805 26.754L30.5245 24.334C30.6418 24.0993 30.7445 23.872 30.8325 23.652C30.9352 23.432 31.0378 23.2193 31.1405 23.014C31.2578 22.7647 31.3678 22.508 31.4705 22.244C31.5878 21.98 31.7198 21.738 31.8665 21.518C31.8958 21.4593 31.9252 21.408 31.9545 21.364C31.9838 21.32 32.0132 21.2687 32.0425 21.21C32.1745 21.034 32.2918 20.8947 32.3945 20.792C32.4678 20.7333 32.5265 20.6893 32.5705 20.66C32.6292 20.616 32.6952 20.5867 32.7685 20.572C32.8712 20.5427 32.9665 20.528 33.0545 20.528C33.1572 20.5133 33.2525 20.5133 33.3405 20.528C33.4872 20.572 33.6632 20.638 33.8685 20.726C34.0885 20.814 34.2572 20.968 34.3745 21.188ZM42.4892 21.1C42.9146 21.276 43.3032 21.5327 43.6552 21.87C44.0072 22.1927 44.3079 22.5667 44.5572 22.992C44.8212 23.4173 45.0192 23.8793 45.1512 24.378C45.2979 24.862 45.3712 25.3533 45.3712 25.852C45.3859 26.6 45.2099 27.304 44.8432 27.964C44.4912 28.624 43.9119 29.13 43.1052 29.482C42.4892 29.7313 41.8512 29.922 41.1912 30.054C40.5459 30.1713 39.8712 30.252 39.1672 30.296V34.322C39.1672 34.41 39.1526 34.4907 39.1232 34.564C39.1086 34.6373 39.1012 34.7107 39.1012 34.784C39.0719 34.9307 39.0352 35.0627 38.9912 35.18C38.9619 35.2973 38.9179 35.422 38.8592 35.554C38.8006 35.642 38.7419 35.7227 38.6832 35.796C38.6246 35.8693 38.5586 35.9427 38.4852 36.016C38.1332 36.192 37.7666 36.2287 37.3852 36.126C37.1506 36.1113 36.9599 36.038 36.8132 35.906C36.6812 35.774 36.5859 35.6347 36.5272 35.488C36.4686 35.3413 36.4172 35.1727 36.3732 34.982C36.3586 34.9087 36.3439 34.8353 36.3292 34.762C36.3292 34.7033 36.3292 34.6373 36.3292 34.564V22.31C36.3292 22.222 36.3292 22.134 36.3292 22.046C36.3439 21.9433 36.3586 21.8407 36.3732 21.738C36.3879 21.562 36.4319 21.386 36.5052 21.21C36.6372 20.8433 36.9086 20.594 37.3192 20.462C37.7299 20.33 38.1919 20.2713 38.7052 20.286C39.0572 20.3007 39.4166 20.3373 39.7832 20.396C40.1646 20.4547 40.5239 20.528 40.8612 20.616C41.2132 20.6893 41.5286 20.77 41.8072 20.858C42.0859 20.946 42.3132 21.0267 42.4892 21.1ZM42.5332 25.852C42.5919 25.4413 42.5406 25.0967 42.3792 24.818C42.2326 24.5247 42.0199 24.29 41.7412 24.114C41.4626 23.9233 41.1399 23.7767 40.7732 23.674C40.4212 23.5713 40.0692 23.498 39.7172 23.454C39.6732 23.4393 39.5999 23.432 39.4972 23.432C39.4092 23.432 39.3066 23.432 39.1892 23.432C39.1892 23.9013 39.1892 24.356 39.1892 24.796C39.2039 25.2213 39.2039 25.6833 39.1892 26.182V27.656C39.5266 27.6413 39.8786 27.6047 40.2452 27.546C40.6266 27.4873 40.9786 27.392 41.3012 27.26C41.6239 27.128 41.8952 26.952 42.1152 26.732C42.3499 26.512 42.4892 26.2187 42.5332 25.852ZM55.606 21.298C55.7234 21.5767 55.7307 21.8847 55.628 22.222C55.54 22.5593 55.3714 22.7793 55.122 22.882C54.99 22.9407 54.814 22.992 54.594 23.036C54.374 23.0653 54.132 23.0947 53.868 23.124C53.6187 23.1533 53.3694 23.1753 53.12 23.19C52.8707 23.2047 52.658 23.212 52.482 23.212C52.4967 23.652 52.5114 24.1067 52.526 24.576C52.5407 25.0307 52.5554 25.478 52.57 25.918C52.5847 26.358 52.592 26.7833 52.592 27.194C52.592 27.59 52.5847 27.9493 52.57 28.272C52.57 28.492 52.57 28.7487 52.57 29.042C52.57 29.3207 52.548 29.592 52.504 29.856C52.4747 30.12 52.4234 30.3547 52.35 30.56C52.2767 30.7507 52.1667 30.8753 52.02 30.934C51.5654 31.1247 51.1474 31.176 50.766 31.088C50.3994 31.0147 50.1354 30.8607 49.974 30.626C49.8567 30.4353 49.7687 30.2153 49.71 29.966C49.6514 29.702 49.6074 29.438 49.578 29.174C49.5634 28.8953 49.556 28.6313 49.556 28.382C49.5707 28.118 49.578 27.8907 49.578 27.7C49.5927 27.084 49.6 26.3873 49.6 25.61C49.6147 24.818 49.622 24.026 49.622 23.234H49.292C49.116 23.234 48.8887 23.234 48.61 23.234C48.346 23.2193 48.0747 23.1973 47.796 23.168C47.532 23.124 47.2827 23.0727 47.048 23.014C46.8134 22.9407 46.6447 22.838 46.542 22.706C46.3807 22.5153 46.278 22.31 46.234 22.09C46.2047 21.87 46.2194 21.6647 46.278 21.474C46.3514 21.2687 46.4614 21.0927 46.608 20.946C46.7547 20.7847 46.9234 20.682 47.114 20.638C47.378 20.5647 47.752 20.528 48.236 20.528C48.72 20.5133 49.1747 20.5133 49.6 20.528C49.5854 20.3813 49.578 20.242 49.578 20.11C49.578 19.9633 49.5707 19.824 49.556 19.692C49.5414 19.516 49.534 19.296 49.534 19.032C49.534 18.7533 49.5487 18.482 49.578 18.218C49.622 17.9393 49.688 17.6827 49.776 17.448C49.864 17.1987 49.9887 17.008 50.15 16.876C50.37 16.7 50.59 16.6047 50.81 16.59C51.0447 16.5607 51.2574 16.59 51.448 16.678C51.6534 16.766 51.822 16.898 51.954 17.074C52.1007 17.2353 52.2034 17.4187 52.262 17.624C52.306 17.8 52.3427 18.0127 52.372 18.262C52.4014 18.4967 52.416 18.746 52.416 19.01C52.4307 19.274 52.438 19.538 52.438 19.802C52.438 20.066 52.438 20.308 52.438 20.528H52.658C52.878 20.528 53.1347 20.5207 53.428 20.506C53.7214 20.4913 54.0074 20.4987 54.286 20.528C54.5794 20.5573 54.8434 20.6307 55.078 20.748C55.3127 20.8507 55.4887 21.034 55.606 21.298ZM59.1262 21.056C59.6102 20.8213 60.1162 20.6527 60.6442 20.55C61.1722 20.4473 61.6929 20.4253 62.2062 20.484C62.7342 20.5427 63.2402 20.682 63.7242 20.902C64.2229 21.122 64.6775 21.43 65.0882 21.826C65.4255 22.1633 65.7189 22.574 65.9682 23.058C66.2175 23.5273 66.4009 23.9893 66.5182 24.444C66.7675 25.2507 66.8042 26.0647 66.6282 26.886C66.4522 27.7073 66.1515 28.47 65.7262 29.174C65.5209 29.4967 65.2642 29.79 64.9562 30.054C64.6629 30.3033 64.3475 30.5087 64.0102 30.67C63.5702 30.8753 63.0935 31.0147 62.5802 31.088C62.0669 31.176 61.5682 31.198 61.0842 31.154C60.2042 31.11 59.4269 30.89 58.7522 30.494C58.0922 30.098 57.5569 29.592 57.1462 28.976C56.7502 28.36 56.4862 27.6633 56.3542 26.886C56.2369 26.094 56.2882 25.2873 56.5082 24.466C56.7429 23.586 57.0802 22.8747 57.5202 22.332C57.9749 21.7747 58.5102 21.3493 59.1262 21.056ZM59.7862 24.004C59.5662 24.2093 59.3975 24.466 59.2802 24.774C59.1629 25.082 59.0895 25.4047 59.0602 25.742C59.0309 26.0647 59.0529 26.3947 59.1262 26.732C59.2142 27.0547 59.3462 27.348 59.5222 27.612C59.6689 27.832 59.9329 28.0153 60.3142 28.162C60.6955 28.3087 61.0915 28.3967 61.5022 28.426C61.9715 28.4553 62.3822 28.3307 62.7342 28.052C63.0862 27.7587 63.3502 27.3993 63.5262 26.974C63.7169 26.5487 63.8049 26.0867 63.7902 25.588C63.7755 25.0893 63.6435 24.6347 63.3942 24.224C63.2182 23.9307 62.9689 23.718 62.6462 23.586C62.3382 23.4393 62.0082 23.366 61.6562 23.366C61.3189 23.3513 60.9815 23.4027 60.6442 23.52C60.3069 23.6227 60.0209 23.784 59.7862 24.004Z" fill="black"/>
<path d="M107.024 16.106C107.185 16.2967 107.266 16.4947 107.266 16.7C107.266 16.788 107.259 16.8833 107.244 16.986C107.244 17.074 107.237 17.1547 107.222 17.228C107.178 17.3893 107.083 17.5433 106.936 17.69C106.819 17.778 106.657 17.844 106.452 17.888C106.349 17.9173 106.247 17.9393 106.144 17.954C106.041 17.9687 105.931 17.9907 105.814 18.02C105.711 18.0347 105.609 18.042 105.506 18.042C105.403 18.042 105.293 18.042 105.176 18.042H104.054C103.79 18.0567 103.526 18.064 103.262 18.064C103.013 18.064 102.763 18.064 102.514 18.064C102.529 18.5187 102.536 19.01 102.536 19.538C102.536 20.0513 102.529 20.6527 102.514 21.342C102.514 22.0313 102.507 22.8307 102.492 23.74C102.492 24.6493 102.492 25.7053 102.492 26.908V28.58C102.492 28.7267 102.499 28.8367 102.514 28.91C102.514 28.9687 102.514 29.0273 102.514 29.086C102.514 29.13 102.507 29.1887 102.492 29.262C102.463 29.394 102.441 29.548 102.426 29.724C102.426 29.7973 102.419 29.8707 102.404 29.944C102.389 30.0027 102.367 30.0687 102.338 30.142C102.279 30.2007 102.25 30.2447 102.25 30.274L102.184 30.406C102.111 30.5527 101.971 30.692 101.766 30.824C101.443 30.9853 101.084 31.022 100.688 30.934C100.439 30.9047 100.248 30.8387 100.116 30.736C99.984 30.604 99.8887 30.472 99.83 30.34C99.742 30.1787 99.6907 30.0247 99.676 29.878C99.632 29.746 99.61 29.6067 99.61 29.46V18.152C99.522 18.152 99.3387 18.152 99.06 18.152C98.7813 18.152 98.4807 18.152 98.158 18.152C97.85 18.1373 97.5567 18.1227 97.278 18.108C96.9993 18.0933 96.8087 18.0787 96.706 18.064C96.618 18.0493 96.4787 18.0273 96.288 17.998C96.112 17.9687 95.9653 17.9393 95.848 17.91C95.54 17.822 95.298 17.6827 95.122 17.492C94.9607 17.3013 94.88 17.0887 94.88 16.854C94.88 16.766 94.88 16.678 94.88 16.59C94.88 16.502 94.8947 16.4213 94.924 16.348C94.968 16.172 95.0853 16.0253 95.276 15.908C95.3347 15.864 95.4227 15.8127 95.54 15.754C95.672 15.6807 95.7967 15.6293 95.914 15.6C96.09 15.5413 96.31 15.4973 96.574 15.468C96.6913 15.4533 96.8087 15.446 96.926 15.446C97.0433 15.446 97.168 15.446 97.3 15.446C97.8133 15.446 98.2973 15.446 98.752 15.446C99.2213 15.446 99.7127 15.4387 100.226 15.424C101.077 15.4093 101.92 15.4093 102.756 15.424C103.607 15.424 104.45 15.4387 105.286 15.468C105.477 15.4827 105.66 15.5047 105.836 15.534C106.012 15.5633 106.188 15.6147 106.364 15.688C106.496 15.732 106.621 15.7907 106.738 15.864C106.855 15.9227 106.951 16.0033 107.024 16.106ZM114.523 27.986C114.699 27.942 114.875 27.9127 115.051 27.898C115.242 27.8833 115.411 27.9053 115.557 27.964C115.719 28.0227 115.851 28.1253 115.953 28.272C116.056 28.404 116.107 28.5947 116.107 28.844C116.107 29.02 116.063 29.1887 115.975 29.35C115.887 29.5113 115.777 29.658 115.645 29.79C115.513 29.922 115.367 30.0393 115.205 30.142C115.044 30.23 114.89 30.3033 114.743 30.362C114.318 30.5527 113.827 30.6993 113.269 30.802C112.727 30.9047 112.162 30.9413 111.575 30.912C110.783 30.8827 110.021 30.7287 109.287 30.45C108.569 30.1567 108.004 29.68 107.593 29.02C107.212 28.3747 106.985 27.656 106.911 26.864C106.838 26.072 106.875 25.324 107.021 24.62C107.183 23.7693 107.454 23.08 107.835 22.552C108.231 22.0093 108.701 21.5767 109.243 21.254C109.903 20.8727 110.644 20.6747 111.465 20.66C112.287 20.6453 113.071 20.8067 113.819 21.144C114.318 21.364 114.765 21.6647 115.161 22.046C115.557 22.4127 115.858 22.86 116.063 23.388C116.122 23.52 116.166 23.6813 116.195 23.872C116.239 24.0627 116.269 24.268 116.283 24.488C116.298 24.6933 116.298 24.8987 116.283 25.104C116.269 25.3093 116.232 25.4927 116.173 25.654C116.085 25.918 115.975 26.1233 115.843 26.27C115.711 26.4167 115.543 26.5267 115.337 26.6C115.132 26.6733 114.883 26.7247 114.589 26.754C114.311 26.7687 113.973 26.7833 113.577 26.798C113.225 26.8127 112.895 26.82 112.587 26.82C112.279 26.82 111.964 26.82 111.641 26.82C111.319 26.8053 110.981 26.798 110.629 26.798C110.292 26.7833 109.911 26.7687 109.485 26.754C109.441 27.0473 109.478 27.304 109.595 27.524C109.727 27.7293 109.903 27.9053 110.123 28.052C110.343 28.184 110.593 28.2867 110.871 28.36C111.15 28.4333 111.421 28.4773 111.685 28.492C112.184 28.5213 112.661 28.4847 113.115 28.382C113.57 28.2647 114.039 28.1327 114.523 27.986ZM113.577 23.718C113.299 23.3953 113.005 23.1607 112.697 23.014C112.463 22.9113 112.213 22.8673 111.949 22.882C111.7 22.882 111.458 22.9187 111.223 22.992C110.798 23.0947 110.439 23.3147 110.145 23.652C110.116 23.6813 110.065 23.7547 109.991 23.872C109.918 23.9747 109.845 24.0847 109.771 24.202C109.713 24.3193 109.669 24.4293 109.639 24.532C109.61 24.6347 109.625 24.686 109.683 24.686H113.995C113.981 24.4807 113.944 24.312 113.885 24.18C113.827 24.0333 113.724 23.8793 113.577 23.718ZM126.246 22.53C126.363 22.7353 126.422 22.9553 126.422 23.19C126.436 23.4247 126.385 23.6447 126.268 23.85C126.136 24.114 125.945 24.2973 125.696 24.4C125.461 24.488 125.197 24.4953 124.904 24.422C124.772 24.3927 124.654 24.3413 124.552 24.268C124.449 24.1947 124.339 24.1213 124.222 24.048C124.119 23.96 123.994 23.8793 123.848 23.806C123.716 23.7327 123.54 23.6813 123.32 23.652C123.1 23.6227 122.858 23.6227 122.594 23.652C122.344 23.6813 122.117 23.74 121.912 23.828C121.589 23.9893 121.332 24.2387 121.142 24.576C120.951 24.8987 120.826 25.2507 120.768 25.632C120.709 25.9987 120.716 26.3727 120.79 26.754C120.878 27.1353 121.039 27.458 121.274 27.722C121.45 27.9273 121.677 28.096 121.956 28.228C122.249 28.36 122.528 28.4407 122.792 28.47C123.041 28.4993 123.29 28.4993 123.54 28.47C123.789 28.426 124.031 28.3673 124.266 28.294C124.442 28.2207 124.64 28.1253 124.86 28.008C125.08 27.876 125.292 27.7953 125.498 27.766C125.762 27.766 125.967 27.8393 126.114 27.986C126.26 28.118 126.363 28.2867 126.422 28.492C126.48 28.6827 126.488 28.888 126.444 29.108C126.414 29.328 126.334 29.5187 126.202 29.68C126.026 29.9 125.776 30.1127 125.454 30.318C125.131 30.5087 124.823 30.648 124.53 30.736C124.178 30.8533 123.782 30.9193 123.342 30.934C122.916 30.9487 122.513 30.934 122.132 30.89C121.956 30.8607 121.772 30.824 121.582 30.78C121.391 30.736 121.208 30.6847 121.032 30.626C120.386 30.3913 119.844 30.0613 119.404 29.636C118.978 29.196 118.648 28.7047 118.414 28.162C118.194 27.6193 118.069 27.04 118.04 26.424C118.01 25.808 118.084 25.1993 118.26 24.598C118.421 24.026 118.619 23.542 118.854 23.146C119.103 22.75 119.389 22.4273 119.712 22.178C120.049 21.914 120.423 21.7087 120.834 21.562C121.244 21.4007 121.699 21.2613 122.198 21.144C122.711 21.0413 123.254 21.0413 123.826 21.144C124.398 21.2467 124.911 21.4373 125.366 21.716C125.718 21.9067 126.011 22.178 126.246 22.53ZM136.804 26.666C136.818 26.9593 136.826 27.2673 136.826 27.59C136.826 27.898 136.818 28.184 136.804 28.448C136.789 28.844 136.767 29.2107 136.738 29.548C136.708 29.8707 136.65 30.1493 136.562 30.384C136.474 30.604 136.334 30.7727 136.144 30.89C135.968 30.9927 135.718 31.022 135.396 30.978C135.058 30.934 134.816 30.7727 134.67 30.494C134.523 30.2153 134.42 29.9 134.362 29.548C134.318 29.1813 134.303 28.8147 134.318 28.448C134.332 28.0813 134.332 27.7953 134.318 27.59C134.303 27.2673 134.288 26.9007 134.274 26.49C134.274 26.0647 134.23 25.6687 134.142 25.302C134.068 24.9207 133.936 24.598 133.746 24.334C133.555 24.07 133.269 23.9307 132.888 23.916C132.404 23.8867 132.03 23.9233 131.766 24.026C131.516 24.1287 131.333 24.2827 131.216 24.488C131.098 24.6787 131.025 24.9133 130.996 25.192C130.981 25.4707 130.952 25.7713 130.908 26.094L130.886 26.952V28.558C130.886 28.822 130.878 29.1007 130.864 29.394C130.864 29.6727 130.82 29.9293 130.732 30.164C130.644 30.3987 130.504 30.5967 130.314 30.758C130.138 30.9193 129.874 31 129.522 31C129.082 31 128.752 30.8607 128.532 30.582C128.326 30.2887 128.224 29.9293 128.224 29.504V16.854C128.224 16.766 128.224 16.6853 128.224 16.612C128.238 16.524 128.253 16.436 128.268 16.348C128.297 16.26 128.319 16.1793 128.334 16.106C128.348 16.018 128.37 15.9373 128.4 15.864C128.444 15.7173 128.517 15.6073 128.62 15.534C128.693 15.4607 128.766 15.402 128.84 15.358C128.913 15.314 128.994 15.2847 129.082 15.27C129.155 15.2553 129.236 15.248 129.324 15.248C129.412 15.2333 129.5 15.226 129.588 15.226C129.808 15.226 130.02 15.292 130.226 15.424C130.314 15.4827 130.394 15.5487 130.468 15.622C130.541 15.6807 130.6 15.7687 130.644 15.886C130.761 16.1647 130.82 16.4287 130.82 16.678C130.834 16.7513 130.842 16.8613 130.842 17.008C130.856 17.14 130.864 17.2793 130.864 17.426C130.864 17.5727 130.864 17.7193 130.864 17.866C130.878 17.998 130.886 18.1007 130.886 18.174V18.284C130.9 18.7533 130.908 19.23 130.908 19.714C130.908 20.198 130.908 20.6893 130.908 21.188V21.562C131.524 21.3567 132.169 21.2613 132.844 21.276C133.518 21.276 134.12 21.408 134.648 21.672C135.19 21.9507 135.601 22.266 135.88 22.618C136.173 22.97 136.386 23.3587 136.518 23.784C136.65 24.2093 136.723 24.664 136.738 25.148C136.767 25.632 136.789 26.138 136.804 26.666Z" fill="black"/>
<path d="M80.5 0L79.8587 0.39375L68.0463 6.825L67 7.39375V8.75C67 16.0125 69.2613 22.4 71.9613 27.0813C73.3113 29.4 74.7625 31.325 76.18 32.6812C77.5975 34.0375 78.9813 35 80.5 35C82.0525 35 83.4025 34.0375 84.82 32.6812C86.2375 31.325 87.6888 29.4 89.0388 27.0813C91.7388 22.4 94 16.0125 94 8.75V7.39375L92.9538 6.825L81.1413 0.39375L80.5 0ZM80.5 4.76875V30.625C80.365 30.625 79.3862 30.3188 78.2725 29.2688C77.1587 28.2188 75.8762 26.5125 74.695 24.5C72.535 20.7812 70.8475 15.6187 70.5775 10.15L80.5 4.8125V4.76875Z" fill="#07A658"/>
</svg>
