<svg width="139" height="32" viewBox="0 0 139 32" fill="none" xmlns="http://www.w3.org/2000/svg">
<path d="M81 0L80.335 0.34875L68.085 6.045L67 6.54875V7.75C67 14.1825 69.345 19.84 72.145 23.9863C73.545 26.04 75.05 27.745 76.52 28.9462C77.99 30.1475 79.425 31 81 31C82.61 31 84.01 30.1475 85.48 28.9462C86.95 27.745 88.455 26.04 89.855 23.9863C92.655 19.84 95 14.1825 95 7.75V6.54875L93.915 6.045L81.665 0.34875L81 0ZM81 4.22375V27.125C80.86 27.125 79.845 26.8538 78.69 25.9238C77.535 24.9938 76.205 23.4825 74.98 21.7C72.74 18.4062 70.99 13.8337 70.71 8.99L81 4.2625V4.22375Z" fill="#07A658"/>
<path d="M12.562 21.304C12.7527 21.7293 12.76 22.1473 12.584 22.558C12.408 22.954 12.1293 23.3207 11.748 23.658C11.3667 23.9953 10.9267 24.2887 10.428 24.538C9.944 24.7873 9.482 24.9633 9.042 25.066C8.558 25.1687 8.04467 25.2127 7.502 25.198C6.974 25.198 6.43867 25.132 5.896 25C5.368 24.8827 4.84733 24.7067 4.334 24.472C3.83533 24.2227 3.37333 23.922 2.948 23.57C2.43467 23.1447 2.03133 22.6387 1.738 22.052C1.45933 21.4507 1.254 20.8127 1.122 20.138C0.99 19.4633 0.916667 18.7887 0.902 18.114C0.902 17.4247 0.924 16.7793 0.968 16.178C1.012 15.6353 1.122 15.0707 1.298 14.484C1.474 13.8973 1.716 13.3253 2.024 12.768C2.34667 12.196 2.728 11.668 3.168 11.184C3.62267 10.7 4.15067 10.2893 4.752 9.952C5.20667 9.688 5.71267 9.512 6.27 9.424C6.842 9.32133 7.414 9.29933 7.986 9.358C8.57267 9.402 9.12267 9.52667 9.636 9.732C10.164 9.92267 10.6113 10.1867 10.978 10.524C11.2127 10.7293 11.4547 11.0153 11.704 11.382C11.968 11.7487 12.1587 12.1227 12.276 12.504C12.3933 12.8853 12.3933 13.2447 12.276 13.582C12.1733 13.9047 11.88 14.1247 11.396 14.242C11.1907 14.3007 11.0073 14.3153 10.846 14.286C10.6847 14.242 10.538 14.176 10.406 14.088C10.274 13.9853 10.1493 13.868 10.032 13.736C9.91467 13.604 9.80467 13.472 9.702 13.34C9.35 12.9147 8.93933 12.6287 8.47 12.482C8.00067 12.3207 7.53133 12.284 7.062 12.372C6.60733 12.4453 6.17467 12.636 5.764 12.944C5.368 13.2373 5.06 13.6187 4.84 14.088C4.60533 14.5867 4.41467 15.1367 4.268 15.738C4.136 16.3247 4.06267 16.926 4.048 17.542C4.03333 18.1433 4.08467 18.73 4.202 19.302C4.334 19.874 4.554 20.38 4.862 20.82C5.09667 21.172 5.38267 21.458 5.72 21.678C6.072 21.898 6.446 22.052 6.842 22.14C7.238 22.228 7.634 22.2427 8.03 22.184C8.44067 22.1253 8.83667 21.9933 9.218 21.788C9.33533 21.7293 9.46 21.6487 9.592 21.546C9.73867 21.4287 9.88533 21.3113 10.032 21.194C10.1787 21.0767 10.3253 20.9667 10.472 20.864C10.6333 20.7613 10.802 20.688 10.978 20.644C11.242 20.556 11.528 20.5633 11.836 20.666C12.1587 20.7687 12.4007 20.9813 12.562 21.304ZM14.5016 17.212C14.5016 17.036 14.5016 16.838 14.5016 16.618C14.5016 16.3833 14.5089 16.1487 14.5236 15.914C14.5383 15.6647 14.5603 15.43 14.5896 15.21C14.6336 14.9753 14.6923 14.77 14.7656 14.594C14.8829 14.33 15.0663 14.154 15.3156 14.066C15.5649 13.9633 15.8363 13.9193 16.1296 13.934C16.4376 13.934 16.6796 13.9853 16.8556 14.088C17.0316 14.1907 17.1636 14.33 17.2516 14.506C17.3396 14.6673 17.3909 14.858 17.4056 15.078C17.4349 15.2833 17.4496 15.5033 17.4496 15.738C17.5816 15.5033 17.7576 15.3127 17.9776 15.166C18.2123 15.0193 18.4469 14.902 18.6816 14.814C18.9163 14.726 19.1289 14.6673 19.3196 14.638C19.5103 14.594 19.6203 14.572 19.6496 14.572C20.0163 14.5427 20.3463 14.5353 20.6396 14.55C20.9476 14.5647 21.2849 14.6307 21.6516 14.748C21.8863 14.836 22.1283 14.9607 22.3776 15.122C22.6269 15.2687 22.8469 15.4447 23.0376 15.65C23.2283 15.8553 23.3529 16.0827 23.4116 16.332C23.4849 16.5667 23.4556 16.816 23.3236 17.08C23.1183 17.4467 22.8909 17.63 22.6416 17.63C22.3923 17.6153 22.1209 17.5713 21.8276 17.498C21.6663 17.4687 21.4756 17.4027 21.2556 17.3C21.0356 17.1973 20.8449 17.1313 20.6836 17.102C20.1849 17.0287 19.7449 17.0653 19.3636 17.212C18.9823 17.3587 18.6523 17.5347 18.3736 17.74C18.0509 17.9893 17.7723 18.2753 17.5376 18.598V21.766C17.5376 22.162 17.5303 22.5727 17.5156 22.998C17.5156 23.4233 17.4569 23.812 17.3396 24.164C17.2369 24.5013 17.0536 24.78 16.7896 25C16.5403 25.2053 16.1736 25.2933 15.6896 25.264C15.4256 25.2493 15.1909 25.1247 14.9856 24.89C14.7803 24.6407 14.6556 24.3987 14.6116 24.164C14.5823 23.944 14.5603 23.68 14.5456 23.372C14.5309 23.064 14.5163 22.7413 14.5016 22.404C14.5016 22.0667 14.5016 21.7293 14.5016 21.392C14.5016 21.04 14.5016 20.7173 14.5016 20.424V17.212ZM34.3745 15.188C34.5065 15.3933 34.5652 15.6133 34.5505 15.848C34.5505 16.1853 34.4918 16.4787 34.3745 16.728C34.3452 16.8013 34.3012 16.8967 34.2425 17.014C34.1985 17.1313 34.1472 17.256 34.0885 17.388C34.0445 17.52 33.9932 17.6447 33.9345 17.762C33.8758 17.8793 33.8318 17.9673 33.8025 18.026L33.7585 18.136C33.5532 18.5907 33.3552 19.0307 33.1645 19.456C32.9738 19.8813 32.7612 20.336 32.5265 20.82C32.2918 21.2893 32.0645 21.7513 31.8445 22.206C31.6392 22.646 31.4338 23.0787 31.2285 23.504C31.1698 23.6213 31.1185 23.7387 31.0745 23.856C31.0305 23.9587 30.9718 24.0687 30.8985 24.186L29.8425 26.452C29.6518 26.8333 29.4685 27.2073 29.2925 27.574C29.1312 27.9407 28.9478 28.3073 28.7425 28.674C28.6985 28.7473 28.6545 28.8133 28.6105 28.872C28.5812 28.9453 28.5518 29.0187 28.5225 29.092C28.4198 29.268 28.2658 29.4367 28.0605 29.598C27.8698 29.774 27.6645 29.8693 27.4445 29.884C27.0485 29.9133 26.7038 29.796 26.4105 29.532C26.2345 29.4293 26.0952 29.2827 25.9925 29.092C25.9338 28.96 25.9045 28.7913 25.9045 28.586C25.9192 28.498 25.9265 28.41 25.9265 28.322C25.9412 28.2487 25.9558 28.1753 25.9705 28.102C25.9998 28.0287 26.0218 27.9553 26.0365 27.882C26.0512 27.8087 26.0732 27.75 26.1025 27.706C26.1465 27.5887 26.1832 27.53 26.2125 27.53L27.8185 24.054C27.7452 23.8927 27.6718 23.7313 27.5985 23.57C27.5252 23.394 27.4592 23.24 27.4005 23.108C27.2098 22.6533 27.0045 22.1767 26.7845 21.678C26.5792 21.1647 26.3665 20.6587 26.1465 20.16C25.9265 19.6467 25.6992 19.148 25.4645 18.664C25.2298 18.18 24.9952 17.718 24.7605 17.278C24.6725 17.1313 24.5918 16.9773 24.5185 16.816C24.4452 16.64 24.3865 16.4713 24.3425 16.31C24.2985 16.134 24.2838 15.958 24.2985 15.782C24.3132 15.606 24.3792 15.43 24.4965 15.254C24.6138 15.034 24.7678 14.88 24.9585 14.792C25.1492 14.6893 25.3472 14.6453 25.5525 14.66C25.7725 14.66 25.9778 14.704 26.1685 14.792C26.3592 14.88 26.5132 14.9973 26.6305 15.144C26.8798 15.408 27.0778 15.7013 27.2245 16.024C27.3712 16.3467 27.5105 16.6767 27.6425 17.014C27.9212 17.6007 28.2072 18.2167 28.5005 18.862C28.7938 19.5073 29.0872 20.138 29.3805 20.754L30.5245 18.334C30.6418 18.0993 30.7445 17.872 30.8325 17.652C30.9352 17.432 31.0378 17.2193 31.1405 17.014C31.2578 16.7647 31.3678 16.508 31.4705 16.244C31.5878 15.98 31.7198 15.738 31.8665 15.518C31.8958 15.4593 31.9252 15.408 31.9545 15.364C31.9838 15.32 32.0132 15.2687 32.0425 15.21C32.1745 15.034 32.2918 14.8947 32.3945 14.792C32.4678 14.7333 32.5265 14.6893 32.5705 14.66C32.6292 14.616 32.6952 14.5867 32.7685 14.572C32.8712 14.5427 32.9665 14.528 33.0545 14.528C33.1572 14.5133 33.2525 14.5133 33.3405 14.528C33.4872 14.572 33.6632 14.638 33.8685 14.726C34.0885 14.814 34.2572 14.968 34.3745 15.188ZM42.4892 15.1C42.9146 15.276 43.3032 15.5327 43.6552 15.87C44.0072 16.1927 44.3079 16.5667 44.5572 16.992C44.8212 17.4173 45.0192 17.8793 45.1512 18.378C45.2979 18.862 45.3712 19.3533 45.3712 19.852C45.3859 20.6 45.2099 21.304 44.8432 21.964C44.4912 22.624 43.9119 23.13 43.1052 23.482C42.4892 23.7313 41.8512 23.922 41.1912 24.054C40.5459 24.1713 39.8712 24.252 39.1672 24.296V28.322C39.1672 28.41 39.1526 28.4907 39.1232 28.564C39.1086 28.6373 39.1012 28.7107 39.1012 28.784C39.0719 28.9307 39.0352 29.0627 38.9912 29.18C38.9619 29.2973 38.9179 29.422 38.8592 29.554C38.8006 29.642 38.7419 29.7227 38.6832 29.796C38.6246 29.8693 38.5586 29.9427 38.4852 30.016C38.1332 30.192 37.7666 30.2287 37.3852 30.126C37.1506 30.1113 36.9599 30.038 36.8132 29.906C36.6812 29.774 36.5859 29.6347 36.5272 29.488C36.4686 29.3413 36.4172 29.1727 36.3732 28.982C36.3586 28.9087 36.3439 28.8353 36.3292 28.762C36.3292 28.7033 36.3292 28.6373 36.3292 28.564V16.31C36.3292 16.222 36.3292 16.134 36.3292 16.046C36.3439 15.9433 36.3586 15.8407 36.3732 15.738C36.3879 15.562 36.4319 15.386 36.5052 15.21C36.6372 14.8433 36.9086 14.594 37.3192 14.462C37.7299 14.33 38.1919 14.2713 38.7052 14.286C39.0572 14.3007 39.4166 14.3373 39.7832 14.396C40.1646 14.4547 40.5239 14.528 40.8612 14.616C41.2132 14.6893 41.5286 14.77 41.8072 14.858C42.0859 14.946 42.3132 15.0267 42.4892 15.1ZM42.5332 19.852C42.5919 19.4413 42.5406 19.0967 42.3792 18.818C42.2326 18.5247 42.0199 18.29 41.7412 18.114C41.4626 17.9233 41.1399 17.7767 40.7732 17.674C40.4212 17.5713 40.0692 17.498 39.7172 17.454C39.6732 17.4393 39.5999 17.432 39.4972 17.432C39.4092 17.432 39.3066 17.432 39.1892 17.432C39.1892 17.9013 39.1892 18.356 39.1892 18.796C39.2039 19.2213 39.2039 19.6833 39.1892 20.182V21.656C39.5266 21.6413 39.8786 21.6047 40.2452 21.546C40.6266 21.4873 40.9786 21.392 41.3012 21.26C41.6239 21.128 41.8952 20.952 42.1152 20.732C42.3499 20.512 42.4892 20.2187 42.5332 19.852ZM55.606 15.298C55.7234 15.5767 55.7307 15.8847 55.628 16.222C55.54 16.5593 55.3714 16.7793 55.122 16.882C54.99 16.9407 54.814 16.992 54.594 17.036C54.374 17.0653 54.132 17.0947 53.868 17.124C53.6187 17.1533 53.3694 17.1753 53.12 17.19C52.8707 17.2047 52.658 17.212 52.482 17.212C52.4967 17.652 52.5114 18.1067 52.526 18.576C52.5407 19.0307 52.5554 19.478 52.57 19.918C52.5847 20.358 52.592 20.7833 52.592 21.194C52.592 21.59 52.5847 21.9493 52.57 22.272C52.57 22.492 52.57 22.7487 52.57 23.042C52.57 23.3207 52.548 23.592 52.504 23.856C52.4747 24.12 52.4234 24.3547 52.35 24.56C52.2767 24.7507 52.1667 24.8753 52.02 24.934C51.5654 25.1247 51.1474 25.176 50.766 25.088C50.3994 25.0147 50.1354 24.8607 49.974 24.626C49.8567 24.4353 49.7687 24.2153 49.71 23.966C49.6514 23.702 49.6074 23.438 49.578 23.174C49.5634 22.8953 49.556 22.6313 49.556 22.382C49.5707 22.118 49.578 21.8907 49.578 21.7C49.5927 21.084 49.6 20.3873 49.6 19.61C49.6147 18.818 49.622 18.026 49.622 17.234H49.292C49.116 17.234 48.8887 17.234 48.61 17.234C48.346 17.2193 48.0747 17.1973 47.796 17.168C47.532 17.124 47.2827 17.0727 47.048 17.014C46.8134 16.9407 46.6447 16.838 46.542 16.706C46.3807 16.5153 46.278 16.31 46.234 16.09C46.2047 15.87 46.2194 15.6647 46.278 15.474C46.3514 15.2687 46.4614 15.0927 46.608 14.946C46.7547 14.7847 46.9234 14.682 47.114 14.638C47.378 14.5647 47.752 14.528 48.236 14.528C48.72 14.5133 49.1747 14.5133 49.6 14.528C49.5854 14.3813 49.578 14.242 49.578 14.11C49.578 13.9633 49.5707 13.824 49.556 13.692C49.5414 13.516 49.534 13.296 49.534 13.032C49.534 12.7533 49.5487 12.482 49.578 12.218C49.622 11.9393 49.688 11.6827 49.776 11.448C49.864 11.1987 49.9887 11.008 50.15 10.876C50.37 10.7 50.59 10.6047 50.81 10.59C51.0447 10.5607 51.2574 10.59 51.448 10.678C51.6534 10.766 51.822 10.898 51.954 11.074C52.1007 11.2353 52.2034 11.4187 52.262 11.624C52.306 11.8 52.3427 12.0127 52.372 12.262C52.4014 12.4967 52.416 12.746 52.416 13.01C52.4307 13.274 52.438 13.538 52.438 13.802C52.438 14.066 52.438 14.308 52.438 14.528H52.658C52.878 14.528 53.1347 14.5207 53.428 14.506C53.7214 14.4913 54.0074 14.4987 54.286 14.528C54.5794 14.5573 54.8434 14.6307 55.078 14.748C55.3127 14.8507 55.4887 15.034 55.606 15.298ZM59.1262 15.056C59.6102 14.8213 60.1162 14.6527 60.6442 14.55C61.1722 14.4473 61.6929 14.4253 62.2062 14.484C62.7342 14.5427 63.2402 14.682 63.7242 14.902C64.2229 15.122 64.6775 15.43 65.0882 15.826C65.4255 16.1633 65.7189 16.574 65.9682 17.058C66.2175 17.5273 66.4009 17.9893 66.5182 18.444C66.7675 19.2507 66.8042 20.0647 66.6282 20.886C66.4522 21.7073 66.1515 22.47 65.7262 23.174C65.5209 23.4967 65.2642 23.79 64.9562 24.054C64.6629 24.3033 64.3475 24.5087 64.0102 24.67C63.5702 24.8753 63.0935 25.0147 62.5802 25.088C62.0669 25.176 61.5682 25.198 61.0842 25.154C60.2042 25.11 59.4269 24.89 58.7522 24.494C58.0922 24.098 57.5569 23.592 57.1462 22.976C56.7502 22.36 56.4862 21.6633 56.3542 20.886C56.2369 20.094 56.2882 19.2873 56.5082 18.466C56.7429 17.586 57.0802 16.8747 57.5202 16.332C57.9749 15.7747 58.5102 15.3493 59.1262 15.056ZM59.7862 18.004C59.5662 18.2093 59.3975 18.466 59.2802 18.774C59.1629 19.082 59.0895 19.4047 59.0602 19.742C59.0309 20.0647 59.0529 20.3947 59.1262 20.732C59.2142 21.0547 59.3462 21.348 59.5222 21.612C59.6689 21.832 59.9329 22.0153 60.3142 22.162C60.6955 22.3087 61.0915 22.3967 61.5022 22.426C61.9715 22.4553 62.3822 22.3307 62.7342 22.052C63.0862 21.7587 63.3502 21.3993 63.5262 20.974C63.7169 20.5487 63.8049 20.0867 63.7902 19.588C63.7755 19.0893 63.6435 18.6347 63.3942 18.224C63.2182 17.9307 62.9689 17.718 62.6462 17.586C62.3382 17.4393 62.0082 17.366 61.6562 17.366C61.3189 17.3513 60.9815 17.4027 60.6442 17.52C60.3069 17.6227 60.0209 17.784 59.7862 18.004Z" fill="black"/>
<path d="M108.024 10.106C108.185 10.2967 108.266 10.4947 108.266 10.7C108.266 10.788 108.259 10.8833 108.244 10.986C108.244 11.074 108.237 11.1547 108.222 11.228C108.178 11.3893 108.083 11.5433 107.936 11.69C107.819 11.778 107.657 11.844 107.452 11.888C107.349 11.9173 107.247 11.9393 107.144 11.954C107.041 11.9687 106.931 11.9907 106.814 12.02C106.711 12.0347 106.609 12.042 106.506 12.042C106.403 12.042 106.293 12.042 106.176 12.042H105.054C104.79 12.0567 104.526 12.064 104.262 12.064C104.013 12.064 103.763 12.064 103.514 12.064C103.529 12.5187 103.536 13.01 103.536 13.538C103.536 14.0513 103.529 14.6527 103.514 15.342C103.514 16.0313 103.507 16.8307 103.492 17.74C103.492 18.6493 103.492 19.7053 103.492 20.908V22.58C103.492 22.7267 103.499 22.8367 103.514 22.91C103.514 22.9687 103.514 23.0273 103.514 23.086C103.514 23.13 103.507 23.1887 103.492 23.262C103.463 23.394 103.441 23.548 103.426 23.724C103.426 23.7973 103.419 23.8707 103.404 23.944C103.389 24.0027 103.367 24.0687 103.338 24.142C103.279 24.2007 103.25 24.2447 103.25 24.274L103.184 24.406C103.111 24.5527 102.971 24.692 102.766 24.824C102.443 24.9853 102.084 25.022 101.688 24.934C101.439 24.9047 101.248 24.8387 101.116 24.736C100.984 24.604 100.889 24.472 100.83 24.34C100.742 24.1787 100.691 24.0247 100.676 23.878C100.632 23.746 100.61 23.6067 100.61 23.46V12.152C100.522 12.152 100.339 12.152 100.06 12.152C99.7813 12.152 99.4807 12.152 99.158 12.152C98.85 12.1373 98.5567 12.1227 98.278 12.108C97.9993 12.0933 97.8087 12.0787 97.706 12.064C97.618 12.0493 97.4787 12.0273 97.288 11.998C97.112 11.9687 96.9653 11.9393 96.848 11.91C96.54 11.822 96.298 11.6827 96.122 11.492C95.9607 11.3013 95.88 11.0887 95.88 10.854C95.88 10.766 95.88 10.678 95.88 10.59C95.88 10.502 95.8947 10.4213 95.924 10.348C95.968 10.172 96.0853 10.0253 96.276 9.908C96.3347 9.864 96.4227 9.81267 96.54 9.754C96.672 9.68067 96.7967 9.62933 96.914 9.6C97.09 9.54133 97.31 9.49733 97.574 9.468C97.6913 9.45333 97.8087 9.446 97.926 9.446C98.0433 9.446 98.168 9.446 98.3 9.446C98.8133 9.446 99.2973 9.446 99.752 9.446C100.221 9.446 100.713 9.43867 101.226 9.424C102.077 9.40933 102.92 9.40933 103.756 9.424C104.607 9.424 105.45 9.43867 106.286 9.468C106.477 9.48267 106.66 9.50467 106.836 9.534C107.012 9.56333 107.188 9.61467 107.364 9.688C107.496 9.732 107.621 9.79067 107.738 9.864C107.855 9.92267 107.951 10.0033 108.024 10.106ZM115.523 21.986C115.699 21.942 115.875 21.9127 116.051 21.898C116.242 21.8833 116.411 21.9053 116.557 21.964C116.719 22.0227 116.851 22.1253 116.953 22.272C117.056 22.404 117.107 22.5947 117.107 22.844C117.107 23.02 117.063 23.1887 116.975 23.35C116.887 23.5113 116.777 23.658 116.645 23.79C116.513 23.922 116.367 24.0393 116.205 24.142C116.044 24.23 115.89 24.3033 115.743 24.362C115.318 24.5527 114.827 24.6993 114.269 24.802C113.727 24.9047 113.162 24.9413 112.575 24.912C111.783 24.8827 111.021 24.7287 110.287 24.45C109.569 24.1567 109.004 23.68 108.593 23.02C108.212 22.3747 107.985 21.656 107.911 20.864C107.838 20.072 107.875 19.324 108.021 18.62C108.183 17.7693 108.454 17.08 108.835 16.552C109.231 16.0093 109.701 15.5767 110.243 15.254C110.903 14.8727 111.644 14.6747 112.465 14.66C113.287 14.6453 114.071 14.8067 114.819 15.144C115.318 15.364 115.765 15.6647 116.161 16.046C116.557 16.4127 116.858 16.86 117.063 17.388C117.122 17.52 117.166 17.6813 117.195 17.872C117.239 18.0627 117.269 18.268 117.283 18.488C117.298 18.6933 117.298 18.8987 117.283 19.104C117.269 19.3093 117.232 19.4927 117.173 19.654C117.085 19.918 116.975 20.1233 116.843 20.27C116.711 20.4167 116.543 20.5267 116.337 20.6C116.132 20.6733 115.883 20.7247 115.589 20.754C115.311 20.7687 114.973 20.7833 114.577 20.798C114.225 20.8127 113.895 20.82 113.587 20.82C113.279 20.82 112.964 20.82 112.641 20.82C112.319 20.8053 111.981 20.798 111.629 20.798C111.292 20.7833 110.911 20.7687 110.485 20.754C110.441 21.0473 110.478 21.304 110.595 21.524C110.727 21.7293 110.903 21.9053 111.123 22.052C111.343 22.184 111.593 22.2867 111.871 22.36C112.15 22.4333 112.421 22.4773 112.685 22.492C113.184 22.5213 113.661 22.4847 114.115 22.382C114.57 22.2647 115.039 22.1327 115.523 21.986ZM114.577 17.718C114.299 17.3953 114.005 17.1607 113.697 17.014C113.463 16.9113 113.213 16.8673 112.949 16.882C112.7 16.882 112.458 16.9187 112.223 16.992C111.798 17.0947 111.439 17.3147 111.145 17.652C111.116 17.6813 111.065 17.7547 110.991 17.872C110.918 17.9747 110.845 18.0847 110.771 18.202C110.713 18.3193 110.669 18.4293 110.639 18.532C110.61 18.6347 110.625 18.686 110.683 18.686H114.995C114.981 18.4807 114.944 18.312 114.885 18.18C114.827 18.0333 114.724 17.8793 114.577 17.718ZM127.246 16.53C127.363 16.7353 127.422 16.9553 127.422 17.19C127.436 17.4247 127.385 17.6447 127.268 17.85C127.136 18.114 126.945 18.2973 126.696 18.4C126.461 18.488 126.197 18.4953 125.904 18.422C125.772 18.3927 125.654 18.3413 125.552 18.268C125.449 18.1947 125.339 18.1213 125.222 18.048C125.119 17.96 124.994 17.8793 124.848 17.806C124.716 17.7327 124.54 17.6813 124.32 17.652C124.1 17.6227 123.858 17.6227 123.594 17.652C123.344 17.6813 123.117 17.74 122.912 17.828C122.589 17.9893 122.332 18.2387 122.142 18.576C121.951 18.8987 121.826 19.2507 121.768 19.632C121.709 19.9987 121.716 20.3727 121.79 20.754C121.878 21.1353 122.039 21.458 122.274 21.722C122.45 21.9273 122.677 22.096 122.956 22.228C123.249 22.36 123.528 22.4407 123.792 22.47C124.041 22.4993 124.29 22.4993 124.54 22.47C124.789 22.426 125.031 22.3673 125.266 22.294C125.442 22.2207 125.64 22.1253 125.86 22.008C126.08 21.876 126.292 21.7953 126.498 21.766C126.762 21.766 126.967 21.8393 127.114 21.986C127.26 22.118 127.363 22.2867 127.422 22.492C127.48 22.6827 127.488 22.888 127.444 23.108C127.414 23.328 127.334 23.5187 127.202 23.68C127.026 23.9 126.776 24.1127 126.454 24.318C126.131 24.5087 125.823 24.648 125.53 24.736C125.178 24.8533 124.782 24.9193 124.342 24.934C123.916 24.9487 123.513 24.934 123.132 24.89C122.956 24.8607 122.772 24.824 122.582 24.78C122.391 24.736 122.208 24.6847 122.032 24.626C121.386 24.3913 120.844 24.0613 120.404 23.636C119.978 23.196 119.648 22.7047 119.414 22.162C119.194 21.6193 119.069 21.04 119.04 20.424C119.01 19.808 119.084 19.1993 119.26 18.598C119.421 18.026 119.619 17.542 119.854 17.146C120.103 16.75 120.389 16.4273 120.712 16.178C121.049 15.914 121.423 15.7087 121.834 15.562C122.244 15.4007 122.699 15.2613 123.198 15.144C123.711 15.0413 124.254 15.0413 124.826 15.144C125.398 15.2467 125.911 15.4373 126.366 15.716C126.718 15.9067 127.011 16.178 127.246 16.53ZM137.804 20.666C137.818 20.9593 137.826 21.2673 137.826 21.59C137.826 21.898 137.818 22.184 137.804 22.448C137.789 22.844 137.767 23.2107 137.738 23.548C137.708 23.8707 137.65 24.1493 137.562 24.384C137.474 24.604 137.334 24.7727 137.144 24.89C136.968 24.9927 136.718 25.022 136.396 24.978C136.058 24.934 135.816 24.7727 135.67 24.494C135.523 24.2153 135.42 23.9 135.362 23.548C135.318 23.1813 135.303 22.8147 135.318 22.448C135.332 22.0813 135.332 21.7953 135.318 21.59C135.303 21.2673 135.288 20.9007 135.274 20.49C135.274 20.0647 135.23 19.6687 135.142 19.302C135.068 18.9207 134.936 18.598 134.746 18.334C134.555 18.07 134.269 17.9307 133.888 17.916C133.404 17.8867 133.03 17.9233 132.766 18.026C132.516 18.1287 132.333 18.2827 132.216 18.488C132.098 18.6787 132.025 18.9133 131.996 19.192C131.981 19.4707 131.952 19.7713 131.908 20.094L131.886 20.952V22.558C131.886 22.822 131.878 23.1007 131.864 23.394C131.864 23.6727 131.82 23.9293 131.732 24.164C131.644 24.3987 131.504 24.5967 131.314 24.758C131.138 24.9193 130.874 25 130.522 25C130.082 25 129.752 24.8607 129.532 24.582C129.326 24.2887 129.224 23.9293 129.224 23.504V10.854C129.224 10.766 129.224 10.6853 129.224 10.612C129.238 10.524 129.253 10.436 129.268 10.348C129.297 10.26 129.319 10.1793 129.334 10.106C129.348 10.018 129.37 9.93733 129.4 9.864C129.444 9.71733 129.517 9.60733 129.62 9.534C129.693 9.46067 129.766 9.402 129.84 9.358C129.913 9.314 129.994 9.28467 130.082 9.27C130.155 9.25533 130.236 9.248 130.324 9.248C130.412 9.23333 130.5 9.226 130.588 9.226C130.808 9.226 131.02 9.292 131.226 9.424C131.314 9.48267 131.394 9.54867 131.468 9.622C131.541 9.68067 131.6 9.76867 131.644 9.886C131.761 10.1647 131.82 10.4287 131.82 10.678C131.834 10.7513 131.842 10.8613 131.842 11.008C131.856 11.14 131.864 11.2793 131.864 11.426C131.864 11.5727 131.864 11.7193 131.864 11.866C131.878 11.998 131.886 12.1007 131.886 12.174V12.284C131.9 12.7533 131.908 13.23 131.908 13.714C131.908 14.198 131.908 14.6893 131.908 15.188V15.562C132.524 15.3567 133.169 15.2613 133.844 15.276C134.518 15.276 135.12 15.408 135.648 15.672C136.19 15.9507 136.601 16.266 136.88 16.618C137.173 16.97 137.386 17.3587 137.518 17.784C137.65 18.2093 137.723 18.664 137.738 19.148C137.767 19.632 137.789 20.138 137.804 20.666Z" fill="black"/>
</svg>
