<svg width="151" height="32" viewBox="0 0 151 32" fill="none" xmlns="http://www.w3.org/2000/svg">
<path d="M13.704 19.968C13.912 20.432 13.92 20.888 13.728 21.336C13.536 21.768 13.232 22.168 12.816 22.536C12.4 22.904 11.92 23.224 11.376 23.496C10.848 23.768 10.344 23.96 9.864 24.072C9.336 24.184 8.776 24.232 8.184 24.216C7.608 24.216 7.024 24.144 6.432 24C5.856 23.872 5.288 23.68 4.728 23.424C4.184 23.152 3.68 22.824 3.216 22.44C2.656 21.976 2.216 21.424 1.896 20.784C1.592 20.128 1.368 19.432 1.224 18.696C1.08 17.96 1 17.224 0.984 16.488C0.984 15.736 1.008 15.032 1.056 14.376C1.104 13.784 1.224 13.168 1.416 12.528C1.608 11.888 1.872 11.264 2.208 10.656C2.56 10.032 2.976 9.456 3.456 8.928C3.952 8.4 4.528 7.952 5.184 7.584C5.68 7.296 6.232 7.104 6.84 7.008C7.464 6.896 8.088 6.872 8.712 6.936C9.352 6.984 9.952 7.12 10.512 7.344C11.088 7.552 11.576 7.84 11.976 8.208C12.232 8.432 12.496 8.744 12.768 9.144C13.056 9.544 13.264 9.952 13.392 10.368C13.52 10.784 13.52 11.176 13.392 11.544C13.28 11.896 12.96 12.136 12.432 12.264C12.208 12.328 12.008 12.344 11.832 12.312C11.656 12.264 11.496 12.192 11.352 12.096C11.208 11.984 11.072 11.856 10.944 11.712C10.816 11.568 10.696 11.424 10.584 11.28C10.2 10.816 9.752 10.504 9.24 10.344C8.728 10.168 8.216 10.128 7.704 10.224C7.208 10.304 6.736 10.512 6.288 10.848C5.856 11.168 5.52 11.584 5.28 12.096C5.024 12.64 4.816 13.24 4.656 13.896C4.512 14.536 4.432 15.192 4.416 15.864C4.4 16.52 4.456 17.16 4.584 17.784C4.728 18.408 4.968 18.96 5.304 19.44C5.56 19.824 5.872 20.136 6.24 20.376C6.624 20.616 7.032 20.784 7.464 20.88C7.896 20.976 8.328 20.992 8.76 20.928C9.208 20.864 9.64 20.72 10.056 20.496C10.184 20.432 10.32 20.344 10.464 20.232C10.624 20.104 10.784 19.976 10.944 19.848C11.104 19.72 11.264 19.6 11.424 19.488C11.6 19.376 11.784 19.296 11.976 19.248C12.264 19.152 12.576 19.16 12.912 19.272C13.264 19.384 13.528 19.616 13.704 19.968ZM15.8199 15.504C15.8199 15.312 15.8199 15.096 15.8199 14.856C15.8199 14.6 15.8279 14.344 15.8439 14.088C15.8599 13.816 15.8839 13.56 15.9159 13.32C15.9639 13.064 16.0279 12.84 16.1079 12.648C16.2359 12.36 16.4359 12.168 16.7079 12.072C16.9799 11.96 17.2759 11.912 17.5959 11.928C17.9319 11.928 18.1959 11.984 18.3879 12.096C18.5799 12.208 18.7239 12.36 18.8199 12.552C18.9159 12.728 18.9719 12.936 18.9879 13.176C19.0199 13.4 19.0359 13.64 19.0359 13.896C19.1799 13.64 19.3719 13.432 19.6119 13.272C19.8679 13.112 20.1239 12.984 20.3799 12.888C20.6359 12.792 20.8679 12.728 21.0759 12.696C21.2839 12.648 21.4039 12.624 21.4359 12.624C21.8359 12.592 22.1959 12.584 22.5159 12.6C22.8519 12.616 23.2199 12.688 23.6199 12.816C23.8759 12.912 24.1399 13.048 24.4119 13.224C24.6839 13.384 24.9239 13.576 25.1319 13.8C25.3399 14.024 25.4759 14.272 25.5399 14.544C25.6199 14.8 25.5879 15.072 25.4439 15.36C25.2199 15.76 24.9719 15.96 24.6999 15.96C24.4279 15.944 24.1319 15.896 23.8119 15.816C23.6359 15.784 23.4279 15.712 23.1879 15.6C22.9479 15.488 22.7399 15.416 22.5639 15.384C22.0199 15.304 21.5399 15.344 21.1239 15.504C20.7079 15.664 20.3479 15.856 20.0439 16.08C19.6919 16.352 19.3879 16.664 19.1319 17.016V20.472C19.1319 20.904 19.1239 21.352 19.1079 21.816C19.1079 22.28 19.0439 22.704 18.9159 23.088C18.8039 23.456 18.6039 23.76 18.3159 24C18.0439 24.224 17.6439 24.32 17.1159 24.288C16.8279 24.272 16.5719 24.136 16.3479 23.88C16.1239 23.608 15.9879 23.344 15.9399 23.088C15.9079 22.848 15.8839 22.56 15.8679 22.224C15.8519 21.888 15.8359 21.536 15.8199 21.168C15.8199 20.8 15.8199 20.432 15.8199 20.064C15.8199 19.68 15.8199 19.328 15.8199 19.008V15.504ZM37.4994 13.296C37.6434 13.52 37.7074 13.76 37.6914 14.016C37.6914 14.384 37.6274 14.704 37.4994 14.976C37.4674 15.056 37.4194 15.16 37.3554 15.288C37.3074 15.416 37.2514 15.552 37.1874 15.696C37.1394 15.84 37.0834 15.976 37.0194 16.104C36.9554 16.232 36.9074 16.328 36.8754 16.392L36.8274 16.512C36.6034 17.008 36.3874 17.488 36.1794 17.952C35.9714 18.416 35.7394 18.912 35.4834 19.44C35.2274 19.952 34.9794 20.456 34.7394 20.952C34.5154 21.432 34.2914 21.904 34.0674 22.368C34.0034 22.496 33.9474 22.624 33.8994 22.752C33.8514 22.864 33.7874 22.984 33.7074 23.112L32.5554 25.584C32.3474 26 32.1474 26.408 31.9554 26.808C31.7794 27.208 31.5794 27.608 31.3554 28.008C31.3074 28.088 31.2594 28.16 31.2114 28.224C31.1794 28.304 31.1474 28.384 31.1154 28.464C31.0034 28.656 30.8354 28.84 30.6114 29.016C30.4034 29.208 30.1794 29.312 29.9394 29.328C29.5074 29.36 29.1314 29.232 28.8114 28.944C28.6194 28.832 28.4674 28.672 28.3554 28.464C28.2914 28.32 28.2594 28.136 28.2594 27.912C28.2754 27.816 28.2834 27.72 28.2834 27.624C28.2994 27.544 28.3154 27.464 28.3314 27.384C28.3634 27.304 28.3874 27.224 28.4034 27.144C28.4194 27.064 28.4434 27 28.4754 26.952C28.5234 26.824 28.5634 26.76 28.5954 26.76L30.3474 22.968C30.2674 22.792 30.1874 22.616 30.1074 22.44C30.0274 22.248 29.9554 22.08 29.8914 21.936C29.6834 21.44 29.4594 20.92 29.2194 20.376C28.9954 19.816 28.7634 19.264 28.5234 18.72C28.2834 18.16 28.0354 17.616 27.7794 17.088C27.5234 16.56 27.2674 16.056 27.0114 15.576C26.9154 15.416 26.8274 15.248 26.7474 15.072C26.6674 14.88 26.6034 14.696 26.5554 14.52C26.5074 14.328 26.4914 14.136 26.5074 13.944C26.5234 13.752 26.5954 13.56 26.7234 13.368C26.8514 13.128 27.0194 12.96 27.2274 12.864C27.4354 12.752 27.6514 12.704 27.8754 12.72C28.1154 12.72 28.3394 12.768 28.5474 12.864C28.7554 12.96 28.9234 13.088 29.0514 13.248C29.3234 13.536 29.5394 13.856 29.6994 14.208C29.8594 14.56 30.0114 14.92 30.1554 15.288C30.4594 15.928 30.7714 16.6 31.0914 17.304C31.4114 18.008 31.7314 18.696 32.0514 19.368L33.2994 16.728C33.4274 16.472 33.5394 16.224 33.6354 15.984C33.7474 15.744 33.8594 15.512 33.9714 15.288C34.0994 15.016 34.2194 14.736 34.3314 14.448C34.4594 14.16 34.6034 13.896 34.7634 13.656C34.7954 13.592 34.8274 13.536 34.8594 13.488C34.8914 13.44 34.9234 13.384 34.9554 13.32C35.0994 13.128 35.2274 12.976 35.3394 12.864C35.4194 12.8 35.4834 12.752 35.5314 12.72C35.5954 12.672 35.6674 12.64 35.7474 12.624C35.8594 12.592 35.9634 12.576 36.0594 12.576C36.1714 12.56 36.2754 12.56 36.3714 12.576C36.5314 12.624 36.7234 12.696 36.9474 12.792C37.1874 12.888 37.3714 13.056 37.4994 13.296ZM46.3519 13.2C46.8159 13.392 47.2399 13.672 47.6239 14.04C48.0079 14.392 48.3359 14.8 48.6079 15.264C48.8959 15.728 49.1119 16.232 49.2559 16.776C49.4159 17.304 49.4959 17.84 49.4959 18.384C49.5119 19.2 49.3199 19.968 48.9199 20.688C48.5359 21.408 47.9039 21.96 47.0239 22.344C46.3519 22.616 45.6559 22.824 44.9359 22.968C44.2319 23.096 43.4959 23.184 42.7279 23.232V27.624C42.7279 27.72 42.7119 27.808 42.6799 27.888C42.6639 27.968 42.6559 28.048 42.6559 28.128C42.6239 28.288 42.5839 28.432 42.5359 28.56C42.5039 28.688 42.4559 28.824 42.3919 28.968C42.3279 29.064 42.2639 29.152 42.1999 29.232C42.1359 29.312 42.0639 29.392 41.9839 29.472C41.5999 29.664 41.1999 29.704 40.7839 29.592C40.5279 29.576 40.3199 29.496 40.1599 29.352C40.0159 29.208 39.9119 29.056 39.8479 28.896C39.7839 28.736 39.7279 28.552 39.6799 28.344C39.6639 28.264 39.6479 28.184 39.6319 28.104C39.6319 28.04 39.6319 27.968 39.6319 27.888V14.52C39.6319 14.424 39.6319 14.328 39.6319 14.232C39.6479 14.12 39.6639 14.008 39.6799 13.896C39.6959 13.704 39.7439 13.512 39.8239 13.32C39.9679 12.92 40.2639 12.648 40.7119 12.504C41.1599 12.36 41.6639 12.296 42.2239 12.312C42.6079 12.328 42.9999 12.368 43.3999 12.432C43.8159 12.496 44.2079 12.576 44.5759 12.672C44.9599 12.752 45.3039 12.84 45.6079 12.936C45.9119 13.032 46.1599 13.12 46.3519 13.2ZM46.3999 18.384C46.4639 17.936 46.4079 17.56 46.2319 17.256C46.0719 16.936 45.8399 16.68 45.5359 16.488C45.2319 16.28 44.8799 16.12 44.4799 16.008C44.0959 15.896 43.7119 15.816 43.3279 15.768C43.2799 15.752 43.1999 15.744 43.0879 15.744C42.9919 15.744 42.8799 15.744 42.7519 15.744C42.7519 16.256 42.7519 16.752 42.7519 17.232C42.7679 17.696 42.7679 18.2 42.7519 18.744V20.352C43.1199 20.336 43.5039 20.296 43.9039 20.232C44.3199 20.168 44.7039 20.064 45.0559 19.92C45.4079 19.776 45.7039 19.584 45.9439 19.344C46.1999 19.104 46.3519 18.784 46.3999 18.384ZM60.6611 13.416C60.7891 13.72 60.7971 14.056 60.6851 14.424C60.5891 14.792 60.4051 15.032 60.1331 15.144C59.9891 15.208 59.7971 15.264 59.5571 15.312C59.3171 15.344 59.0531 15.376 58.7651 15.408C58.4931 15.44 58.2211 15.464 57.9491 15.48C57.6771 15.496 57.4451 15.504 57.2531 15.504C57.2691 15.984 57.2851 16.48 57.3011 16.992C57.3171 17.488 57.3331 17.976 57.3491 18.456C57.3651 18.936 57.3731 19.4 57.3731 19.848C57.3731 20.28 57.3651 20.672 57.3491 21.024C57.3491 21.264 57.3491 21.544 57.3491 21.864C57.3491 22.168 57.3251 22.464 57.2771 22.752C57.2451 23.04 57.1891 23.296 57.1091 23.52C57.0291 23.728 56.9091 23.864 56.7491 23.928C56.2531 24.136 55.7971 24.192 55.3811 24.096C54.9811 24.016 54.6931 23.848 54.5171 23.592C54.3891 23.384 54.2931 23.144 54.2291 22.872C54.1651 22.584 54.1171 22.296 54.0851 22.008C54.0691 21.704 54.0611 21.416 54.0611 21.144C54.0771 20.856 54.0851 20.608 54.0851 20.4C54.1011 19.728 54.1091 18.968 54.1091 18.12C54.1251 17.256 54.1331 16.392 54.1331 15.528H53.7731C53.5811 15.528 53.3331 15.528 53.0291 15.528C52.7411 15.512 52.4451 15.488 52.1411 15.456C51.8531 15.408 51.5811 15.352 51.3251 15.288C51.0691 15.208 50.8851 15.096 50.7731 14.952C50.5971 14.744 50.4851 14.52 50.4371 14.28C50.4051 14.04 50.4211 13.816 50.4851 13.608C50.5651 13.384 50.6851 13.192 50.8451 13.032C51.0051 12.856 51.1891 12.744 51.3971 12.696C51.6851 12.616 52.0931 12.576 52.6211 12.576C53.1491 12.56 53.6451 12.56 54.1091 12.576C54.0931 12.416 54.0851 12.264 54.0851 12.12C54.0851 11.96 54.0771 11.808 54.0611 11.664C54.0451 11.472 54.0371 11.232 54.0371 10.944C54.0371 10.64 54.0531 10.344 54.0851 10.056C54.1331 9.752 54.2051 9.472 54.3011 9.216C54.3971 8.944 54.5331 8.736 54.7091 8.592C54.9491 8.4 55.1891 8.296 55.4291 8.28C55.6851 8.248 55.9171 8.28 56.1251 8.376C56.3491 8.472 56.5331 8.616 56.6771 8.808C56.8371 8.984 56.9491 9.184 57.0131 9.408C57.0611 9.6 57.1011 9.832 57.1331 10.104C57.1651 10.36 57.1811 10.632 57.1811 10.92C57.1971 11.208 57.2051 11.496 57.2051 11.784C57.2051 12.072 57.2051 12.336 57.2051 12.576H57.4451C57.6851 12.576 57.9651 12.568 58.2851 12.552C58.6051 12.536 58.9171 12.544 59.2211 12.576C59.5411 12.608 59.8291 12.688 60.0851 12.816C60.3411 12.928 60.5331 13.128 60.6611 13.416ZM64.5013 13.152C65.0293 12.896 65.5813 12.712 66.1573 12.6C66.7333 12.488 67.3013 12.464 67.8613 12.528C68.4373 12.592 68.9893 12.744 69.5173 12.984C70.0613 13.224 70.5573 13.56 71.0053 13.992C71.3733 14.36 71.6933 14.808 71.9653 15.336C72.2373 15.848 72.4373 16.352 72.5653 16.848C72.8373 17.728 72.8773 18.616 72.6853 19.512C72.4933 20.408 72.1653 21.24 71.7013 22.008C71.4773 22.36 71.1973 22.68 70.8613 22.968C70.5413 23.24 70.1973 23.464 69.8293 23.64C69.3493 23.864 68.8293 24.016 68.2693 24.096C67.7093 24.192 67.1653 24.216 66.6373 24.168C65.6773 24.12 64.8293 23.88 64.0933 23.448C63.3733 23.016 62.7893 22.464 62.3413 21.792C61.9093 21.12 61.6213 20.36 61.4773 19.512C61.3493 18.648 61.4053 17.768 61.6453 16.872C61.9013 15.912 62.2693 15.136 62.7493 14.544C63.2453 13.936 63.8293 13.472 64.5013 13.152ZM65.2213 16.368C64.9813 16.592 64.7973 16.872 64.6693 17.208C64.5413 17.544 64.4613 17.896 64.4293 18.264C64.3973 18.616 64.4213 18.976 64.5013 19.344C64.5973 19.696 64.7413 20.016 64.9333 20.304C65.0933 20.544 65.3813 20.744 65.7973 20.904C66.2133 21.064 66.6453 21.16 67.0933 21.192C67.6053 21.224 68.0533 21.088 68.4373 20.784C68.8213 20.464 69.1093 20.072 69.3013 19.608C69.5093 19.144 69.6053 18.64 69.5893 18.096C69.5733 17.552 69.4293 17.056 69.1573 16.608C68.9653 16.288 68.6933 16.056 68.3413 15.912C68.0053 15.752 67.6453 15.672 67.2613 15.672C66.8933 15.656 66.5253 15.712 66.1573 15.84C65.7893 15.952 65.4773 16.128 65.2213 16.368Z" fill="white"/>
<path d="M117.208 7.752C117.384 7.96 117.472 8.176 117.472 8.4C117.472 8.496 117.464 8.6 117.448 8.712C117.448 8.808 117.44 8.896 117.424 8.976C117.376 9.152 117.272 9.32 117.112 9.48C116.984 9.576 116.808 9.648 116.584 9.696C116.472 9.728 116.36 9.752 116.248 9.768C116.136 9.784 116.016 9.808 115.888 9.84C115.776 9.856 115.664 9.864 115.552 9.864C115.44 9.864 115.32 9.864 115.192 9.864H113.968C113.68 9.88 113.392 9.888 113.104 9.888C112.832 9.888 112.56 9.888 112.288 9.888C112.304 10.384 112.312 10.92 112.312 11.496C112.312 12.056 112.304 12.712 112.288 13.464C112.288 14.216 112.28 15.088 112.264 16.08C112.264 17.072 112.264 18.224 112.264 19.536V21.36C112.264 21.52 112.272 21.64 112.288 21.72C112.288 21.784 112.288 21.848 112.288 21.912C112.288 21.96 112.28 22.024 112.264 22.104C112.232 22.248 112.208 22.416 112.192 22.608C112.192 22.688 112.184 22.768 112.168 22.848C112.152 22.912 112.128 22.984 112.096 23.064C112.032 23.128 112 23.176 112 23.208L111.928 23.352C111.848 23.512 111.696 23.664 111.472 23.808C111.12 23.984 110.728 24.024 110.296 23.928C110.024 23.896 109.816 23.824 109.672 23.712C109.528 23.568 109.424 23.424 109.36 23.28C109.264 23.104 109.208 22.936 109.192 22.776C109.144 22.632 109.12 22.48 109.12 22.32V9.984C109.024 9.984 108.824 9.984 108.52 9.984C108.216 9.984 107.888 9.984 107.536 9.984C107.2 9.968 106.88 9.952 106.576 9.936C106.272 9.92 106.064 9.904 105.952 9.888C105.856 9.872 105.704 9.848 105.496 9.816C105.304 9.784 105.144 9.752 105.016 9.72C104.68 9.624 104.416 9.472 104.224 9.264C104.048 9.056 103.96 8.824 103.96 8.568C103.96 8.472 103.96 8.376 103.96 8.28C103.96 8.184 103.976 8.096 104.008 8.016C104.056 7.824 104.184 7.664 104.392 7.536C104.456 7.488 104.552 7.432 104.68 7.368C104.824 7.288 104.96 7.232 105.088 7.2C105.28 7.136 105.52 7.088 105.808 7.056C105.936 7.04 106.064 7.032 106.192 7.032C106.32 7.032 106.456 7.032 106.6 7.032C107.16 7.032 107.688 7.032 108.184 7.032C108.696 7.032 109.232 7.024 109.792 7.008C110.72 6.992 111.64 6.992 112.552 7.008C113.48 7.008 114.4 7.024 115.312 7.056C115.52 7.072 115.72 7.096 115.912 7.128C116.104 7.16 116.296 7.216 116.488 7.296C116.632 7.344 116.768 7.408 116.896 7.488C117.024 7.552 117.128 7.64 117.208 7.752ZM125.389 20.712C125.581 20.664 125.773 20.632 125.965 20.616C126.173 20.6 126.357 20.624 126.517 20.688C126.693 20.752 126.837 20.864 126.949 21.024C127.061 21.168 127.117 21.376 127.117 21.648C127.117 21.84 127.069 22.024 126.973 22.2C126.877 22.376 126.757 22.536 126.613 22.68C126.469 22.824 126.309 22.952 126.133 23.064C125.957 23.16 125.789 23.24 125.629 23.304C125.165 23.512 124.629 23.672 124.021 23.784C123.429 23.896 122.813 23.936 122.173 23.904C121.309 23.872 120.477 23.704 119.677 23.4C118.893 23.08 118.277 22.56 117.829 21.84C117.413 21.136 117.165 20.352 117.085 19.488C117.005 18.624 117.045 17.808 117.205 17.04C117.381 16.112 117.677 15.36 118.093 14.784C118.525 14.192 119.037 13.72 119.629 13.368C120.349 12.952 121.157 12.736 122.053 12.72C122.949 12.704 123.805 12.88 124.621 13.248C125.165 13.488 125.653 13.816 126.085 14.232C126.517 14.632 126.845 15.12 127.069 15.696C127.133 15.84 127.181 16.016 127.213 16.224C127.261 16.432 127.293 16.656 127.309 16.896C127.325 17.12 127.325 17.344 127.309 17.568C127.293 17.792 127.253 17.992 127.189 18.168C127.093 18.456 126.973 18.68 126.829 18.84C126.685 19 126.501 19.12 126.277 19.2C126.053 19.28 125.781 19.336 125.461 19.368C125.157 19.384 124.789 19.4 124.357 19.416C123.973 19.432 123.613 19.44 123.277 19.44C122.941 19.44 122.597 19.44 122.245 19.44C121.893 19.424 121.525 19.416 121.141 19.416C120.773 19.4 120.357 19.384 119.893 19.368C119.845 19.688 119.885 19.968 120.013 20.208C120.157 20.432 120.349 20.624 120.589 20.784C120.829 20.928 121.101 21.04 121.405 21.12C121.709 21.2 122.005 21.248 122.293 21.264C122.837 21.296 123.357 21.256 123.853 21.144C124.349 21.016 124.861 20.872 125.389 20.712ZM124.357 16.056C124.053 15.704 123.733 15.448 123.397 15.288C123.141 15.176 122.869 15.128 122.581 15.144C122.309 15.144 122.045 15.184 121.789 15.264C121.325 15.376 120.933 15.616 120.613 15.984C120.581 16.016 120.525 16.096 120.445 16.224C120.365 16.336 120.285 16.456 120.205 16.584C120.141 16.712 120.093 16.832 120.061 16.944C120.029 17.056 120.045 17.112 120.109 17.112H124.813C124.797 16.888 124.757 16.704 124.693 16.56C124.629 16.4 124.517 16.232 124.357 16.056ZM138.177 14.76C138.305 14.984 138.369 15.224 138.369 15.48C138.385 15.736 138.329 15.976 138.201 16.2C138.057 16.488 137.849 16.688 137.577 16.8C137.321 16.896 137.033 16.904 136.713 16.824C136.569 16.792 136.441 16.736 136.329 16.656C136.217 16.576 136.097 16.496 135.969 16.416C135.857 16.32 135.721 16.232 135.561 16.152C135.417 16.072 135.225 16.016 134.985 15.984C134.745 15.952 134.481 15.952 134.193 15.984C133.921 16.016 133.673 16.08 133.449 16.176C133.097 16.352 132.817 16.624 132.609 16.992C132.401 17.344 132.265 17.728 132.201 18.144C132.137 18.544 132.145 18.952 132.225 19.368C132.321 19.784 132.497 20.136 132.753 20.424C132.945 20.648 133.193 20.832 133.497 20.976C133.817 21.12 134.121 21.208 134.409 21.24C134.681 21.272 134.953 21.272 135.225 21.24C135.497 21.192 135.761 21.128 136.017 21.048C136.209 20.968 136.425 20.864 136.665 20.736C136.905 20.592 137.137 20.504 137.361 20.472C137.649 20.472 137.873 20.552 138.033 20.712C138.193 20.856 138.305 21.04 138.369 21.264C138.433 21.472 138.441 21.696 138.393 21.936C138.361 22.176 138.273 22.384 138.129 22.56C137.937 22.8 137.665 23.032 137.313 23.256C136.961 23.464 136.625 23.616 136.305 23.712C135.921 23.84 135.489 23.912 135.009 23.928C134.545 23.944 134.105 23.928 133.689 23.88C133.497 23.848 133.297 23.808 133.089 23.76C132.881 23.712 132.681 23.656 132.489 23.592C131.785 23.336 131.193 22.976 130.713 22.512C130.249 22.032 129.889 21.496 129.633 20.904C129.393 20.312 129.257 19.68 129.225 19.008C129.193 18.336 129.273 17.672 129.465 17.016C129.641 16.392 129.857 15.864 130.113 15.432C130.385 15 130.697 14.648 131.049 14.376C131.417 14.088 131.825 13.864 132.273 13.704C132.721 13.528 133.217 13.376 133.761 13.248C134.321 13.136 134.913 13.136 135.537 13.248C136.161 13.36 136.721 13.568 137.217 13.872C137.601 14.08 137.921 14.376 138.177 14.76ZM149.695 19.272C149.711 19.592 149.719 19.928 149.719 20.28C149.719 20.616 149.711 20.928 149.695 21.216C149.679 21.648 149.655 22.048 149.623 22.416C149.591 22.768 149.527 23.072 149.431 23.328C149.335 23.568 149.183 23.752 148.975 23.88C148.783 23.992 148.511 24.024 148.159 23.976C147.791 23.928 147.527 23.752 147.367 23.448C147.207 23.144 147.095 22.8 147.031 22.416C146.983 22.016 146.967 21.616 146.983 21.216C146.999 20.816 146.999 20.504 146.983 20.28C146.967 19.928 146.951 19.528 146.935 19.08C146.935 18.616 146.887 18.184 146.791 17.784C146.711 17.368 146.567 17.016 146.359 16.728C146.151 16.44 145.839 16.288 145.423 16.272C144.895 16.24 144.487 16.28 144.199 16.392C143.927 16.504 143.727 16.672 143.599 16.896C143.471 17.104 143.391 17.36 143.359 17.664C143.343 17.968 143.311 18.296 143.263 18.648L143.239 19.584V21.336C143.239 21.624 143.231 21.928 143.215 22.248C143.215 22.552 143.167 22.832 143.071 23.088C142.975 23.344 142.823 23.56 142.615 23.736C142.423 23.912 142.135 24 141.751 24C141.271 24 140.911 23.848 140.671 23.544C140.447 23.224 140.335 22.832 140.335 22.368V8.568C140.335 8.472 140.335 8.384 140.335 8.304C140.351 8.208 140.367 8.112 140.383 8.016C140.415 7.92 140.439 7.832 140.455 7.752C140.471 7.656 140.495 7.568 140.527 7.488C140.575 7.328 140.655 7.208 140.767 7.128C140.847 7.048 140.927 6.984 141.007 6.936C141.087 6.888 141.175 6.856 141.271 6.84C141.351 6.824 141.439 6.816 141.535 6.816C141.631 6.8 141.727 6.792 141.823 6.792C142.063 6.792 142.295 6.864 142.519 7.008C142.615 7.072 142.703 7.144 142.783 7.224C142.863 7.288 142.927 7.384 142.975 7.512C143.103 7.816 143.167 8.104 143.167 8.376C143.183 8.456 143.191 8.576 143.191 8.736C143.207 8.88 143.215 9.032 143.215 9.192C143.215 9.352 143.215 9.512 143.215 9.672C143.231 9.816 143.239 9.928 143.239 10.008V10.128C143.255 10.64 143.263 11.16 143.263 11.688C143.263 12.216 143.263 12.752 143.263 13.296V13.704C143.935 13.48 144.639 13.376 145.375 13.392C146.111 13.392 146.767 13.536 147.343 13.824C147.935 14.128 148.383 14.472 148.687 14.856C149.007 15.24 149.239 15.664 149.383 16.128C149.527 16.592 149.607 17.088 149.623 17.616C149.655 18.144 149.679 18.696 149.695 19.272Z" fill="white"/>
<path d="M87.5 0L86.8587 0.34875L75.0463 6.045L74 6.54875V7.75C74 14.1825 76.2613 19.84 78.9613 23.9863C80.3113 26.04 81.7625 27.745 83.18 28.9462C84.5975 30.1475 85.9813 31 87.5 31C89.0525 31 90.4025 30.1475 91.82 28.9462C93.2375 27.745 94.6888 26.04 96.0388 23.9863C98.7388 19.84 101 14.1825 101 7.75V6.54875L99.9538 6.045L88.1413 0.34875L87.5 0ZM87.5 4.22375V27.125C87.365 27.125 86.3862 26.8538 85.2725 25.9238C84.1587 24.9938 82.8762 23.4825 81.695 21.7C79.535 18.4062 77.8475 13.8337 77.5775 8.99L87.5 4.2625V4.22375Z" fill="#07A658"/>
</svg>
