<svg width="155" height="32" viewBox="0 0 155 32" fill="none" xmlns="http://www.w3.org/2000/svg">
<path d="M18.096 7.968C18.16 8.272 18.16 8.592 18.096 8.928C18.064 9.088 18.032 9.248 18 9.408C17.984 9.552 17.96 9.704 17.928 9.864L17.904 9.96C17.68 10.952 17.424 12 17.136 13.104C16.864 14.192 16.616 15.224 16.392 16.2C16.2 17 16 17.88 15.792 18.84C15.584 19.8 15.368 20.68 15.144 21.48C15.064 21.752 14.976 22.024 14.88 22.296C14.8 22.568 14.696 22.84 14.568 23.112C14.456 23.352 14.32 23.568 14.16 23.76C14.016 23.936 13.848 24.064 13.656 24.144C13.464 24.24 13.256 24.272 13.032 24.24C12.824 24.224 12.592 24.128 12.336 23.952C11.952 23.68 11.664 23.304 11.472 22.824C11.296 22.344 11.112 21.904 10.92 21.504C10.856 21.392 10.76 21.144 10.632 20.76C10.504 20.376 10.368 19.96 10.224 19.512C10.08 19.048 9.936 18.608 9.792 18.192C9.664 17.76 9.552 17.44 9.456 17.232C9.312 17.584 9.168 17.984 9.024 18.432C8.88 18.88 8.744 19.32 8.616 19.752C8.488 20.184 8.368 20.576 8.256 20.928C8.16 21.264 8.088 21.512 8.04 21.672C7.912 21.992 7.768 22.344 7.608 22.728C7.464 23.112 7.28 23.44 7.056 23.712C6.848 23.984 6.592 24.16 6.288 24.24C5.984 24.336 5.624 24.248 5.208 23.976C4.888 23.784 4.664 23.512 4.536 23.16C4.456 22.936 4.376 22.72 4.296 22.512C4.216 22.304 4.152 22.088 4.104 21.864L3.624 20.064L2.64 16.2C2.512 15.704 2.384 15.2 2.256 14.688C2.144 14.16 2.008 13.616 1.848 13.056C1.768 12.784 1.696 12.52 1.632 12.264C1.584 11.992 1.528 11.704 1.464 11.4C1.416 11.08 1.352 10.72 1.272 10.32C1.208 9.92 1.128 9.456 1.032 8.928C1 8.752 0.976 8.592 0.96 8.448C0.96 8.288 0.976 8.128 1.008 7.968C1.04 7.728 1.152 7.52 1.344 7.344C1.424 7.264 1.52 7.2 1.632 7.152C1.744 7.104 1.864 7.064 1.992 7.032C2.184 6.968 2.384 6.936 2.592 6.936C2.784 6.936 2.984 7 3.192 7.128C3.336 7.208 3.448 7.312 3.528 7.44L3.816 7.944C3.848 8.056 3.88 8.16 3.912 8.256C3.944 8.336 3.976 8.424 4.008 8.52C4.04 8.632 4.064 8.736 4.08 8.832C4.096 8.912 4.112 8.992 4.128 9.072C4.272 9.904 4.448 10.712 4.656 11.496C4.864 12.28 5.056 13.032 5.232 13.752C5.296 14.04 5.376 14.4 5.472 14.832C5.568 15.248 5.664 15.688 5.76 16.152C5.856 16.6 5.952 17.032 6.048 17.448C6.144 17.864 6.24 18.192 6.336 18.432C6.544 17.712 6.752 16.992 6.96 16.272C7.184 15.552 7.424 14.824 7.68 14.088C7.808 13.704 7.936 13.36 8.064 13.056C8.208 12.736 8.368 12.472 8.544 12.264C8.72 12.056 8.92 11.92 9.144 11.856C9.368 11.792 9.632 11.816 9.936 11.928C10.208 12.04 10.448 12.28 10.656 12.648C10.864 13.016 11.048 13.392 11.208 13.776C11.352 14.128 11.488 14.504 11.616 14.904C11.76 15.288 11.896 15.672 12.024 16.056C12.168 16.424 12.304 16.776 12.432 17.112C12.56 17.448 12.688 17.736 12.816 17.976C12.864 17.8 12.92 17.576 12.984 17.304C13.048 17.032 13.112 16.744 13.176 16.44C13.256 16.12 13.328 15.808 13.392 15.504C13.456 15.2 13.52 14.92 13.584 14.664C13.792 13.8 14.008 12.936 14.232 12.072C14.456 11.192 14.672 10.328 14.88 9.48L15 9.072C15.032 8.992 15.048 8.912 15.048 8.832C15.064 8.736 15.088 8.632 15.12 8.52C15.152 8.424 15.184 8.336 15.216 8.256C15.248 8.16 15.28 8.056 15.312 7.944C15.344 7.864 15.376 7.784 15.408 7.704C15.456 7.608 15.512 7.52 15.576 7.44C15.624 7.36 15.68 7.296 15.744 7.248C15.808 7.2 15.872 7.16 15.936 7.128C16.16 7 16.352 6.936 16.512 6.936C16.72 6.936 16.92 6.968 17.112 7.032C17.368 7.08 17.6 7.184 17.808 7.344C17.968 7.504 18.064 7.712 18.096 7.968ZM21.6039 13.896C22.0839 13.656 22.5879 13.488 23.1159 13.392C23.6439 13.28 24.1639 13.256 24.6759 13.32C25.2039 13.368 25.7079 13.504 26.1879 13.728C26.6679 13.936 27.1159 14.24 27.5319 14.64C27.9479 15.056 28.2679 15.512 28.4919 16.008C28.7159 16.504 28.8759 17.056 28.9719 17.664C29.0359 18.08 29.1399 18.464 29.2839 18.816C29.4279 19.168 29.5799 19.52 29.7399 19.872C29.9159 20.224 30.0759 20.576 30.2199 20.928C30.3799 21.28 30.5079 21.648 30.6039 22.032C30.6839 22.4 30.6519 22.76 30.5079 23.112C30.3799 23.448 30.1079 23.656 29.6919 23.736C29.4519 23.784 29.2199 23.768 28.9959 23.688C28.7879 23.592 28.5959 23.464 28.4199 23.304C28.2439 23.128 28.0839 22.944 27.9399 22.752C27.8119 22.544 27.6919 22.352 27.5799 22.176C27.2119 22.656 26.8119 23.032 26.3799 23.304C25.9479 23.56 25.4279 23.728 24.8199 23.808C24.3079 23.872 23.8199 23.888 23.3559 23.856C22.8919 23.824 22.3959 23.736 21.8679 23.592C21.1799 23.416 20.6119 23.112 20.1639 22.68C19.7319 22.232 19.3959 21.72 19.1559 21.144C18.9319 20.552 18.8119 19.92 18.7959 19.248C18.7799 18.576 18.8599 17.912 19.0359 17.256C19.2599 16.392 19.5959 15.688 20.0439 15.144C20.4919 14.6 21.0119 14.184 21.6039 13.896ZM22.2039 16.704C21.9799 16.928 21.8039 17.192 21.6759 17.496C21.5479 17.8 21.4679 18.12 21.4359 18.456C21.4199 18.792 21.4519 19.128 21.5319 19.464C21.6119 19.8 21.7399 20.096 21.9159 20.352C22.0759 20.576 22.3479 20.768 22.7319 20.928C23.1159 21.072 23.5159 21.16 23.9319 21.192C24.4119 21.224 24.8279 21.096 25.1799 20.808C25.5479 20.52 25.8199 20.16 25.9959 19.728C26.1879 19.28 26.2759 18.808 26.2599 18.312C26.2439 17.8 26.1079 17.336 25.8519 16.92C25.6599 16.616 25.4039 16.392 25.0839 16.248C24.7799 16.104 24.4519 16.032 24.0999 16.032C23.7479 16.016 23.3959 16.072 23.0439 16.2C22.7079 16.312 22.4279 16.48 22.2039 16.704ZM35.7926 22.08C35.7766 22.16 35.7606 22.24 35.7446 22.32C35.7446 22.384 35.7446 22.456 35.7446 22.536L35.6006 23.04C35.5686 23.104 35.5446 23.144 35.5286 23.16L35.4566 23.304C35.3766 23.48 35.2326 23.624 35.0246 23.736C34.6406 23.928 34.2326 23.976 33.8006 23.88C33.5286 23.848 33.3126 23.768 33.1526 23.64C32.9926 23.528 32.8806 23.392 32.8166 23.232C32.7526 23.072 32.7046 22.912 32.6726 22.752C32.6246 22.592 32.6006 22.448 32.6006 22.32V8.88C32.6006 8.768 32.6006 8.672 32.6006 8.592C32.6166 8.496 32.6326 8.408 32.6486 8.328C32.6646 8.216 32.6806 8.12 32.6966 8.04C32.7286 7.96 32.7606 7.872 32.7926 7.776C32.8406 7.616 32.9286 7.488 33.0566 7.392C33.2486 7.248 33.4326 7.168 33.6086 7.152C33.7206 7.12 33.8246 7.104 33.9206 7.104C34.0166 7.088 34.1286 7.08 34.2566 7.08C34.4806 7.08 34.7366 7.144 35.0246 7.272C35.2486 7.4 35.4086 7.576 35.5046 7.8C35.6646 8.12 35.7446 8.416 35.7446 8.688C35.7606 8.848 35.7686 9.088 35.7686 9.408C35.7846 9.728 35.7926 9.968 35.7926 10.128V10.224C35.8246 10.736 35.8406 11.232 35.8406 11.712C35.8406 12.176 35.8326 12.688 35.8166 13.248C35.8166 13.792 35.8086 14.32 35.7926 14.832C35.7926 15.328 35.7926 15.824 35.7926 16.32V21.36C35.7926 21.424 35.7926 21.488 35.7926 21.552C35.8086 21.6 35.8166 21.656 35.8166 21.72C35.8166 21.88 35.8086 22 35.7926 22.08ZM41.9801 22.08C41.9641 22.16 41.9481 22.24 41.9321 22.32C41.9321 22.384 41.9321 22.456 41.9321 22.536L41.7881 23.04C41.7561 23.104 41.7321 23.144 41.7161 23.16L41.6441 23.304C41.5641 23.48 41.4201 23.624 41.2121 23.736C40.8281 23.928 40.4201 23.976 39.9881 23.88C39.7161 23.848 39.5001 23.768 39.3401 23.64C39.1801 23.528 39.0681 23.392 39.0041 23.232C38.9401 23.072 38.8921 22.912 38.8601 22.752C38.8121 22.592 38.7881 22.448 38.7881 22.32V8.88C38.7881 8.768 38.7881 8.672 38.7881 8.592C38.8041 8.496 38.8201 8.408 38.8361 8.328C38.8521 8.216 38.8681 8.12 38.8841 8.04C38.9161 7.96 38.9481 7.872 38.9801 7.776C39.0281 7.616 39.1161 7.488 39.2441 7.392C39.4361 7.248 39.6201 7.168 39.7961 7.152C39.9081 7.12 40.0121 7.104 40.1081 7.104C40.2041 7.088 40.3161 7.08 40.4441 7.08C40.6681 7.08 40.9241 7.144 41.2121 7.272C41.4361 7.4 41.5961 7.576 41.6921 7.8C41.8521 8.12 41.9321 8.416 41.9321 8.688C41.9481 8.848 41.9561 9.088 41.9561 9.408C41.9721 9.728 41.9801 9.968 41.9801 10.128V10.224C42.0121 10.736 42.0281 11.232 42.0281 11.712C42.0281 12.176 42.0201 12.688 42.0041 13.248C42.0041 13.792 41.9961 14.32 41.9801 14.832C41.9801 15.328 41.9801 15.824 41.9801 16.32V21.36C41.9801 21.424 41.9801 21.488 41.9801 21.552C41.9961 21.6 42.0041 21.656 42.0041 21.72C42.0041 21.88 41.9961 22 41.9801 22.08ZM52.2484 20.712C52.4404 20.664 52.6324 20.632 52.8244 20.616C53.0324 20.6 53.2164 20.624 53.3764 20.688C53.5524 20.752 53.6964 20.864 53.8084 21.024C53.9204 21.168 53.9764 21.376 53.9764 21.648C53.9764 21.84 53.9284 22.024 53.8324 22.2C53.7364 22.376 53.6164 22.536 53.4724 22.68C53.3284 22.824 53.1684 22.952 52.9924 23.064C52.8164 23.16 52.6484 23.24 52.4884 23.304C52.0244 23.512 51.4884 23.672 50.8804 23.784C50.2884 23.896 49.6724 23.936 49.0324 23.904C48.1684 23.872 47.3364 23.704 46.5364 23.4C45.7524 23.08 45.1364 22.56 44.6884 21.84C44.2724 21.136 44.0244 20.352 43.9444 19.488C43.8644 18.624 43.9044 17.808 44.0644 17.04C44.2404 16.112 44.5364 15.36 44.9524 14.784C45.3844 14.192 45.8964 13.72 46.4884 13.368C47.2084 12.952 48.0164 12.736 48.9124 12.72C49.8084 12.704 50.6644 12.88 51.4804 13.248C52.0244 13.488 52.5124 13.816 52.9444 14.232C53.3764 14.632 53.7044 15.12 53.9284 15.696C53.9924 15.84 54.0404 16.016 54.0724 16.224C54.1204 16.432 54.1524 16.656 54.1684 16.896C54.1844 17.12 54.1844 17.344 54.1684 17.568C54.1524 17.792 54.1124 17.992 54.0484 18.168C53.9524 18.456 53.8324 18.68 53.6884 18.84C53.5444 19 53.3604 19.12 53.1364 19.2C52.9124 19.28 52.6404 19.336 52.3204 19.368C52.0164 19.384 51.6484 19.4 51.2164 19.416C50.8324 19.432 50.4724 19.44 50.1364 19.44C49.8004 19.44 49.4564 19.44 49.1044 19.44C48.7524 19.424 48.3844 19.416 48.0004 19.416C47.6324 19.4 47.2164 19.384 46.7524 19.368C46.7044 19.688 46.7444 19.968 46.8724 20.208C47.0164 20.432 47.2084 20.624 47.4484 20.784C47.6884 20.928 47.9604 21.04 48.2644 21.12C48.5684 21.2 48.8644 21.248 49.1524 21.264C49.6964 21.296 50.2164 21.256 50.7124 21.144C51.2084 21.016 51.7204 20.872 52.2484 20.712ZM51.2164 16.056C50.9124 15.704 50.5924 15.448 50.2564 15.288C50.0004 15.176 49.7284 15.128 49.4404 15.144C49.1684 15.144 48.9044 15.184 48.6484 15.264C48.1844 15.376 47.7924 15.616 47.4724 15.984C47.4404 16.016 47.3844 16.096 47.3044 16.224C47.2244 16.336 47.1444 16.456 47.0644 16.584C47.0004 16.712 46.9524 16.832 46.9204 16.944C46.8884 17.056 46.9044 17.112 46.9684 17.112H51.6724C51.6564 16.888 51.6164 16.704 51.5524 16.56C51.4884 16.4 51.3764 16.232 51.2164 16.056ZM65.3955 13.416C65.5235 13.72 65.5315 14.056 65.4195 14.424C65.3235 14.792 65.1395 15.032 64.8675 15.144C64.7235 15.208 64.5315 15.264 64.2915 15.312C64.0515 15.344 63.7875 15.376 63.4995 15.408C63.2275 15.44 62.9555 15.464 62.6835 15.48C62.4115 15.496 62.1795 15.504 61.9875 15.504C62.0035 15.984 62.0195 16.48 62.0355 16.992C62.0515 17.488 62.0675 17.976 62.0835 18.456C62.0995 18.936 62.1075 19.4 62.1075 19.848C62.1075 20.28 62.0995 20.672 62.0835 21.024C62.0835 21.264 62.0835 21.544 62.0835 21.864C62.0835 22.168 62.0595 22.464 62.0115 22.752C61.9795 23.04 61.9235 23.296 61.8435 23.52C61.7635 23.728 61.6435 23.864 61.4835 23.928C60.9875 24.136 60.5315 24.192 60.1155 24.096C59.7155 24.016 59.4275 23.848 59.2515 23.592C59.1235 23.384 59.0275 23.144 58.9635 22.872C58.8995 22.584 58.8515 22.296 58.8195 22.008C58.8035 21.704 58.7955 21.416 58.7955 21.144C58.8115 20.856 58.8195 20.608 58.8195 20.4C58.8355 19.728 58.8435 18.968 58.8435 18.12C58.8595 17.256 58.8675 16.392 58.8675 15.528H58.5075C58.3155 15.528 58.0675 15.528 57.7635 15.528C57.4755 15.512 57.1795 15.488 56.8755 15.456C56.5875 15.408 56.3155 15.352 56.0595 15.288C55.8035 15.208 55.6195 15.096 55.5075 14.952C55.3315 14.744 55.2195 14.52 55.1715 14.28C55.1395 14.04 55.1555 13.816 55.2195 13.608C55.2995 13.384 55.4195 13.192 55.5795 13.032C55.7395 12.856 55.9235 12.744 56.1315 12.696C56.4195 12.616 56.8275 12.576 57.3555 12.576C57.8835 12.56 58.3795 12.56 58.8435 12.576C58.8275 12.416 58.8195 12.264 58.8195 12.12C58.8195 11.96 58.8115 11.808 58.7955 11.664C58.7795 11.472 58.7715 11.232 58.7715 10.944C58.7715 10.64 58.7875 10.344 58.8195 10.056C58.8675 9.752 58.9395 9.472 59.0355 9.216C59.1315 8.944 59.2675 8.736 59.4435 8.592C59.6835 8.4 59.9235 8.296 60.1635 8.28C60.4195 8.248 60.6515 8.28 60.8595 8.376C61.0835 8.472 61.2675 8.616 61.4115 8.808C61.5715 8.984 61.6835 9.184 61.7475 9.408C61.7955 9.6 61.8355 9.832 61.8675 10.104C61.8995 10.36 61.9155 10.632 61.9155 10.92C61.9315 11.208 61.9395 11.496 61.9395 11.784C61.9395 12.072 61.9395 12.336 61.9395 12.576H62.1795C62.4195 12.576 62.6995 12.568 63.0195 12.552C63.3395 12.536 63.6515 12.544 63.9555 12.576C64.2755 12.608 64.5635 12.688 64.8195 12.816C65.0755 12.928 65.2675 13.128 65.3955 13.416Z" fill="white"/>
<path d="M111.144 8.16C111.224 8.528 111.232 8.904 111.168 9.288C111.12 9.656 111.048 9.992 110.952 10.296C110.76 10.92 110.536 11.616 110.28 12.384C110.024 13.152 109.768 13.92 109.512 14.688C109.256 15.456 109.008 16.184 108.768 16.872C108.528 17.544 108.328 18.104 108.168 18.552C108.008 18.968 107.84 19.44 107.664 19.968C107.488 20.496 107.272 21.016 107.016 21.528C106.776 22.024 106.488 22.48 106.152 22.896C105.832 23.312 105.44 23.616 104.976 23.808C104.512 24 104.088 24.048 103.704 23.952C103.32 23.84 102.976 23.648 102.672 23.376C102.368 23.088 102.088 22.736 101.832 22.32C101.592 21.888 101.376 21.448 101.184 21C100.992 20.552 100.816 20.12 100.656 19.704C100.496 19.272 100.352 18.904 100.224 18.6C99.728 17.512 99.28 16.36 98.88 15.144C98.48 13.928 98.072 12.768 97.656 11.664C97.544 11.344 97.416 10.96 97.272 10.512C97.128 10.048 97.032 9.592 96.984 9.144C96.952 8.68 97.008 8.264 97.152 7.896C97.296 7.512 97.6 7.248 98.064 7.104C98.16 7.072 98.256 7.048 98.352 7.032C98.464 7 98.568 6.976 98.664 6.96C98.776 6.96 98.88 6.968 98.976 6.984C99.072 7 99.176 7.04 99.288 7.104C99.368 7.136 99.448 7.176 99.528 7.224C99.608 7.256 99.68 7.304 99.744 7.368C99.808 7.448 99.864 7.528 99.912 7.608C99.976 7.688 100.04 7.768 100.104 7.848C100.152 7.96 100.192 8.064 100.224 8.16C100.272 8.24 100.312 8.32 100.344 8.4C100.376 8.512 100.416 8.616 100.464 8.712C100.512 8.792 100.552 8.872 100.584 8.952L100.728 9.36L104.184 19.224L107.592 9.384L107.76 8.976C107.792 8.896 107.824 8.816 107.856 8.736C107.888 8.64 107.92 8.536 107.952 8.424C107.984 8.344 108.016 8.264 108.048 8.184C108.096 8.088 108.152 7.992 108.216 7.896C108.264 7.816 108.312 7.736 108.36 7.656C108.424 7.56 108.488 7.472 108.552 7.392C108.6 7.328 108.656 7.272 108.72 7.224C108.8 7.176 108.872 7.136 108.936 7.104C109.064 7.04 109.176 7 109.272 6.984C109.384 6.968 109.48 6.96 109.56 6.96C109.656 6.976 109.752 7 109.848 7.032C109.96 7.048 110.064 7.072 110.16 7.104C110.464 7.184 110.688 7.32 110.832 7.512C110.992 7.704 111.096 7.92 111.144 8.16ZM114.651 13.896C115.131 13.656 115.635 13.488 116.163 13.392C116.691 13.28 117.211 13.256 117.723 13.32C118.251 13.368 118.755 13.504 119.235 13.728C119.715 13.936 120.163 14.24 120.579 14.64C120.995 15.056 121.315 15.512 121.539 16.008C121.763 16.504 121.923 17.056 122.019 17.664C122.083 18.08 122.187 18.464 122.331 18.816C122.475 19.168 122.627 19.52 122.787 19.872C122.963 20.224 123.123 20.576 123.267 20.928C123.427 21.28 123.555 21.648 123.651 22.032C123.731 22.4 123.699 22.76 123.555 23.112C123.427 23.448 123.155 23.656 122.739 23.736C122.499 23.784 122.267 23.768 122.043 23.688C121.835 23.592 121.643 23.464 121.467 23.304C121.291 23.128 121.131 22.944 120.987 22.752C120.859 22.544 120.739 22.352 120.627 22.176C120.259 22.656 119.859 23.032 119.427 23.304C118.995 23.56 118.475 23.728 117.867 23.808C117.355 23.872 116.867 23.888 116.403 23.856C115.939 23.824 115.443 23.736 114.915 23.592C114.227 23.416 113.659 23.112 113.211 22.68C112.779 22.232 112.443 21.72 112.203 21.144C111.979 20.552 111.859 19.92 111.843 19.248C111.827 18.576 111.907 17.912 112.083 17.256C112.307 16.392 112.643 15.688 113.091 15.144C113.539 14.6 114.059 14.184 114.651 13.896ZM115.251 16.704C115.027 16.928 114.851 17.192 114.723 17.496C114.595 17.8 114.515 18.12 114.483 18.456C114.467 18.792 114.499 19.128 114.579 19.464C114.659 19.8 114.787 20.096 114.963 20.352C115.123 20.576 115.395 20.768 115.779 20.928C116.163 21.072 116.563 21.16 116.979 21.192C117.459 21.224 117.875 21.096 118.227 20.808C118.595 20.52 118.867 20.16 119.043 19.728C119.235 19.28 119.323 18.808 119.307 18.312C119.291 17.8 119.155 17.336 118.899 16.92C118.707 16.616 118.451 16.392 118.131 16.248C117.827 16.104 117.499 16.032 117.147 16.032C116.795 16.016 116.443 16.072 116.091 16.2C115.755 16.312 115.475 16.48 115.251 16.704ZM135.512 18.288C135.48 18.816 135.448 19.352 135.416 19.896C135.384 20.424 135.296 20.936 135.152 21.432C135.024 21.928 134.816 22.376 134.528 22.776C134.256 23.176 133.864 23.496 133.352 23.736C132.904 23.96 132.424 24.112 131.912 24.192C131.4 24.288 130.888 24.328 130.376 24.312C129.864 24.296 129.368 24.216 128.888 24.072C128.408 23.944 127.976 23.76 127.592 23.52C127.208 23.28 126.896 22.968 126.656 22.584C126.416 22.2 126.224 21.784 126.08 21.336C125.952 20.888 125.864 20.424 125.816 19.944C125.768 19.464 125.736 19.016 125.72 18.6C125.656 17.496 125.656 16.408 125.72 15.336C125.72 15.128 125.72 14.896 125.72 14.64C125.72 14.368 125.736 14.104 125.768 13.848C125.816 13.592 125.888 13.36 125.984 13.152C126.08 12.928 126.24 12.76 126.464 12.648C126.944 12.392 127.384 12.376 127.784 12.6C128.2 12.824 128.448 13.288 128.528 13.992C128.576 14.36 128.592 14.768 128.576 15.216C128.576 15.664 128.592 16.072 128.624 16.44C128.64 16.984 128.656 17.576 128.672 18.216C128.688 18.84 128.776 19.4 128.936 19.896C129.112 20.392 129.392 20.768 129.776 21.024C130.176 21.264 130.768 21.272 131.552 21.048C131.92 20.936 132.16 20.656 132.272 20.208C132.4 19.76 132.464 19.096 132.464 18.216C132.464 17.832 132.456 17.408 132.44 16.944C132.424 16.48 132.416 16.024 132.416 15.576C132.416 15.112 132.424 14.688 132.44 14.304C132.472 13.904 132.52 13.6 132.584 13.392C132.664 13.104 132.832 12.888 133.088 12.744C133.344 12.6 133.616 12.528 133.904 12.528C134.192 12.512 134.464 12.568 134.72 12.696C134.976 12.824 135.152 13.032 135.248 13.32C135.344 13.576 135.408 13.904 135.44 14.304C135.488 14.688 135.52 15.112 135.536 15.576C135.552 16.024 135.552 16.488 135.536 16.968C135.536 17.432 135.528 17.872 135.512 18.288ZM141.191 22.08C141.175 22.16 141.159 22.24 141.143 22.32C141.143 22.384 141.143 22.456 141.143 22.536L140.999 23.04C140.967 23.104 140.943 23.144 140.927 23.16L140.855 23.304C140.775 23.48 140.631 23.624 140.423 23.736C140.039 23.928 139.631 23.976 139.199 23.88C138.927 23.848 138.711 23.768 138.551 23.64C138.391 23.528 138.279 23.392 138.215 23.232C138.151 23.072 138.103 22.912 138.071 22.752C138.023 22.592 137.999 22.448 137.999 22.32V8.88C137.999 8.768 137.999 8.672 137.999 8.592C138.015 8.496 138.031 8.408 138.047 8.328C138.063 8.216 138.079 8.12 138.095 8.04C138.127 7.96 138.159 7.872 138.191 7.776C138.239 7.616 138.327 7.488 138.455 7.392C138.647 7.248 138.831 7.168 139.007 7.152C139.119 7.12 139.223 7.104 139.319 7.104C139.415 7.088 139.527 7.08 139.655 7.08C139.879 7.08 140.135 7.144 140.423 7.272C140.647 7.4 140.807 7.576 140.903 7.8C141.063 8.12 141.143 8.416 141.143 8.688C141.159 8.848 141.167 9.088 141.167 9.408C141.183 9.728 141.191 9.968 141.191 10.128V10.224C141.223 10.736 141.239 11.232 141.239 11.712C141.239 12.176 141.231 12.688 141.215 13.248C141.215 13.792 141.207 14.32 141.191 14.832C141.191 15.328 141.191 15.824 141.191 16.32V21.36C141.191 21.424 141.191 21.488 141.191 21.552C141.207 21.6 141.215 21.656 141.215 21.72C141.215 21.88 141.207 22 141.191 22.08ZM153.403 13.416C153.531 13.72 153.539 14.056 153.427 14.424C153.331 14.792 153.147 15.032 152.875 15.144C152.731 15.208 152.539 15.264 152.299 15.312C152.059 15.344 151.795 15.376 151.507 15.408C151.235 15.44 150.963 15.464 150.691 15.48C150.419 15.496 150.187 15.504 149.995 15.504C150.011 15.984 150.027 16.48 150.043 16.992C150.059 17.488 150.075 17.976 150.091 18.456C150.107 18.936 150.115 19.4 150.115 19.848C150.115 20.28 150.107 20.672 150.091 21.024C150.091 21.264 150.091 21.544 150.091 21.864C150.091 22.168 150.067 22.464 150.019 22.752C149.987 23.04 149.931 23.296 149.851 23.52C149.771 23.728 149.651 23.864 149.491 23.928C148.995 24.136 148.539 24.192 148.123 24.096C147.723 24.016 147.435 23.848 147.259 23.592C147.131 23.384 147.035 23.144 146.971 22.872C146.907 22.584 146.859 22.296 146.827 22.008C146.811 21.704 146.803 21.416 146.803 21.144C146.819 20.856 146.827 20.608 146.827 20.4C146.843 19.728 146.851 18.968 146.851 18.12C146.867 17.256 146.875 16.392 146.875 15.528H146.515C146.323 15.528 146.075 15.528 145.771 15.528C145.483 15.512 145.187 15.488 144.883 15.456C144.595 15.408 144.323 15.352 144.067 15.288C143.811 15.208 143.627 15.096 143.515 14.952C143.339 14.744 143.227 14.52 143.179 14.28C143.147 14.04 143.163 13.816 143.227 13.608C143.307 13.384 143.427 13.192 143.587 13.032C143.747 12.856 143.931 12.744 144.139 12.696C144.427 12.616 144.835 12.576 145.363 12.576C145.891 12.56 146.387 12.56 146.851 12.576C146.835 12.416 146.827 12.264 146.827 12.12C146.827 11.96 146.819 11.808 146.803 11.664C146.787 11.472 146.779 11.232 146.779 10.944C146.779 10.64 146.795 10.344 146.827 10.056C146.875 9.752 146.947 9.472 147.043 9.216C147.139 8.944 147.275 8.736 147.451 8.592C147.691 8.4 147.931 8.296 148.171 8.28C148.427 8.248 148.659 8.28 148.867 8.376C149.091 8.472 149.275 8.616 149.419 8.808C149.579 8.984 149.691 9.184 149.755 9.408C149.803 9.6 149.843 9.832 149.875 10.104C149.907 10.36 149.923 10.632 149.923 10.92C149.939 11.208 149.947 11.496 149.947 11.784C149.947 12.072 149.947 12.336 149.947 12.576H150.187C150.427 12.576 150.707 12.568 151.027 12.552C151.347 12.536 151.659 12.544 151.963 12.576C152.283 12.608 152.571 12.688 152.827 12.816C153.083 12.928 153.275 13.128 153.403 13.416Z" fill="white"/>
<path d="M80.5 0L79.8587 0.34875L68.0463 6.045L67 6.54875V7.75C67 14.1825 69.2613 19.84 71.9613 23.9863C73.3113 26.04 74.7625 27.745 76.18 28.9462C77.5975 30.1475 78.9813 31 80.5 31C82.0525 31 83.4025 30.1475 84.82 28.9462C86.2375 27.745 87.6888 26.04 89.0388 23.9863C91.7388 19.84 94 14.1825 94 7.75V6.54875L92.9538 6.045L81.1413 0.34875L80.5 0ZM80.5 4.22375V27.125C80.365 27.125 79.3862 26.8538 78.2725 25.9238C77.1587 24.9938 75.8762 23.4825 74.695 21.7C72.535 18.4062 70.8475 13.8337 70.5775 8.99L80.5 4.2625V4.22375Z" fill="#07A658"/>
</svg>
