<svg width="134" height="34" viewBox="0 0 134 34" fill="none" xmlns="http://www.w3.org/2000/svg">
<path d="M15.08 11.64C15.1333 11.8933 15.1333 12.16 15.08 12.44C15.0533 12.5733 15.0267 12.7067 15 12.84C14.9867 12.96 14.9667 13.0867 14.94 13.22L14.92 13.3C14.7333 14.1267 14.52 15 14.28 15.92C14.0533 16.8267 13.8467 17.6867 13.66 18.5C13.5 19.1667 13.3333 19.9 13.16 20.7C12.9867 21.5 12.8067 22.2333 12.62 22.9C12.5533 23.1267 12.48 23.3533 12.4 23.58C12.3333 23.8067 12.2467 24.0333 12.14 24.26C12.0467 24.46 11.9333 24.64 11.8 24.8C11.68 24.9467 11.54 25.0533 11.38 25.12C11.22 25.2 11.0467 25.2267 10.86 25.2C10.6867 25.1867 10.4933 25.1067 10.28 24.96C9.96 24.7333 9.72 24.42 9.56 24.02C9.41333 23.62 9.26 23.2533 9.1 22.92C9.04667 22.8267 8.96667 22.62 8.86 22.3C8.75333 21.98 8.64 21.6333 8.52 21.26C8.4 20.8733 8.28 20.5067 8.16 20.16C8.05333 19.8 7.96 19.5333 7.88 19.36C7.76 19.6533 7.64 19.9867 7.52 20.36C7.4 20.7333 7.28667 21.1 7.18 21.46C7.07333 21.82 6.97333 22.1467 6.88 22.44C6.8 22.72 6.74 22.9267 6.7 23.06C6.59333 23.3267 6.47333 23.62 6.34 23.94C6.22 24.26 6.06667 24.5333 5.88 24.76C5.70667 24.9867 5.49333 25.1333 5.24 25.2C4.98667 25.28 4.68667 25.2067 4.34 24.98C4.07333 24.82 3.88667 24.5933 3.78 24.3C3.71333 24.1133 3.64667 23.9333 3.58 23.76C3.51333 23.5867 3.46 23.4067 3.42 23.22L3.02 21.72L2.2 18.5C2.09333 18.0867 1.98667 17.6667 1.88 17.24C1.78667 16.8 1.67333 16.3467 1.54 15.88C1.47333 15.6533 1.41333 15.4333 1.36 15.22C1.32 14.9933 1.27333 14.7533 1.22 14.5C1.18 14.2333 1.12667 13.9333 1.06 13.6C1.00667 13.2667 0.94 12.88 0.86 12.44C0.833333 12.2933 0.813333 12.16 0.8 12.04C0.8 11.9067 0.813333 11.7733 0.84 11.64C0.866667 11.44 0.96 11.2667 1.12 11.12C1.18667 11.0533 1.26667 11 1.36 10.96C1.45333 10.92 1.55333 10.8867 1.66 10.86C1.82 10.8067 1.98667 10.78 2.16 10.78C2.32 10.78 2.48667 10.8333 2.66 10.94C2.78 11.0067 2.87333 11.0933 2.94 11.2L3.18 11.62C3.20667 11.7133 3.23333 11.8 3.26 11.88C3.28667 11.9467 3.31333 12.02 3.34 12.1C3.36667 12.1933 3.38667 12.28 3.4 12.36C3.41333 12.4267 3.42667 12.4933 3.44 12.56C3.56 13.2533 3.70667 13.9267 3.88 14.58C4.05333 15.2333 4.21333 15.86 4.36 16.46C4.41333 16.7 4.48 17 4.56 17.36C4.64 17.7067 4.72 18.0733 4.8 18.46C4.88 18.8333 4.96 19.1933 5.04 19.54C5.12 19.8867 5.2 20.16 5.28 20.36C5.45333 19.76 5.62667 19.16 5.8 18.56C5.98667 17.96 6.18667 17.3533 6.4 16.74C6.50667 16.42 6.61333 16.1333 6.72 15.88C6.84 15.6133 6.97333 15.3933 7.12 15.22C7.26667 15.0467 7.43333 14.9333 7.62 14.88C7.80667 14.8267 8.02667 14.8467 8.28 14.94C8.50667 15.0333 8.70667 15.2333 8.88 15.54C9.05333 15.8467 9.20667 16.16 9.34 16.48C9.46 16.7733 9.57333 17.0867 9.68 17.42C9.8 17.74 9.91333 18.06 10.02 18.38C10.14 18.6867 10.2533 18.98 10.36 19.26C10.4667 19.54 10.5733 19.78 10.68 19.98C10.72 19.8333 10.7667 19.6467 10.82 19.42C10.8733 19.1933 10.9267 18.9533 10.98 18.7C11.0467 18.4333 11.1067 18.1733 11.16 17.92C11.2133 17.6667 11.2667 17.4333 11.32 17.22C11.4933 16.5 11.6733 15.78 11.86 15.06C12.0467 14.3267 12.2267 13.6067 12.4 12.9L12.5 12.56C12.5267 12.4933 12.54 12.4267 12.54 12.36C12.5533 12.28 12.5733 12.1933 12.6 12.1C12.6267 12.02 12.6533 11.9467 12.68 11.88C12.7067 11.8 12.7333 11.7133 12.76 11.62C12.7867 11.5533 12.8133 11.4867 12.84 11.42C12.88 11.34 12.9267 11.2667 12.98 11.2C13.02 11.1333 13.0667 11.08 13.12 11.04C13.1733 11 13.2267 10.9667 13.28 10.94C13.4667 10.8333 13.6267 10.78 13.76 10.78C13.9333 10.78 14.1 10.8067 14.26 10.86C14.4733 10.9 14.6667 10.9867 14.84 11.12C14.9733 11.2533 15.0533 11.4267 15.08 11.64ZM18.0033 16.58C18.4033 16.38 18.8233 16.24 19.2633 16.16C19.7033 16.0667 20.1366 16.0467 20.5633 16.1C21.0033 16.14 21.4233 16.2533 21.8233 16.44C22.2233 16.6133 22.5966 16.8667 22.9433 17.2C23.2899 17.5467 23.5566 17.9267 23.7433 18.34C23.9299 18.7533 24.0633 19.2133 24.1433 19.72C24.1966 20.0667 24.2833 20.3867 24.4033 20.68C24.5233 20.9733 24.6499 21.2667 24.7833 21.56C24.9299 21.8533 25.0633 22.1467 25.1833 22.44C25.3166 22.7333 25.4233 23.04 25.5033 23.36C25.5699 23.6667 25.5433 23.9667 25.4233 24.26C25.3166 24.54 25.0899 24.7133 24.7433 24.78C24.5433 24.82 24.3499 24.8067 24.1633 24.74C23.9899 24.66 23.8299 24.5533 23.6833 24.42C23.5366 24.2733 23.4033 24.12 23.2833 23.96C23.1766 23.7867 23.0766 23.6267 22.9833 23.48C22.6766 23.88 22.3433 24.1933 21.9833 24.42C21.6233 24.6333 21.1899 24.7733 20.6833 24.84C20.2566 24.8933 19.8499 24.9067 19.4633 24.88C19.0766 24.8533 18.6633 24.78 18.2233 24.66C17.6499 24.5133 17.1766 24.26 16.8033 23.9C16.4433 23.5267 16.1633 23.1 15.9633 22.62C15.7766 22.1267 15.6766 21.6 15.6633 21.04C15.6499 20.48 15.7166 19.9267 15.8633 19.38C16.0499 18.66 16.3299 18.0733 16.7033 17.62C17.0766 17.1667 17.5099 16.82 18.0033 16.58ZM18.5033 18.92C18.3166 19.1067 18.1699 19.3267 18.0633 19.58C17.9566 19.8333 17.8899 20.1 17.8633 20.38C17.8499 20.66 17.8766 20.94 17.9433 21.22C18.0099 21.5 18.1166 21.7467 18.2633 21.96C18.3966 22.1467 18.6233 22.3067 18.9433 22.44C19.2633 22.56 19.5966 22.6333 19.9433 22.66C20.3433 22.6867 20.6899 22.58 20.9833 22.34C21.2899 22.1 21.5166 21.8 21.6633 21.44C21.8233 21.0667 21.8966 20.6733 21.8833 20.26C21.8699 19.8333 21.7566 19.4467 21.5433 19.1C21.3833 18.8467 21.1699 18.66 20.9033 18.54C20.6499 18.42 20.3766 18.36 20.0833 18.36C19.7899 18.3467 19.4966 18.3933 19.2033 18.5C18.9233 18.5933 18.6899 18.7333 18.5033 18.92ZM29.8272 23.4C29.8139 23.4667 29.8005 23.5333 29.7872 23.6C29.7872 23.6533 29.7872 23.7133 29.7872 23.78L29.6672 24.2C29.6405 24.2533 29.6205 24.2867 29.6072 24.3L29.5472 24.42C29.4805 24.5667 29.3605 24.6867 29.1872 24.78C28.8672 24.94 28.5272 24.98 28.1672 24.9C27.9405 24.8733 27.7605 24.8067 27.6272 24.7C27.4939 24.6067 27.4005 24.4933 27.3472 24.36C27.2939 24.2267 27.2539 24.0933 27.2272 23.96C27.1872 23.8267 27.1672 23.7067 27.1672 23.6V12.4C27.1672 12.3067 27.1672 12.2267 27.1672 12.16C27.1805 12.08 27.1939 12.0067 27.2072 11.94C27.2205 11.8467 27.2339 11.7667 27.2472 11.7C27.2739 11.6333 27.3005 11.56 27.3272 11.48C27.3672 11.3467 27.4405 11.24 27.5472 11.16C27.7072 11.04 27.8605 10.9733 28.0072 10.96C28.1005 10.9333 28.1872 10.92 28.2672 10.92C28.3472 10.9067 28.4405 10.9 28.5472 10.9C28.7339 10.9 28.9472 10.9533 29.1872 11.06C29.3739 11.1667 29.5072 11.3133 29.5872 11.5C29.7205 11.7667 29.7872 12.0133 29.7872 12.24C29.8005 12.3733 29.8072 12.5733 29.8072 12.84C29.8205 13.1067 29.8272 13.3067 29.8272 13.44V13.52C29.8539 13.9467 29.8672 14.36 29.8672 14.76C29.8672 15.1467 29.8605 15.5733 29.8472 16.04C29.8472 16.4933 29.8405 16.9333 29.8272 17.36C29.8272 17.7733 29.8272 18.1867 29.8272 18.6V22.8C29.8272 22.8533 29.8272 22.9067 29.8272 22.96C29.8405 23 29.8472 23.0467 29.8472 23.1C29.8472 23.2333 29.8405 23.3333 29.8272 23.4ZM34.9834 23.4C34.9701 23.4667 34.9568 23.5333 34.9434 23.6C34.9434 23.6533 34.9434 23.7133 34.9434 23.78L34.8234 24.2C34.7968 24.2533 34.7768 24.2867 34.7634 24.3L34.7034 24.42C34.6368 24.5667 34.5168 24.6867 34.3434 24.78C34.0234 24.94 33.6834 24.98 33.3234 24.9C33.0968 24.8733 32.9168 24.8067 32.7834 24.7C32.6501 24.6067 32.5568 24.4933 32.5034 24.36C32.4501 24.2267 32.4101 24.0933 32.3834 23.96C32.3434 23.8267 32.3234 23.7067 32.3234 23.6V12.4C32.3234 12.3067 32.3234 12.2267 32.3234 12.16C32.3368 12.08 32.3501 12.0067 32.3634 11.94C32.3768 11.8467 32.3901 11.7667 32.4034 11.7C32.4301 11.6333 32.4568 11.56 32.4834 11.48C32.5234 11.3467 32.5968 11.24 32.7034 11.16C32.8634 11.04 33.0168 10.9733 33.1634 10.96C33.2568 10.9333 33.3434 10.92 33.4234 10.92C33.5034 10.9067 33.5968 10.9 33.7034 10.9C33.8901 10.9 34.1034 10.9533 34.3434 11.06C34.5301 11.1667 34.6634 11.3133 34.7434 11.5C34.8768 11.7667 34.9434 12.0133 34.9434 12.24C34.9568 12.3733 34.9634 12.5733 34.9634 12.84C34.9768 13.1067 34.9834 13.3067 34.9834 13.44V13.52C35.0101 13.9467 35.0234 14.36 35.0234 14.76C35.0234 15.1467 35.0168 15.5733 35.0034 16.04C35.0034 16.4933 34.9968 16.9333 34.9834 17.36C34.9834 17.7733 34.9834 18.1867 34.9834 18.6V22.8C34.9834 22.8533 34.9834 22.9067 34.9834 22.96C34.9968 23 35.0034 23.0467 35.0034 23.1C35.0034 23.2333 34.9968 23.3333 34.9834 23.4ZM43.5403 22.26C43.7003 22.22 43.8603 22.1933 44.0203 22.18C44.1936 22.1667 44.347 22.1867 44.4803 22.24C44.627 22.2933 44.747 22.3867 44.8403 22.52C44.9336 22.64 44.9803 22.8133 44.9803 23.04C44.9803 23.2 44.9403 23.3533 44.8603 23.5C44.7803 23.6467 44.6803 23.78 44.5603 23.9C44.4403 24.02 44.307 24.1267 44.1603 24.22C44.0136 24.3 43.8736 24.3667 43.7403 24.42C43.3536 24.5933 42.907 24.7267 42.4003 24.82C41.907 24.9133 41.3936 24.9467 40.8603 24.92C40.1403 24.8933 39.447 24.7533 38.7803 24.5C38.127 24.2333 37.6136 23.8 37.2403 23.2C36.8936 22.6133 36.687 21.96 36.6203 21.24C36.5536 20.52 36.587 19.84 36.7203 19.2C36.867 18.4267 37.1136 17.8 37.4603 17.32C37.8203 16.8267 38.247 16.4333 38.7403 16.14C39.3403 15.7933 40.0136 15.6133 40.7603 15.6C41.507 15.5867 42.2203 15.7333 42.9003 16.04C43.3536 16.24 43.7603 16.5133 44.1203 16.86C44.4803 17.1933 44.7536 17.6 44.9403 18.08C44.9936 18.2 45.0336 18.3467 45.0603 18.52C45.1003 18.6933 45.127 18.88 45.1403 19.08C45.1536 19.2667 45.1536 19.4533 45.1403 19.64C45.127 19.8267 45.0936 19.9933 45.0403 20.14C44.9603 20.38 44.8603 20.5667 44.7403 20.7C44.6203 20.8333 44.467 20.9333 44.2803 21C44.0936 21.0667 43.867 21.1133 43.6003 21.14C43.347 21.1533 43.0403 21.1667 42.6803 21.18C42.3603 21.1933 42.0603 21.2 41.7803 21.2C41.5003 21.2 41.2136 21.2 40.9203 21.2C40.627 21.1867 40.3203 21.18 40.0003 21.18C39.6936 21.1667 39.347 21.1533 38.9603 21.14C38.9203 21.4067 38.9536 21.64 39.0603 21.84C39.1803 22.0267 39.3403 22.1867 39.5403 22.32C39.7403 22.44 39.967 22.5333 40.2203 22.6C40.4736 22.6667 40.7203 22.7067 40.9603 22.72C41.4136 22.7467 41.847 22.7133 42.2603 22.62C42.6736 22.5133 43.1003 22.3933 43.5403 22.26ZM42.6803 18.38C42.427 18.0867 42.1603 17.8733 41.8803 17.74C41.667 17.6467 41.4403 17.6067 41.2003 17.62C40.9736 17.62 40.7536 17.6533 40.5403 17.72C40.1536 17.8133 39.827 18.0133 39.5603 18.32C39.5336 18.3467 39.487 18.4133 39.4203 18.52C39.3536 18.6133 39.287 18.7133 39.2203 18.82C39.167 18.9267 39.127 19.0267 39.1003 19.12C39.0736 19.2133 39.087 19.26 39.1403 19.26H43.0603C43.047 19.0733 43.0136 18.92 42.9603 18.8C42.907 18.6667 42.8136 18.5267 42.6803 18.38ZM54.4963 16.18C54.6029 16.4333 54.6096 16.7133 54.5163 17.02C54.4363 17.3267 54.2829 17.5267 54.0563 17.62C53.9363 17.6733 53.7763 17.72 53.5763 17.76C53.3763 17.7867 53.1563 17.8133 52.9163 17.84C52.6896 17.8667 52.4629 17.8867 52.2363 17.9C52.0096 17.9133 51.8163 17.92 51.6563 17.92C51.6696 18.32 51.6829 18.7333 51.6963 19.16C51.7096 19.5733 51.7229 19.98 51.7363 20.38C51.7496 20.78 51.7563 21.1667 51.7563 21.54C51.7563 21.9 51.7496 22.2267 51.7363 22.52C51.7363 22.72 51.7363 22.9533 51.7363 23.22C51.7363 23.4733 51.7163 23.72 51.6763 23.96C51.6496 24.2 51.6029 24.4133 51.5363 24.6C51.4696 24.7733 51.3696 24.8867 51.2363 24.94C50.8229 25.1133 50.4429 25.16 50.0963 25.08C49.7629 25.0133 49.5229 24.8733 49.3763 24.66C49.2696 24.4867 49.1896 24.2867 49.1363 24.06C49.0829 23.82 49.0429 23.58 49.0163 23.34C49.0029 23.0867 48.9963 22.8467 48.9963 22.62C49.0096 22.38 49.0163 22.1733 49.0163 22C49.0296 21.44 49.0363 20.8067 49.0363 20.1C49.0496 19.38 49.0563 18.66 49.0563 17.94H48.7563C48.5963 17.94 48.3896 17.94 48.1363 17.94C47.8963 17.9267 47.6496 17.9067 47.3963 17.88C47.1563 17.84 46.9296 17.7933 46.7163 17.74C46.5029 17.6733 46.3496 17.58 46.2563 17.46C46.1096 17.2867 46.0163 17.1 45.9763 16.9C45.9496 16.7 45.9629 16.5133 46.0163 16.34C46.0829 16.1533 46.1829 15.9933 46.3163 15.86C46.4496 15.7133 46.6029 15.62 46.7763 15.58C47.0163 15.5133 47.3563 15.48 47.7962 15.48C48.2363 15.4667 48.6496 15.4667 49.0363 15.48C49.0229 15.3467 49.0163 15.22 49.0163 15.1C49.0163 14.9667 49.0096 14.84 48.9963 14.72C48.9829 14.56 48.9763 14.36 48.9763 14.12C48.9763 13.8667 48.9896 13.62 49.0163 13.38C49.0563 13.1267 49.1163 12.8933 49.1963 12.68C49.2763 12.4533 49.3896 12.28 49.5363 12.16C49.7363 12 49.9363 11.9133 50.1363 11.9C50.3496 11.8733 50.5429 11.9 50.7163 11.98C50.9029 12.06 51.0563 12.18 51.1763 12.34C51.3096 12.4867 51.4029 12.6533 51.4563 12.84C51.4963 13 51.5296 13.1933 51.5563 13.42C51.5829 13.6333 51.5963 13.86 51.5963 14.1C51.6096 14.34 51.6163 14.58 51.6163 14.82C51.6163 15.06 51.6163 15.28 51.6163 15.48H51.8163C52.0163 15.48 52.2496 15.4733 52.5163 15.46C52.7829 15.4467 53.0429 15.4533 53.2963 15.48C53.5629 15.5067 53.8029 15.5733 54.0163 15.68C54.2296 15.7733 54.3896 15.94 54.4963 16.18Z" fill="white"/>
<path d="M97.62 11.8C97.6867 12.1067 97.6933 12.42 97.64 12.74C97.6 13.0467 97.54 13.3267 97.46 13.58C97.3 14.1 97.1133 14.68 96.9 15.32C96.6867 15.96 96.4733 16.6 96.26 17.24C96.0467 17.88 95.84 18.4867 95.64 19.06C95.44 19.62 95.2733 20.0867 95.14 20.46C95.0067 20.8067 94.8667 21.2 94.72 21.64C94.5733 22.08 94.3933 22.5133 94.18 22.94C93.98 23.3533 93.74 23.7333 93.46 24.08C93.1933 24.4267 92.8667 24.68 92.48 24.84C92.0933 25 91.74 25.04 91.42 24.96C91.1 24.8667 90.8133 24.7067 90.56 24.48C90.3067 24.24 90.0733 23.9467 89.86 23.6C89.66 23.24 89.48 22.8733 89.32 22.5C89.16 22.1267 89.0133 21.7667 88.88 21.42C88.7467 21.06 88.6267 20.7533 88.52 20.5C88.1067 19.5933 87.7333 18.6333 87.4 17.62C87.0667 16.6067 86.7267 15.64 86.38 14.72C86.2867 14.4533 86.18 14.1333 86.06 13.76C85.94 13.3733 85.86 12.9933 85.82 12.62C85.7933 12.2333 85.84 11.8867 85.96 11.58C86.08 11.26 86.3333 11.04 86.72 10.92C86.8 10.8933 86.88 10.8733 86.96 10.86C87.0533 10.8333 87.14 10.8133 87.22 10.8C87.3133 10.8 87.4 10.8067 87.48 10.82C87.56 10.8333 87.6467 10.8667 87.74 10.92C87.8067 10.9467 87.8733 10.98 87.94 11.02C88.0067 11.0467 88.0667 11.0867 88.12 11.14C88.1733 11.2067 88.22 11.2733 88.26 11.34C88.3133 11.4067 88.3667 11.4733 88.42 11.54C88.46 11.6333 88.4933 11.72 88.52 11.8C88.56 11.8667 88.5933 11.9333 88.62 12C88.6467 12.0933 88.68 12.18 88.72 12.26C88.76 12.3267 88.7933 12.3933 88.82 12.46L88.94 12.8L91.82 21.02L94.66 12.82L94.8 12.48C94.8267 12.4133 94.8533 12.3467 94.88 12.28C94.9067 12.2 94.9333 12.1133 94.96 12.02C94.9867 11.9533 95.0133 11.8867 95.04 11.82C95.08 11.74 95.1267 11.66 95.18 11.58C95.22 11.5133 95.26 11.4467 95.3 11.38C95.3533 11.3 95.4067 11.2267 95.46 11.16C95.5 11.1067 95.5467 11.06 95.6 11.02C95.6667 10.98 95.7267 10.9467 95.78 10.92C95.8867 10.8667 95.98 10.8333 96.06 10.82C96.1533 10.8067 96.2333 10.8 96.3 10.8C96.38 10.8133 96.46 10.8333 96.54 10.86C96.6333 10.8733 96.72 10.8933 96.8 10.92C97.0533 10.9867 97.24 11.1 97.36 11.26C97.4933 11.42 97.58 11.6 97.62 11.8ZM100.542 16.58C100.942 16.38 101.362 16.24 101.802 16.16C102.242 16.0667 102.676 16.0467 103.102 16.1C103.542 16.14 103.962 16.2533 104.362 16.44C104.762 16.6133 105.136 16.8667 105.482 17.2C105.829 17.5467 106.096 17.9267 106.282 18.34C106.469 18.7533 106.602 19.2133 106.682 19.72C106.736 20.0667 106.822 20.3867 106.942 20.68C107.062 20.9733 107.189 21.2667 107.322 21.56C107.469 21.8533 107.602 22.1467 107.722 22.44C107.856 22.7333 107.962 23.04 108.042 23.36C108.109 23.6667 108.082 23.9667 107.962 24.26C107.856 24.54 107.629 24.7133 107.282 24.78C107.082 24.82 106.889 24.8067 106.702 24.74C106.529 24.66 106.369 24.5533 106.222 24.42C106.076 24.2733 105.942 24.12 105.822 23.96C105.716 23.7867 105.616 23.6267 105.522 23.48C105.216 23.88 104.882 24.1933 104.522 24.42C104.162 24.6333 103.729 24.7733 103.222 24.84C102.796 24.8933 102.389 24.9067 102.002 24.88C101.616 24.8533 101.202 24.78 100.762 24.66C100.189 24.5133 99.7157 24.26 99.3423 23.9C98.9823 23.5267 98.7023 23.1 98.5023 22.62C98.3157 22.1267 98.2157 21.6 98.2023 21.04C98.189 20.48 98.2557 19.9267 98.4023 19.38C98.589 18.66 98.869 18.0733 99.2423 17.62C99.6157 17.1667 100.049 16.82 100.542 16.58ZM101.042 18.92C100.856 19.1067 100.709 19.3267 100.602 19.58C100.496 19.8333 100.429 20.1 100.402 20.38C100.389 20.66 100.416 20.94 100.482 21.22C100.549 21.5 100.656 21.7467 100.802 21.96C100.936 22.1467 101.162 22.3067 101.482 22.44C101.802 22.56 102.136 22.6333 102.482 22.66C102.882 22.6867 103.229 22.58 103.522 22.34C103.829 22.1 104.056 21.8 104.202 21.44C104.362 21.0667 104.436 20.6733 104.422 20.26C104.409 19.8333 104.296 19.4467 104.082 19.1C103.922 18.8467 103.709 18.66 103.442 18.54C103.189 18.42 102.916 18.36 102.622 18.36C102.329 18.3467 102.036 18.3933 101.742 18.5C101.462 18.5933 101.229 18.7333 101.042 18.92ZM117.926 20.24C117.9 20.68 117.873 21.1267 117.846 21.58C117.82 22.02 117.746 22.4467 117.626 22.86C117.52 23.2733 117.346 23.6467 117.106 23.98C116.88 24.3133 116.553 24.58 116.126 24.78C115.753 24.9667 115.353 25.0933 114.926 25.16C114.5 25.24 114.073 25.2733 113.646 25.26C113.22 25.2467 112.806 25.18 112.406 25.06C112.006 24.9533 111.646 24.8 111.326 24.6C111.006 24.4 110.746 24.14 110.546 23.82C110.346 23.5 110.186 23.1533 110.066 22.78C109.96 22.4067 109.886 22.02 109.846 21.62C109.806 21.22 109.78 20.8467 109.766 20.5C109.713 19.58 109.713 18.6733 109.766 17.78C109.766 17.6067 109.766 17.4133 109.766 17.2C109.766 16.9733 109.78 16.7533 109.806 16.54C109.846 16.3267 109.906 16.1333 109.986 15.96C110.066 15.7733 110.2 15.6333 110.386 15.54C110.786 15.3267 111.153 15.3133 111.486 15.5C111.833 15.6867 112.04 16.0733 112.106 16.66C112.146 16.9667 112.16 17.3067 112.146 17.68C112.146 18.0533 112.16 18.3933 112.186 18.7C112.2 19.1533 112.213 19.6467 112.226 20.18C112.24 20.7 112.313 21.1667 112.446 21.58C112.593 21.9933 112.826 22.3067 113.146 22.52C113.48 22.72 113.973 22.7267 114.626 22.54C114.933 22.4467 115.133 22.2133 115.226 21.84C115.333 21.4667 115.386 20.9133 115.386 20.18C115.386 19.86 115.38 19.5067 115.366 19.12C115.353 18.7333 115.346 18.3533 115.346 17.98C115.346 17.5933 115.353 17.24 115.366 16.92C115.393 16.5867 115.433 16.3333 115.486 16.16C115.553 15.92 115.693 15.74 115.906 15.62C116.12 15.5 116.346 15.44 116.586 15.44C116.826 15.4267 117.053 15.4733 117.266 15.58C117.48 15.6867 117.626 15.86 117.706 16.1C117.786 16.3133 117.84 16.5867 117.866 16.92C117.906 17.24 117.933 17.5933 117.946 17.98C117.96 18.3533 117.96 18.74 117.946 19.14C117.946 19.5267 117.94 19.8933 117.926 20.24ZM122.659 23.4C122.646 23.4667 122.633 23.5333 122.619 23.6C122.619 23.6533 122.619 23.7133 122.619 23.78L122.499 24.2C122.473 24.2533 122.453 24.2867 122.439 24.3L122.379 24.42C122.313 24.5667 122.193 24.6867 122.019 24.78C121.699 24.94 121.359 24.98 120.999 24.9C120.773 24.8733 120.593 24.8067 120.459 24.7C120.326 24.6067 120.233 24.4933 120.179 24.36C120.126 24.2267 120.086 24.0933 120.059 23.96C120.019 23.8267 119.999 23.7067 119.999 23.6V12.4C119.999 12.3067 119.999 12.2267 119.999 12.16C120.013 12.08 120.026 12.0067 120.039 11.94C120.053 11.8467 120.066 11.7667 120.079 11.7C120.106 11.6333 120.133 11.56 120.159 11.48C120.199 11.3467 120.273 11.24 120.379 11.16C120.539 11.04 120.693 10.9733 120.839 10.96C120.933 10.9333 121.019 10.92 121.099 10.92C121.179 10.9067 121.273 10.9 121.379 10.9C121.566 10.9 121.779 10.9533 122.019 11.06C122.206 11.1667 122.339 11.3133 122.419 11.5C122.553 11.7667 122.619 12.0133 122.619 12.24C122.633 12.3733 122.639 12.5733 122.639 12.84C122.653 13.1067 122.659 13.3067 122.659 13.44V13.52C122.686 13.9467 122.699 14.36 122.699 14.76C122.699 15.1467 122.693 15.5733 122.679 16.04C122.679 16.4933 122.673 16.9333 122.659 17.36C122.659 17.7733 122.659 18.1867 122.659 18.6V22.8C122.659 22.8533 122.659 22.9067 122.659 22.96C122.673 23 122.679 23.0467 122.679 23.1C122.679 23.2333 122.673 23.3333 122.659 23.4ZM132.836 16.18C132.943 16.4333 132.949 16.7133 132.856 17.02C132.776 17.3267 132.623 17.5267 132.396 17.62C132.276 17.6733 132.116 17.72 131.916 17.76C131.716 17.7867 131.496 17.8133 131.256 17.84C131.029 17.8667 130.803 17.8867 130.576 17.9C130.349 17.9133 130.156 17.92 129.996 17.92C130.009 18.32 130.023 18.7333 130.036 19.16C130.049 19.5733 130.063 19.98 130.076 20.38C130.089 20.78 130.096 21.1667 130.096 21.54C130.096 21.9 130.089 22.2267 130.076 22.52C130.076 22.72 130.076 22.9533 130.076 23.22C130.076 23.4733 130.056 23.72 130.016 23.96C129.989 24.2 129.943 24.4133 129.876 24.6C129.809 24.7733 129.709 24.8867 129.576 24.94C129.163 25.1133 128.783 25.16 128.436 25.08C128.103 25.0133 127.863 24.8733 127.716 24.66C127.609 24.4867 127.529 24.2867 127.476 24.06C127.423 23.82 127.383 23.58 127.356 23.34C127.343 23.0867 127.336 22.8467 127.336 22.62C127.349 22.38 127.356 22.1733 127.356 22C127.369 21.44 127.376 20.8067 127.376 20.1C127.389 19.38 127.396 18.66 127.396 17.94H127.096C126.936 17.94 126.729 17.94 126.476 17.94C126.236 17.9267 125.989 17.9067 125.736 17.88C125.496 17.84 125.269 17.7933 125.056 17.74C124.843 17.6733 124.689 17.58 124.596 17.46C124.449 17.2867 124.356 17.1 124.316 16.9C124.289 16.7 124.303 16.5133 124.356 16.34C124.423 16.1533 124.523 15.9933 124.656 15.86C124.789 15.7133 124.943 15.62 125.116 15.58C125.356 15.5133 125.696 15.48 126.136 15.48C126.576 15.4667 126.989 15.4667 127.376 15.48C127.363 15.3467 127.356 15.22 127.356 15.1C127.356 14.9667 127.349 14.84 127.336 14.72C127.323 14.56 127.316 14.36 127.316 14.12C127.316 13.8667 127.329 13.62 127.356 13.38C127.396 13.1267 127.456 12.8933 127.536 12.68C127.616 12.4533 127.729 12.28 127.876 12.16C128.076 12 128.276 11.9133 128.476 11.9C128.689 11.8733 128.883 11.9 129.056 11.98C129.243 12.06 129.396 12.18 129.516 12.34C129.649 12.4867 129.743 12.6533 129.796 12.84C129.836 13 129.869 13.1933 129.896 13.42C129.923 13.6333 129.936 13.86 129.936 14.1C129.949 14.34 129.956 14.58 129.956 14.82C129.956 15.06 129.956 15.28 129.956 15.48H130.156C130.356 15.48 130.589 15.4733 130.856 15.46C131.123 15.4467 131.383 15.4533 131.636 15.48C131.903 15.5067 132.143 15.5733 132.356 15.68C132.569 15.7733 132.729 15.94 132.836 16.18Z" fill="white"/>
<path d="M69.1045 0L68.4345 0.3825L56.0931 6.63L55 7.1825V8.5C55 15.555 57.3625 21.76 60.1834 26.3075C61.5939 28.56 63.1101 30.43 64.5911 31.7475C66.072 33.065 67.5177 34 69.1045 34C70.7265 34 72.137 33.065 73.6179 31.7475C75.0989 30.43 76.6151 28.56 78.0256 26.3075C80.8465 21.76 83.209 15.555 83.209 8.5V7.1825L82.1159 6.63L69.7745 0.3825L69.1045 0ZM69.1045 4.6325V29.75C68.9634 29.75 67.9409 29.4525 66.7773 28.4325C65.6136 27.4125 64.2737 25.755 63.0396 23.8C60.7828 20.1875 59.0198 15.1725 58.7377 9.86L69.1045 4.675V4.6325Z" fill="#FCD535"/>
</svg>
